<svg xmlns="http://www.w3.org/2000/svg" viewBox="0 0 816 78.74"><defs><style>.cls-1{fill:#ccc;}.cls-2{fill:#efefef;}.cls-3{fill-opacity:0;}</style></defs><title>Asset 1</title><g id="Layer_2" data-name="Layer 2"><g id="Layer_1-2" data-name="Layer 1"><path class="cls-1" d="M0,13.12H0A13.12,13.12,0,0,1,13.12,0H802.88A13.12,13.12,0,0,1,816,13.12V65.62a13.12,13.12,0,0,1-13.12,13.12H13.12A13.12,13.12,0,0,1,0,65.62Z"/><path class="cls-2" d="M96,30.73H264v32H96Z"/><path d="M115.21,48.76h1.59v1.19h-1.59v2.64h-1.44V49.95h-5.19v-.86l5.09-7.87h1.53Zm-5,0h3.59V43.14l-.23.44Zm10.46-2.56h1a3.06,3.06,0,0,0,1-.14,2.19,2.19,0,0,0,.7-.41,1.7,1.7,0,0,0,.42-.62,1.94,1.94,0,0,0,.16-.78,1.78,1.78,0,0,0-2-2,2.39,2.39,0,0,0-.84.14,1.75,1.75,0,0,0-.66.39,1.82,1.82,0,0,0-.42.61,2.22,2.22,0,0,0-.14.81h-1.45a3,3,0,0,1,.25-1.22,3.15,3.15,0,0,1,.72-1,3.23,3.23,0,0,1,1.11-.67,3.93,3.93,0,0,1,1.44-.25,4.48,4.48,0,0,1,1.39.2,3,3,0,0,1,1.09.61,2.73,2.73,0,0,1,.7,1,3.56,3.56,0,0,1,.25,1.39,2.36,2.36,0,0,1-.11.69,2.3,2.3,0,0,1-.31.67,2.74,2.74,0,0,1-.55.63,2.68,2.68,0,0,1-.78.48,3.08,3.08,0,0,1,.92.48,2.29,2.29,0,0,1,.59.64,2.58,2.58,0,0,1,.31.77,3.34,3.34,0,0,1,.09.78,3.43,3.43,0,0,1-.28,1.42,2.87,2.87,0,0,1-.75,1,3.49,3.49,0,0,1-1.16.66,4.47,4.47,0,0,1-1.42.22,4.73,4.73,0,0,1-1.41-.2,3.45,3.45,0,0,1-1.14-.62,3.14,3.14,0,0,1-.78-1,3.1,3.1,0,0,1-.28-1.34h1.45a2.3,2.3,0,0,0,.14.81,1.88,1.88,0,0,0,.44.63,2,2,0,0,0,.69.39,2.71,2.71,0,0,0,.89.14,2.92,2.92,0,0,0,.89-.12,1.72,1.72,0,0,0,.69-.39,1.66,1.66,0,0,0,.42-.66,2.6,2.6,0,0,0,.16-.94,2.28,2.28,0,0,0-.17-.92,1.6,1.6,0,0,0-.5-.64,2,2,0,0,0-.77-.39,3.58,3.58,0,0,0-1-.12h-1Zm9.48,5.11a5.72,5.72,0,0,0,1.34-.14,3.87,3.87,0,0,0,1-.39,2.69,2.69,0,0,0,.72-.58,2.83,2.83,0,0,0,.47-.75,3.69,3.69,0,0,0,.27-.87,6.77,6.77,0,0,0,.13-.94,3.56,3.56,0,0,1-.44.45,2.62,2.62,0,0,1-.55.36,3,3,0,0,1-.67.25,4,4,0,0,1-.81.08,3,3,0,0,1-1.45-.33,3.13,3.13,0,0,1-1-.86,3.87,3.87,0,0,1-.58-1.22,5.21,5.21,0,0,1-.19-1.37,5.08,5.08,0,0,1,.22-1.52,3.58,3.58,0,0,1,.66-1.25,3.22,3.22,0,0,1,1.11-.86,3.88,3.88,0,0,1,2.72-.12,2.71,2.71,0,0,1,.92.5,3.21,3.21,0,0,1,.69.77,4.32,4.32,0,0,1,.48,1,5.26,5.26,0,0,1,.27,1.08,6.55,6.55,0,0,1,.09,1.11v.53a14.63,14.63,0,0,1-.08,1.48,7.05,7.05,0,0,1-.28,1.48,5.58,5.58,0,0,1-.58,1.33,3.92,3.92,0,0,1-1,1.09,4.66,4.66,0,0,1-1.45.75,6.55,6.55,0,0,1-2,.28H130v-1.3Zm1.72-3.72a2.09,2.09,0,0,0,.72-.12,2.54,2.54,0,0,0,.64-.34,2.42,2.42,0,0,0,.52-.52,2.84,2.84,0,0,0,.38-.67v-.47a4.51,4.51,0,0,0-.19-1.36,3.18,3.18,0,0,0-.47-1,2.11,2.11,0,0,0-.7-.62,1.67,1.67,0,0,0-.83-.22,1.94,1.94,0,0,0-.91.2,1.89,1.89,0,0,0-.66.56,2.45,2.45,0,0,0-.41.84,3.74,3.74,0,0,0-.14,1,3.92,3.92,0,0,0,.13,1,2.82,2.82,0,0,0,.38.84,2,2,0,0,0,.64.61A1.73,1.73,0,0,0,131.83,47.59Zm12.59-.27h-4.75v4h5.53v1.23h-7V41.21h6.92v1.23h-5.47v3.66h4.75Zm7.1.63h-2.27v4.64h-1.44V41.21h3.33a5.38,5.38,0,0,1,1.5.23,3.54,3.54,0,0,1,1.23.63,2.88,2.88,0,0,1,.83,1.06,3.43,3.43,0,0,1,.3,1.48,3.24,3.24,0,0,1-.16,1,3,3,0,0,1-.44.83,3.42,3.42,0,0,1-.67.67,4.58,4.58,0,0,1-.86.48l2.41,4.86v.09h-1.53Zm-2.27-1.19h1.94a3.18,3.18,0,0,0,.91-.16,2.17,2.17,0,0,0,.75-.41,2,2,0,0,0,.52-.67,2.18,2.18,0,0,0,.19-.92,2.26,2.26,0,0,0-.19-1,1.83,1.83,0,0,0-.5-.69,2,2,0,0,0-.75-.42,3.15,3.15,0,0,0-1-.14h-1.89Zm8.09,5.83V41.21h3.39a5.09,5.09,0,0,1,1.38.19,3.45,3.45,0,0,1,1.19.55,2.61,2.61,0,0,1,.84.94,2.65,2.65,0,0,1,.3,1.36,2.3,2.3,0,0,1-.14.81,2.56,2.56,0,0,1-.37.66,2.42,2.42,0,0,1-.56.52,3.83,3.83,0,0,1-.67.38,2.85,2.85,0,0,1,.83.38,2.68,2.68,0,0,1,.64.59,2.61,2.61,0,0,1,.44.78,2.81,2.81,0,0,1,.16,1,3,3,0,0,1-.31,1.41,3,3,0,0,1-.84,1,3.77,3.77,0,0,1-1.2.63,4.85,4.85,0,0,1-1.41.23Zm1.45-5.33v4.09H161a2.61,2.61,0,0,0,.86-.14,2.68,2.68,0,0,0,.72-.41,1.83,1.83,0,0,0,.48-.64,1.86,1.86,0,0,0,.19-.84,1.89,1.89,0,0,0-.16-.86,1.92,1.92,0,0,0-.47-.64,2,2,0,0,0-.7-.41,2.76,2.76,0,0,0-.84-.16Zm0-1.2h2a2.6,2.6,0,0,0,.8-.12,2.36,2.36,0,0,0,.69-.34,1.84,1.84,0,0,0,.5-.56,1.64,1.64,0,0,0,.19-.8,1.58,1.58,0,0,0-.19-.8,1.49,1.49,0,0,0-.48-.56,2,2,0,0,0-.72-.31,3,3,0,0,0-.81-.11h-2Zm13.49-4.86v1.3h-.12a4.8,4.8,0,0,0-1.28.16,3.59,3.59,0,0,0-1,.41,3,3,0,0,0-.73.61,3.5,3.5,0,0,0-.52.78,4.3,4.3,0,0,0-.31.89,5.47,5.47,0,0,0-.14.92,3.15,3.15,0,0,1,.47-.44,2.55,2.55,0,0,1,.58-.36,3.55,3.55,0,0,1,.66-.25,3,3,0,0,1,.75-.09,3.06,3.06,0,0,1,1.47.33,2.93,2.93,0,0,1,1,.86,3.52,3.52,0,0,1,.59,1.2,5,5,0,0,1,.19,1.36,4.71,4.71,0,0,1-.23,1.5,3.46,3.46,0,0,1-.67,1.23,3.15,3.15,0,0,1-1.09.84,3.68,3.68,0,0,1-1.53.3,3.54,3.54,0,0,1-1.12-.17,3.41,3.41,0,0,1-.92-.5,3.7,3.7,0,0,1-.72-.73,4.78,4.78,0,0,1-.5-.91,6.5,6.5,0,0,1-.3-1,6,6,0,0,1-.09-1V47.7a13.1,13.1,0,0,1,.09-1.56,7.84,7.84,0,0,1,.33-1.5,6.08,6.08,0,0,1,.63-1.34,4.06,4.06,0,0,1,1-1.09,4.68,4.68,0,0,1,1.44-.73,6.51,6.51,0,0,1,2-.27Zm-1.89,5.13a2,2,0,0,0-.7.13,2.2,2.2,0,0,0-.64.33,2.41,2.41,0,0,0-.53.5,2.85,2.85,0,0,0-.36.66v.48a4.83,4.83,0,0,0,.17,1.34,3.47,3.47,0,0,0,.48,1,2.21,2.21,0,0,0,.7.59,1.86,1.86,0,0,0,.84.2,2.07,2.07,0,0,0,.91-.19,2,2,0,0,0,.66-.55,2.48,2.48,0,0,0,.41-.81,3.89,3.89,0,0,0,0-2,2.42,2.42,0,0,0-.39-.84,1.79,1.79,0,0,0-1.56-.81Zm6.15,6.27V41.21h3.39a5.09,5.09,0,0,1,1.38.19,3.45,3.45,0,0,1,1.19.55,2.61,2.61,0,0,1,.84.94,2.65,2.65,0,0,1,.3,1.36,2.3,2.3,0,0,1-.14.81,2.56,2.56,0,0,1-.37.66,2.42,2.42,0,0,1-.56.52,3.83,3.83,0,0,1-.67.38,2.85,2.85,0,0,1,.83.38,2.68,2.68,0,0,1,.64.59,2.61,2.61,0,0,1,.44.78,2.81,2.81,0,0,1,.16,1,3,3,0,0,1-.31,1.41,3,3,0,0,1-.84,1,3.77,3.77,0,0,1-1.2.63,4.85,4.85,0,0,1-1.41.23ZM178,47.26v4.09h2.23a2.61,2.61,0,0,0,.86-.14,2.68,2.68,0,0,0,.72-.41,1.83,1.83,0,0,0,.48-.64,1.86,1.86,0,0,0,.19-.84,1.89,1.89,0,0,0-.16-.86,1.92,1.92,0,0,0-.47-.64,2,2,0,0,0-.7-.41,2.76,2.76,0,0,0-.84-.16Zm0-1.2h2a2.6,2.6,0,0,0,.8-.12,2.36,2.36,0,0,0,.69-.34A1.84,1.84,0,0,0,182,45a1.64,1.64,0,0,0,.19-.8,1.58,1.58,0,0,0-.19-.8,1.49,1.49,0,0,0-.48-.56,2,2,0,0,0-.72-.31,3,3,0,0,0-.81-.11h-2Zm9.74,2v4.56H186.3V41.21H190a4.62,4.62,0,0,1,1.44.25,3.46,3.46,0,0,1,1.2.66,3,3,0,0,1,.81,1.06,3.17,3.17,0,0,1,.31,1.44,3.21,3.21,0,0,1-.31,1.45,3.15,3.15,0,0,1-.81,1.06,3.83,3.83,0,0,1-1.2.66A5,5,0,0,1,190,48Zm0-1.19H190a3.22,3.22,0,0,0,.92-.16,2.26,2.26,0,0,0,.73-.44,1.91,1.91,0,0,0,.48-.69,2.56,2.56,0,0,0,0-1.84,1.89,1.89,0,0,0-.48-.7,2.12,2.12,0,0,0-.73-.45,2.63,2.63,0,0,0-.92-.16h-2.25ZM203,42l-4.7,10.56h-1.52l4.69-10.11h-6.16V41.21H203Zm4-.81,1.84,5.69,2-5.69h1.8V52.59h-1.41V48l.13-4.75-2.11,6.13h-.83l-1.92-6,.11,4.58v4.55h-1.41V41.21Zm7.87,11.38V41.21h2.63a5.68,5.68,0,0,1,2.13.41,4.22,4.22,0,0,1,1.58,1.08,4.7,4.7,0,0,1,1,1.66,6.23,6.23,0,0,1,.34,2.13v.84a6.36,6.36,0,0,1-.34,2.14,4.89,4.89,0,0,1-1,1.66,4.48,4.48,0,0,1-1.58,1.08,5.89,5.89,0,0,1-2.12.39Zm1.47-10.19v9h1.16a3.75,3.75,0,0,0,1.59-.31,3.19,3.19,0,0,0,1.11-.87,3.4,3.4,0,0,0,.66-1.28,6.13,6.13,0,0,0,.23-1.61v-.86a5.94,5.94,0,0,0-.23-1.59,3.55,3.55,0,0,0-.66-1.28,3,3,0,0,0-1.11-.86,3.91,3.91,0,0,0-1.59-.33Zm15.63,8.69a4.7,4.7,0,0,1-1.66,1.27,4.81,4.81,0,0,1-2,.39,4,4,0,0,1-1.3-.2,4.09,4.09,0,0,1-1-.58,4.62,4.62,0,0,1-.83-.86,6.61,6.61,0,0,1-.59-1.06,6.68,6.68,0,0,1-.36-1.2,8.89,8.89,0,0,1-.12-1.28V46.25A10.2,10.2,0,0,1,224.1,45a6.61,6.61,0,0,1,.33-1.2A5.52,5.52,0,0,1,225,42.7a3.63,3.63,0,0,1,.78-.86,3.75,3.75,0,0,1,1-.56,3.64,3.64,0,0,1,1.3-.22,4.18,4.18,0,0,1,1.47.25,3.26,3.26,0,0,1,1.17.7,3.37,3.37,0,0,1,.8,1.09,4,4,0,0,1,.38,1.44h-1.42a4.18,4.18,0,0,0-.28-.91,2.15,2.15,0,0,0-.47-.72,1.84,1.84,0,0,0-.69-.45,2.43,2.43,0,0,0-1-.17,2.35,2.35,0,0,0-.92.17,2.24,2.24,0,0,0-.69.47,2.68,2.68,0,0,0-.5.7,5.23,5.23,0,0,0-.31.83,6.44,6.44,0,0,0-.19.89,8.51,8.51,0,0,0,0,.88v1.33a8.82,8.82,0,0,0,.08.89,5.25,5.25,0,0,0,.2.89,4.52,4.52,0,0,0,.36.83,2.89,2.89,0,0,0,.53.69,2.64,2.64,0,0,0,.72.48,2.35,2.35,0,0,0,.92.17,4,4,0,0,0,.61,0,3,3,0,0,0,.63-.12,2.62,2.62,0,0,0,.58-.25,1.75,1.75,0,0,0,.45-.42l0-2.56h-2.31V46.92h3.69Zm7.57-9.89v1.3h-.12a4.8,4.8,0,0,0-1.28.16,3.59,3.59,0,0,0-1,.41,3,3,0,0,0-.73.61,3.5,3.5,0,0,0-.52.78,4.3,4.3,0,0,0-.31.89,5.48,5.48,0,0,0-.14.92,3.14,3.14,0,0,1,.47-.44,2.55,2.55,0,0,1,.58-.36,3.56,3.56,0,0,1,.66-.25,3,3,0,0,1,.75-.09,3.06,3.06,0,0,1,1.47.33,2.93,2.93,0,0,1,1,.86,3.51,3.51,0,0,1,.59,1.2,5,5,0,0,1,.19,1.36,4.71,4.71,0,0,1-.23,1.5,3.46,3.46,0,0,1-.67,1.23,3.15,3.15,0,0,1-1.09.84,3.68,3.68,0,0,1-1.53.3,3.54,3.54,0,0,1-1.12-.17,3.41,3.41,0,0,1-.92-.5,3.7,3.7,0,0,1-.72-.73,4.78,4.78,0,0,1-.5-.91,6.5,6.5,0,0,1-.3-1,6,6,0,0,1-.09-1V47.7a13.1,13.1,0,0,1,.09-1.56,7.84,7.84,0,0,1,.33-1.5,6.08,6.08,0,0,1,.63-1.34,4.06,4.06,0,0,1,1-1.09,4.68,4.68,0,0,1,1.44-.73,6.51,6.51,0,0,1,2-.27Zm-1.89,5.13a2,2,0,0,0-.7.13,2.2,2.2,0,0,0-.64.33,2.41,2.41,0,0,0-.53.5,2.85,2.85,0,0,0-.36.66v.48a4.83,4.83,0,0,0,.17,1.34,3.47,3.47,0,0,0,.48,1,2.21,2.21,0,0,0,.7.59,1.86,1.86,0,0,0,.84.2,2.07,2.07,0,0,0,.91-.19,2,2,0,0,0,.66-.55,2.48,2.48,0,0,0,.41-.81,3.89,3.89,0,0,0,0-2,2.42,2.42,0,0,0-.39-.84,1.79,1.79,0,0,0-1.56-.81Zm12,2.44h1.59v1.19h-1.59v2.64h-1.44V49.95H243v-.86l5.09-7.87h1.53Zm-5,0h3.59V43.14l-.23.44Z"/><path class="cls-2" d="M272,30.73H440v32H272Z"/><path d="M286.94,41.21l1.84,5.69,2-5.69h1.8V52.59h-1.41V48l.13-4.75-2.11,6.13h-.83l-1.92-6,.11,4.58v4.55h-1.41V41.21Zm9.2,10.14H302v1.23H294.5l0-1.12,5.67-9h-5.56V41.21h7.2l0,1.09Zm11.95-5.69,2.45-4.45h1.7l-3.31,5.64,3.39,5.73h-1.69L308.11,48l-2.53,4.55h-1.7l3.39-5.73L304,41.21h1.7Zm13.07-1.48a2.65,2.65,0,0,1-.45,1.52,3.11,3.11,0,0,1-1.22,1,3.56,3.56,0,0,1,.8.47,3,3,0,0,1,.61.64,3,3,0,0,1,.39.78,2.8,2.8,0,0,1,.14.89,3.14,3.14,0,0,1-.3,1.39,2.92,2.92,0,0,1-.77,1,3.45,3.45,0,0,1-1.14.63,4.42,4.42,0,0,1-1.41.22,4.94,4.94,0,0,1-1.44-.2,3.45,3.45,0,0,1-1.14-.62,3.08,3.08,0,0,1-.77-1,3.28,3.28,0,0,1-.28-1.39,3.12,3.12,0,0,1,.13-.89,2.75,2.75,0,0,1,.39-.78,3.15,3.15,0,0,1,.59-.64,3.56,3.56,0,0,1,.8-.47,3.42,3.42,0,0,1-.69-.45,2.67,2.67,0,0,1-.84-1.28,3,3,0,0,1-.11-.81,3.32,3.32,0,0,1,.25-1.33,2.73,2.73,0,0,1,.69-1,2.83,2.83,0,0,1,1-.61,4,4,0,0,1,1.34-.22,3.9,3.9,0,0,1,1.33.22,3,3,0,0,1,1.08.61,2.64,2.64,0,0,1,.7,1A3.15,3.15,0,0,1,321.15,44.18ZM320,49.48a2.29,2.29,0,0,0-.16-.86,2,2,0,0,0-1.14-1.14,2.42,2.42,0,0,0-.87-.16,2.51,2.51,0,0,0-.91.16,1.87,1.87,0,0,0-.67.45,1.94,1.94,0,0,0-.44.69,2.52,2.52,0,0,0-.14.86,2.62,2.62,0,0,0,.14.89,1.84,1.84,0,0,0,.44.64,1.88,1.88,0,0,0,.69.41,2.76,2.76,0,0,0,.91.14,2.52,2.52,0,0,0,.86-.14,1.88,1.88,0,0,0,.69-.41,1.75,1.75,0,0,0,.45-.64A2.38,2.38,0,0,0,320,49.48Zm-.27-5.28a2.13,2.13,0,0,0-.14-.78,1.8,1.8,0,0,0-.41-.62,1.65,1.65,0,0,0-.61-.41,2.15,2.15,0,0,0-1.53,0,1.52,1.52,0,0,0-.59.39,1.73,1.73,0,0,0-.39.63,2.41,2.41,0,0,0-.12.8A2.46,2.46,0,0,0,316,45a1.69,1.69,0,0,0,1,1,2.41,2.41,0,0,0,1.53,0,1.75,1.75,0,0,0,.61-.39,1.92,1.92,0,0,0,.39-.62A2.17,2.17,0,0,0,319.7,44.2Zm9.49,5.44h-3.8l-.92,3H323l3.67-11.37h1.2l3.61,11.38h-1.44Zm-3.41-1.25h3l-1.5-4.94Zm7.55,4.2V41.21h3.39a5.09,5.09,0,0,1,1.38.19,3.45,3.45,0,0,1,1.19.55,2.61,2.61,0,0,1,.84.94,2.65,2.65,0,0,1,.3,1.36,2.3,2.3,0,0,1-.14.81,2.56,2.56,0,0,1-.37.66,2.42,2.42,0,0,1-.56.52,3.83,3.83,0,0,1-.67.38,2.85,2.85,0,0,1,.83.38,2.68,2.68,0,0,1,.64.59,2.61,2.61,0,0,1,.44.78,2.81,2.81,0,0,1,.16,1,3,3,0,0,1-.31,1.41,3,3,0,0,1-.84,1,3.77,3.77,0,0,1-1.2.63,4.85,4.85,0,0,1-1.41.23Zm1.45-5.33v4.09H337a2.61,2.61,0,0,0,.86-.14,2.68,2.68,0,0,0,.72-.41,1.83,1.83,0,0,0,.48-.64,1.86,1.86,0,0,0,.19-.84,1.89,1.89,0,0,0-.16-.86,1.92,1.92,0,0,0-.47-.64,2,2,0,0,0-.7-.41,2.76,2.76,0,0,0-.84-.16Zm0-1.2h2a2.6,2.6,0,0,0,.8-.12,2.36,2.36,0,0,0,.69-.34,1.84,1.84,0,0,0,.5-.56,1.64,1.64,0,0,0,.19-.8,1.58,1.58,0,0,0-.19-.8,1.49,1.49,0,0,0-.48-.56,2,2,0,0,0-.72-.31,3,3,0,0,0-.81-.11h-2ZM350,44.18a2.65,2.65,0,0,1-.45,1.52,3.11,3.11,0,0,1-1.22,1,3.56,3.56,0,0,1,.8.47,3,3,0,0,1,.61.64,3,3,0,0,1,.39.78,2.8,2.8,0,0,1,.14.89,3.14,3.14,0,0,1-.3,1.39,2.92,2.92,0,0,1-.77,1,3.45,3.45,0,0,1-1.14.63,4.42,4.42,0,0,1-1.41.22,4.94,4.94,0,0,1-1.44-.2,3.45,3.45,0,0,1-1.14-.62,3.08,3.08,0,0,1-.77-1,3.28,3.28,0,0,1-.28-1.39,3.12,3.12,0,0,1,.13-.89,2.75,2.75,0,0,1,.39-.78,3.15,3.15,0,0,1,.59-.64,3.56,3.56,0,0,1,.8-.47,3.42,3.42,0,0,1-.69-.45,2.67,2.67,0,0,1-.84-1.28,3,3,0,0,1-.11-.81,3.32,3.32,0,0,1,.25-1.33,2.73,2.73,0,0,1,.69-1,2.83,2.83,0,0,1,1-.61,4,4,0,0,1,1.34-.22,3.9,3.9,0,0,1,1.33.22,3,3,0,0,1,1.08.61,2.64,2.64,0,0,1,.7,1A3.15,3.15,0,0,1,350,44.18Zm-1.19,5.3a2.29,2.29,0,0,0-.16-.86,2,2,0,0,0-1.14-1.14,2.42,2.42,0,0,0-.87-.16,2.51,2.51,0,0,0-.91.16,1.87,1.87,0,0,0-.67.45,1.94,1.94,0,0,0-.44.69,2.52,2.52,0,0,0-.14.86,2.62,2.62,0,0,0,.14.89A1.84,1.84,0,0,0,345,51a1.88,1.88,0,0,0,.69.41,2.76,2.76,0,0,0,.91.14,2.52,2.52,0,0,0,.86-.14,1.88,1.88,0,0,0,.69-.41,1.75,1.75,0,0,0,.45-.64A2.38,2.38,0,0,0,348.77,49.48Zm-.27-5.28a2.13,2.13,0,0,0-.14-.78,1.8,1.8,0,0,0-.41-.62,1.65,1.65,0,0,0-.61-.41,2.15,2.15,0,0,0-1.53,0,1.52,1.52,0,0,0-.59.39,1.73,1.73,0,0,0-.39.63,2.41,2.41,0,0,0-.12.8,2.46,2.46,0,0,0,.13.81,1.69,1.69,0,0,0,1,1,2.41,2.41,0,0,0,1.53,0,1.75,1.75,0,0,0,.61-.39,1.92,1.92,0,0,0,.39-.62A2.17,2.17,0,0,0,348.5,44.2Zm10.32,3.13h-4.75v4h5.53v1.23h-7V41.21h6.92v1.23h-5.47v3.66h4.75Zm8.66-6.12v1.3h-.12a4.8,4.8,0,0,0-1.28.16,3.59,3.59,0,0,0-1,.41,3,3,0,0,0-.73.61,3.5,3.5,0,0,0-.52.78,4.3,4.3,0,0,0-.31.89,5.48,5.48,0,0,0-.14.92,3.14,3.14,0,0,1,.47-.44,2.55,2.55,0,0,1,.58-.36,3.56,3.56,0,0,1,.66-.25,3,3,0,0,1,.75-.09,3.06,3.06,0,0,1,1.47.33,2.93,2.93,0,0,1,1,.86,3.51,3.51,0,0,1,.59,1.2,5,5,0,0,1,.19,1.36,4.71,4.71,0,0,1-.23,1.5,3.46,3.46,0,0,1-.67,1.23,3.15,3.15,0,0,1-1.09.84,3.68,3.68,0,0,1-1.53.3,3.54,3.54,0,0,1-1.12-.17,3.41,3.41,0,0,1-.92-.5,3.7,3.7,0,0,1-.72-.73,4.78,4.78,0,0,1-.5-.91,6.5,6.5,0,0,1-.3-1,6,6,0,0,1-.09-1V47.7a13.1,13.1,0,0,1,.09-1.56,7.84,7.84,0,0,1,.33-1.5,6.08,6.08,0,0,1,.63-1.34,4.06,4.06,0,0,1,1-1.09,4.68,4.68,0,0,1,1.44-.73,6.51,6.51,0,0,1,2-.27Zm-1.89,5.13a2,2,0,0,0-.7.13,2.2,2.2,0,0,0-.64.33,2.41,2.41,0,0,0-.53.5,2.85,2.85,0,0,0-.36.66v.48a4.83,4.83,0,0,0,.17,1.34,3.47,3.47,0,0,0,.48,1,2.21,2.21,0,0,0,.7.59,1.86,1.86,0,0,0,.84.2,2.07,2.07,0,0,0,.91-.19,2,2,0,0,0,.66-.55,2.48,2.48,0,0,0,.41-.81,3.89,3.89,0,0,0,0-2,2.42,2.42,0,0,0-.39-.84,1.79,1.79,0,0,0-1.56-.81Zm9.93,1.63h-2.27v4.64h-1.44V41.21h3.33a5.38,5.38,0,0,1,1.5.23,3.54,3.54,0,0,1,1.23.63,2.88,2.88,0,0,1,.83,1.06,3.43,3.43,0,0,1,.3,1.48,3.25,3.25,0,0,1-.16,1,3,3,0,0,1-.44.83,3.42,3.42,0,0,1-.67.67,4.58,4.58,0,0,1-.86.48l2.41,4.86v.09h-1.53Zm-2.27-1.19h1.94a3.18,3.18,0,0,0,.91-.16,2.17,2.17,0,0,0,.75-.41,2,2,0,0,0,.52-.67,2.18,2.18,0,0,0,.19-.92,2.26,2.26,0,0,0-.19-1,1.83,1.83,0,0,0-.5-.69,2,2,0,0,0-.75-.42,3.15,3.15,0,0,0-1-.14h-1.89Zm9.29,4.59h5.89v1.23h-7.53l0-1.12,5.67-9H381V41.21h7.2l0,1.09Zm15.91-4a7.6,7.6,0,0,1-.11,1.28,6.13,6.13,0,0,1-.31,1.23,5.18,5.18,0,0,1-.53,1.11,3.76,3.76,0,0,1-.77.91l2,1.64-1,.94-2.25-1.91a3.74,3.74,0,0,1-1,.14,3.69,3.69,0,0,1-1.31-.22,3.91,3.91,0,0,1-1-.61,4.31,4.31,0,0,1-.77-.91,5.78,5.78,0,0,1-.55-1.11,7.93,7.93,0,0,1-.31-1.23,10.56,10.56,0,0,1-.11-1.27v-1a10.56,10.56,0,0,1,.11-1.27,7.93,7.93,0,0,1,.31-1.23,6.41,6.41,0,0,1,.53-1.11,4.31,4.31,0,0,1,.77-.91,3.42,3.42,0,0,1,1-.61,3.77,3.77,0,0,1,1.31-.22,3.69,3.69,0,0,1,1.31.22,3.57,3.57,0,0,1,1.8,1.52A5.18,5.18,0,0,1,398,43.9a6.13,6.13,0,0,1,.31,1.23,7.51,7.51,0,0,1,.11,1.27Zm-1.44-1q0-.42,0-.89a6.33,6.33,0,0,0-.16-.91,4,4,0,0,0-.31-.86A2.64,2.64,0,0,0,396,43a1.91,1.91,0,0,0-.69-.48,2.15,2.15,0,0,0-.94-.19,2.22,2.22,0,0,0-.94.19,2.33,2.33,0,0,0-.69.5,2.59,2.59,0,0,0-.47.7,5.6,5.6,0,0,0-.31.86,9,9,0,0,0-.17.92,8.51,8.51,0,0,0,0,.88v1q0,.42,0,.89a9,9,0,0,0,.17.92,5.6,5.6,0,0,0,.31.86,2.85,2.85,0,0,0,.47.72,2.27,2.27,0,0,0,.7.5,2.64,2.64,0,0,0,1.88,0,2.09,2.09,0,0,0,.69-.5,2.64,2.64,0,0,0,.48-.72,4.65,4.65,0,0,0,.3-.86,6.87,6.87,0,0,0,.16-.91q0-.47,0-.91Zm3.4,6.2V41.21h2.63a5.68,5.68,0,0,1,2.13.41,4.22,4.22,0,0,1,1.58,1.08,4.7,4.7,0,0,1,1,1.66,6.23,6.23,0,0,1,.34,2.13v.84a6.36,6.36,0,0,1-.34,2.14,4.89,4.89,0,0,1-1,1.66,4.48,4.48,0,0,1-1.58,1.08,5.89,5.89,0,0,1-2.12.39Zm1.47-10.19v9h1.16a3.75,3.75,0,0,0,1.59-.31,3.19,3.19,0,0,0,1.11-.87,3.4,3.4,0,0,0,.66-1.28,6.12,6.12,0,0,0,.23-1.61v-.86a5.94,5.94,0,0,0-.23-1.59,3.55,3.55,0,0,0-.66-1.28,3,3,0,0,0-1.11-.86,3.91,3.91,0,0,0-1.59-.33Zm14.54,4.92h-4.75v4h5.53v1.23h-7V41.21h6.92v1.23h-5.47v3.66h4.75Zm9.6,0h-4.75v4h5.53v1.23h-7V41.21h6.92v1.23h-5.47v3.66H426Z"/><path class="cls-2" d="M624,30.73H792v32H624Z"/><path d="M637.33,52.59V41.21h3.39a5.09,5.09,0,0,1,1.38.19,3.45,3.45,0,0,1,1.19.55,2.61,2.61,0,0,1,.84.94,2.65,2.65,0,0,1,.3,1.36,2.3,2.3,0,0,1-.14.81,2.56,2.56,0,0,1-.37.66,2.42,2.42,0,0,1-.56.52,3.83,3.83,0,0,1-.67.38,2.85,2.85,0,0,1,.83.38,2.68,2.68,0,0,1,.64.59,2.61,2.61,0,0,1,.44.78,2.81,2.81,0,0,1,.16,1,3,3,0,0,1-.31,1.41,3,3,0,0,1-.84,1,3.77,3.77,0,0,1-1.2.63,4.85,4.85,0,0,1-1.41.23Zm1.45-5.33v4.09H641a2.61,2.61,0,0,0,.86-.14,2.68,2.68,0,0,0,.72-.41,1.83,1.83,0,0,0,.48-.64,1.86,1.86,0,0,0,.19-.84,1.89,1.89,0,0,0-.16-.86,1.92,1.92,0,0,0-.47-.64,2,2,0,0,0-.7-.41,2.76,2.76,0,0,0-.84-.16Zm0-1.2h2a2.6,2.6,0,0,0,.8-.12,2.36,2.36,0,0,0,.69-.34,1.84,1.84,0,0,0,.5-.56,1.64,1.64,0,0,0,.19-.8,1.58,1.58,0,0,0-.19-.8,1.49,1.49,0,0,0-.48-.56,2,2,0,0,0-.72-.31,3,3,0,0,0-.81-.11h-2Zm11.52.86,2.59-5.7h1.64L651,48.34l0,4.25h-1.34l0-4.25-3.53-7.12h1.64Zm12.51.41h-4.75v4h5.53v1.23h-7V41.21h6.92v1.23h-5.47v3.66h4.75Zm3.32,5.27V41.21h3.39a5.09,5.09,0,0,1,1.38.19,3.45,3.45,0,0,1,1.19.55,2.61,2.61,0,0,1,.84.94,2.65,2.65,0,0,1,.3,1.36,2.3,2.3,0,0,1-.14.81,2.56,2.56,0,0,1-.37.66,2.42,2.42,0,0,1-.56.52,3.83,3.83,0,0,1-.67.38,2.85,2.85,0,0,1,.83.38,2.68,2.68,0,0,1,.64.59,2.61,2.61,0,0,1,.44.78,2.81,2.81,0,0,1,.16,1,3,3,0,0,1-.31,1.41,3,3,0,0,1-.84,1,3.77,3.77,0,0,1-1.2.63,4.85,4.85,0,0,1-1.41.23Zm1.45-5.33v4.09h2.23a2.61,2.61,0,0,0,.86-.14,2.68,2.68,0,0,0,.72-.41,1.83,1.83,0,0,0,.48-.64,1.86,1.86,0,0,0,.19-.84,1.89,1.89,0,0,0-.16-.86,1.92,1.92,0,0,0-.47-.64,2,2,0,0,0-.7-.41,2.76,2.76,0,0,0-.84-.16Zm0-1.2h2a2.6,2.6,0,0,0,.8-.12,2.36,2.36,0,0,0,.69-.34,1.84,1.84,0,0,0,.5-.56,1.64,1.64,0,0,0,.19-.8,1.58,1.58,0,0,0-.19-.8,1.49,1.49,0,0,0-.48-.56,2,2,0,0,0-.72-.31,3,3,0,0,0-.81-.11h-2Zm8.15,6.53V41.21h3.39a5.09,5.09,0,0,1,1.38.19,3.45,3.45,0,0,1,1.19.55,2.61,2.61,0,0,1,.84.94,2.65,2.65,0,0,1,.3,1.36,2.3,2.3,0,0,1-.14.81,2.56,2.56,0,0,1-.37.66,2.42,2.42,0,0,1-.56.52,3.83,3.83,0,0,1-.67.38,2.85,2.85,0,0,1,.83.38,2.68,2.68,0,0,1,.64.59,2.61,2.61,0,0,1,.44.78,2.81,2.81,0,0,1,.16,1,3,3,0,0,1-.31,1.41,3,3,0,0,1-.84,1,3.77,3.77,0,0,1-1.2.63,4.85,4.85,0,0,1-1.41.23Zm1.45-5.33v4.09h2.23a2.61,2.61,0,0,0,.86-.14,2.68,2.68,0,0,0,.72-.41,1.83,1.83,0,0,0,.48-.64,1.86,1.86,0,0,0,.19-.84,1.89,1.89,0,0,0-.16-.86,1.92,1.92,0,0,0-.47-.64,2,2,0,0,0-.7-.41,2.76,2.76,0,0,0-.84-.16Zm0-1.2h2a2.6,2.6,0,0,0,.8-.12,2.36,2.36,0,0,0,.69-.34,1.84,1.84,0,0,0,.5-.56,1.64,1.64,0,0,0,.19-.8,1.58,1.58,0,0,0-.19-.8,1.49,1.49,0,0,0-.48-.56,2,2,0,0,0-.72-.31,3,3,0,0,0-.81-.11h-2Zm9.76-4.84,1.84,5.69,2-5.69h1.8V52.59h-1.41V48l.13-4.75-2.11,6.13h-.83l-1.92-6,.11,4.58v4.55h-1.41V41.21Zm8,11.38V41.21h3.39a5.09,5.09,0,0,1,1.38.19,3.45,3.45,0,0,1,1.19.55,2.61,2.61,0,0,1,.84.94,2.65,2.65,0,0,1,.3,1.36,2.3,2.3,0,0,1-.14.81,2.56,2.56,0,0,1-.37.66,2.42,2.42,0,0,1-.56.52,3.83,3.83,0,0,1-.67.38,2.85,2.85,0,0,1,.83.38,2.68,2.68,0,0,1,.64.59,2.61,2.61,0,0,1,.44.78,2.81,2.81,0,0,1,.16,1,3,3,0,0,1-.31,1.41,3,3,0,0,1-.84,1,3.77,3.77,0,0,1-1.2.63,4.85,4.85,0,0,1-1.41.23Zm1.45-5.33v4.09h2.23a2.61,2.61,0,0,0,.86-.14,2.68,2.68,0,0,0,.72-.41,1.83,1.83,0,0,0,.48-.64,1.86,1.86,0,0,0,.19-.84,1.89,1.89,0,0,0-.16-.86,1.92,1.92,0,0,0-.47-.64,2,2,0,0,0-.7-.41,2.76,2.76,0,0,0-.84-.16Zm0-1.2h2a2.6,2.6,0,0,0,.8-.12,2.36,2.36,0,0,0,.69-.34,1.84,1.84,0,0,0,.5-.56,1.64,1.64,0,0,0,.19-.8,1.58,1.58,0,0,0-.19-.8,1.49,1.49,0,0,0-.48-.56,2,2,0,0,0-.72-.31,3,3,0,0,0-.81-.11h-2Zm8,6.53V41.21H707a5.68,5.68,0,0,1,2.13.41,4.22,4.22,0,0,1,1.58,1.08,4.7,4.7,0,0,1,1,1.66,6.23,6.23,0,0,1,.34,2.13v.84a6.36,6.36,0,0,1-.34,2.14,4.89,4.89,0,0,1-1,1.66,4.48,4.48,0,0,1-1.58,1.08,5.89,5.89,0,0,1-2.12.39Zm1.47-10.19v9H707a3.75,3.75,0,0,0,1.59-.31,3.19,3.19,0,0,0,1.11-.87,3.4,3.4,0,0,0,.66-1.28,6.13,6.13,0,0,0,.23-1.61v-.86a5.94,5.94,0,0,0-.23-1.59,3.55,3.55,0,0,0-.66-1.28,3,3,0,0,0-1.11-.86A3.91,3.91,0,0,0,707,42.4ZM720,48.76h1.59v1.19H720v2.64h-1.44V49.95h-5.19v-.86l5.09-7.87H720Zm-5,0h3.59V43.14l-.23.44Zm16.13,2.33a4.7,4.7,0,0,1-1.66,1.27,4.81,4.81,0,0,1-2,.39,4,4,0,0,1-1.3-.2,4.08,4.08,0,0,1-1-.58,4.62,4.62,0,0,1-.83-.86,6.61,6.61,0,0,1-.59-1.06,6.68,6.68,0,0,1-.36-1.2,8.89,8.89,0,0,1-.12-1.28V46.25a10.2,10.2,0,0,1,.11-1.27,6.62,6.62,0,0,1,.33-1.2,5.51,5.51,0,0,1,.55-1.08,3.63,3.63,0,0,1,.78-.86,3.75,3.75,0,0,1,1-.56,3.64,3.64,0,0,1,1.3-.22,4.18,4.18,0,0,1,1.47.25,3.26,3.26,0,0,1,1.17.7,3.37,3.37,0,0,1,.8,1.09,4,4,0,0,1,.38,1.44h-1.42a4.18,4.18,0,0,0-.28-.91,2.15,2.15,0,0,0-.47-.72,1.84,1.84,0,0,0-.69-.45,2.43,2.43,0,0,0-1-.17,2.35,2.35,0,0,0-.92.17,2.24,2.24,0,0,0-.69.47,2.68,2.68,0,0,0-.5.7,5.23,5.23,0,0,0-.31.83,6.45,6.45,0,0,0-.19.89,8.51,8.51,0,0,0,0,.88v1.33a8.82,8.82,0,0,0,.08.89,5.25,5.25,0,0,0,.2.89,4.52,4.52,0,0,0,.36.83,2.89,2.89,0,0,0,.53.69,2.64,2.64,0,0,0,.72.48,2.35,2.35,0,0,0,.92.17,4,4,0,0,0,.61,0,3,3,0,0,0,.63-.12,2.62,2.62,0,0,0,.58-.25,1.75,1.75,0,0,0,.45-.42l0-2.56h-2.31V46.92h3.69ZM735,41.21l1.84,5.69,2-5.69h1.8V52.59h-1.41V48l.13-4.75-2.11,6.13h-.83l-1.92-6,.11,4.58v4.55h-1.41V41.21Zm14.27,6.11h-4.75v4H750v1.23h-7V41.21h6.92v1.23h-5.47v3.66h4.75Zm3.2,5.27V41.21h2.63a5.68,5.68,0,0,1,2.13.41,4.22,4.22,0,0,1,1.58,1.08,4.7,4.7,0,0,1,1,1.66,6.23,6.23,0,0,1,.34,2.13v.84a6.36,6.36,0,0,1-.34,2.14,4.89,4.89,0,0,1-1,1.66,4.48,4.48,0,0,1-1.58,1.08,5.89,5.89,0,0,1-2.12.39Zm1.47-10.19v9h1.16a3.75,3.75,0,0,0,1.59-.31,3.19,3.19,0,0,0,1.11-.87,3.4,3.4,0,0,0,.66-1.28,6.13,6.13,0,0,0,.23-1.61v-.86a5.94,5.94,0,0,0-.23-1.59,3.55,3.55,0,0,0-.66-1.28,3,3,0,0,0-1.11-.86,3.91,3.91,0,0,0-1.59-.33Zm9.91,9h5.56v1.23h-7V41.21h1.45Zm9.65-5.16h1a3.06,3.06,0,0,0,1-.14,2.19,2.19,0,0,0,.7-.41,1.7,1.7,0,0,0,.42-.62,1.94,1.94,0,0,0,.16-.78,1.78,1.78,0,0,0-2-2,2.39,2.39,0,0,0-.84.14,1.75,1.75,0,0,0-.66.39,1.82,1.82,0,0,0-.42.61,2.22,2.22,0,0,0-.14.81h-1.45a3,3,0,0,1,.25-1.22,3.15,3.15,0,0,1,.72-1,3.23,3.23,0,0,1,1.11-.67,3.93,3.93,0,0,1,1.44-.25,4.48,4.48,0,0,1,1.39.2,3,3,0,0,1,1.09.61,2.73,2.73,0,0,1,.7,1,3.56,3.56,0,0,1,.25,1.39,2.36,2.36,0,0,1-.11.69,2.3,2.3,0,0,1-.31.67,2.74,2.74,0,0,1-.55.63,2.68,2.68,0,0,1-.78.48,3.08,3.08,0,0,1,.92.48,2.29,2.29,0,0,1,.59.64,2.58,2.58,0,0,1,.31.77,3.34,3.34,0,0,1,.09.78,3.43,3.43,0,0,1-.28,1.42,2.87,2.87,0,0,1-.75,1,3.49,3.49,0,0,1-1.16.66,4.47,4.47,0,0,1-1.42.22,4.73,4.73,0,0,1-1.41-.2,3.45,3.45,0,0,1-1.14-.62,3.14,3.14,0,0,1-.78-1,3.1,3.1,0,0,1-.28-1.34h1.45a2.3,2.3,0,0,0,.14.81,1.88,1.88,0,0,0,.44.63,2,2,0,0,0,.69.39,2.71,2.71,0,0,0,.89.14,2.92,2.92,0,0,0,.89-.12,1.72,1.72,0,0,0,.69-.39,1.66,1.66,0,0,0,.42-.66,2.6,2.6,0,0,0,.16-.94,2.28,2.28,0,0,0-.17-.92,1.6,1.6,0,0,0-.5-.64,2,2,0,0,0-.77-.39,3.58,3.58,0,0,0-1-.12h-1Z"/><path class="cls-2" d="M448,30.73H616v32H448Z"/><path d="M468.35,44.18a2.65,2.65,0,0,1-.45,1.52,3.11,3.11,0,0,1-1.22,1,3.56,3.56,0,0,1,.8.47,3,3,0,0,1,.61.64,3,3,0,0,1,.39.78,2.8,2.8,0,0,1,.14.89,3.14,3.14,0,0,1-.3,1.39,2.92,2.92,0,0,1-.77,1,3.45,3.45,0,0,1-1.14.63,4.42,4.42,0,0,1-1.41.22,4.94,4.94,0,0,1-1.44-.2,3.45,3.45,0,0,1-1.14-.62,3.08,3.08,0,0,1-.77-1,3.28,3.28,0,0,1-.28-1.39,3.12,3.12,0,0,1,.13-.89,2.75,2.75,0,0,1,.39-.78,3.15,3.15,0,0,1,.59-.64,3.56,3.56,0,0,1,.8-.47,3.42,3.42,0,0,1-.69-.45,2.67,2.67,0,0,1-.84-1.28,3,3,0,0,1-.11-.81,3.32,3.32,0,0,1,.25-1.33,2.73,2.73,0,0,1,.69-1,2.83,2.83,0,0,1,1-.61,4,4,0,0,1,1.34-.22,3.9,3.9,0,0,1,1.33.22,3,3,0,0,1,1.08.61,2.64,2.64,0,0,1,.7,1A3.15,3.15,0,0,1,468.35,44.18Zm-1.19,5.3a2.29,2.29,0,0,0-.16-.86,2,2,0,0,0-1.14-1.14,2.42,2.42,0,0,0-.87-.16,2.51,2.51,0,0,0-.91.16,1.87,1.87,0,0,0-.67.45,1.94,1.94,0,0,0-.44.69,2.52,2.52,0,0,0-.14.86,2.62,2.62,0,0,0,.14.89,1.84,1.84,0,0,0,.44.64,1.88,1.88,0,0,0,.69.41,2.76,2.76,0,0,0,.91.14,2.52,2.52,0,0,0,.86-.14,1.88,1.88,0,0,0,.69-.41,1.75,1.75,0,0,0,.45-.64A2.38,2.38,0,0,0,467.16,49.48Zm-.27-5.28a2.13,2.13,0,0,0-.14-.78,1.8,1.8,0,0,0-.41-.62,1.65,1.65,0,0,0-.61-.41,2.15,2.15,0,0,0-1.53,0,1.52,1.52,0,0,0-.59.39,1.73,1.73,0,0,0-.39.63,2.41,2.41,0,0,0-.12.8,2.46,2.46,0,0,0,.13.81,1.69,1.69,0,0,0,1,1,2.41,2.41,0,0,0,1.53,0,1.75,1.75,0,0,0,.61-.39,1.92,1.92,0,0,0,.39-.62A2.17,2.17,0,0,0,466.89,44.2Zm7.82,3.75h-2.27v4.64H471V41.21h3.33a5.38,5.38,0,0,1,1.5.23,3.54,3.54,0,0,1,1.23.63,2.88,2.88,0,0,1,.83,1.06,3.43,3.43,0,0,1,.3,1.48,3.25,3.25,0,0,1-.16,1,3,3,0,0,1-.44.83,3.42,3.42,0,0,1-.67.67,4.58,4.58,0,0,1-.86.48l2.41,4.86v.09h-1.53Zm-2.27-1.19h1.94a3.18,3.18,0,0,0,.91-.16,2.17,2.17,0,0,0,.75-.41,2,2,0,0,0,.52-.67,2.18,2.18,0,0,0,.19-.92,2.26,2.26,0,0,0-.19-1,1.83,1.83,0,0,0-.5-.69,2,2,0,0,0-.75-.42,3.15,3.15,0,0,0-1-.14h-1.89Zm8.62.13.58-5.67h5.83v1.41h-4.61l-.33,3a3.67,3.67,0,0,1,.81-.34,3.76,3.76,0,0,1,2.5.13,2.9,2.9,0,0,1,1.06.77,3.47,3.47,0,0,1,.67,1.2,4.92,4.92,0,0,1,.23,1.56,5.08,5.08,0,0,1-.22,1.52,3.18,3.18,0,0,1-.67,1.19,3.13,3.13,0,0,1-1.11.8,4.07,4.07,0,0,1-1.58.28,4.54,4.54,0,0,1-1.31-.19,3.48,3.48,0,0,1-1.09-.59,3.1,3.1,0,0,1-.8-1,4,4,0,0,1-.37-1.39H482a2.26,2.26,0,0,0,3.11,1.8,1.77,1.77,0,0,0,.67-.53,2.13,2.13,0,0,0,.41-.81,3.8,3.8,0,0,0,.14-1.06,3,3,0,0,0-.16-1,2.19,2.19,0,0,0-.44-.81,1.88,1.88,0,0,0-.7-.53,2.21,2.21,0,0,0-1-.2,2.75,2.75,0,0,0-.62.06,2.19,2.19,0,0,0-.48.14,2.16,2.16,0,0,0-.39.23l-.37.3Zm16.45,4.2a4.7,4.7,0,0,1-1.66,1.27,4.81,4.81,0,0,1-2,.39,4,4,0,0,1-1.3-.2,4.08,4.08,0,0,1-1-.58,4.62,4.62,0,0,1-.83-.86,6.61,6.61,0,0,1-.59-1.06,6.68,6.68,0,0,1-.36-1.2,8.89,8.89,0,0,1-.12-1.28V46.25a10.2,10.2,0,0,1,.11-1.27,6.62,6.62,0,0,1,.33-1.2,5.51,5.51,0,0,1,.55-1.08,3.63,3.63,0,0,1,.78-.86,3.75,3.75,0,0,1,1-.56,3.64,3.64,0,0,1,1.3-.22,4.18,4.18,0,0,1,1.47.25,3.26,3.26,0,0,1,1.17.7,3.37,3.37,0,0,1,.8,1.09,4,4,0,0,1,.38,1.44h-1.42a4.18,4.18,0,0,0-.28-.91,2.15,2.15,0,0,0-.47-.72,1.84,1.84,0,0,0-.69-.45,2.43,2.43,0,0,0-1-.17,2.35,2.35,0,0,0-.92.17,2.24,2.24,0,0,0-.69.47,2.68,2.68,0,0,0-.5.7,5.23,5.23,0,0,0-.31.83,6.45,6.45,0,0,0-.19.89,8.51,8.51,0,0,0,0,.88v1.33a8.82,8.82,0,0,0,.08.89,5.25,5.25,0,0,0,.2.89,4.52,4.52,0,0,0,.36.83,2.89,2.89,0,0,0,.53.69,2.64,2.64,0,0,0,.72.48,2.35,2.35,0,0,0,.92.17,4,4,0,0,0,.61,0,3,3,0,0,0,.63-.12,2.62,2.62,0,0,0,.58-.25,1.75,1.75,0,0,0,.45-.42l0-2.56h-2.31V46.92h3.69ZM507,42l-4.7,10.56h-1.52l4.69-10.11h-6.16V41.21H507Zm4-.81,1.84,5.69,2-5.69h1.8V52.59h-1.41V48l.13-4.75-2.11,6.13h-.83l-1.92-6,.11,4.58v4.55h-1.41V41.21Zm11.54,4.45,2.45-4.45h1.7l-3.31,5.64,3.39,5.73H525L522.52,48,520,52.59h-1.7l3.39-5.73-3.31-5.64h1.7Zm7.63,5.64a5.72,5.72,0,0,0,1.34-.14,3.87,3.87,0,0,0,1-.39,2.69,2.69,0,0,0,.72-.58,2.83,2.83,0,0,0,.47-.75,3.69,3.69,0,0,0,.27-.87,6.77,6.77,0,0,0,.13-.94,3.56,3.56,0,0,1-.44.45,2.62,2.62,0,0,1-.55.36,3,3,0,0,1-.67.25,4,4,0,0,1-.81.08,3,3,0,0,1-1.45-.33,3.13,3.13,0,0,1-1-.86,3.87,3.87,0,0,1-.58-1.22,5.21,5.21,0,0,1-.19-1.37,5.08,5.08,0,0,1,.22-1.52,3.58,3.58,0,0,1,.66-1.25,3.22,3.22,0,0,1,1.11-.86,3.88,3.88,0,0,1,2.72-.12,2.71,2.71,0,0,1,.92.5,3.21,3.21,0,0,1,.69.77,4.32,4.32,0,0,1,.48,1,5.26,5.26,0,0,1,.27,1.08,6.55,6.55,0,0,1,.09,1.11v.53a14.63,14.63,0,0,1-.08,1.48,7.06,7.06,0,0,1-.28,1.48,5.58,5.58,0,0,1-.58,1.33,3.92,3.92,0,0,1-1,1.09,4.66,4.66,0,0,1-1.45.75,6.55,6.55,0,0,1-2,.28H530v-1.3Zm1.72-3.72a2.09,2.09,0,0,0,.72-.12,2.54,2.54,0,0,0,.64-.34,2.42,2.42,0,0,0,.52-.52,2.84,2.84,0,0,0,.38-.67v-.47a4.51,4.51,0,0,0-.19-1.36,3.18,3.18,0,0,0-.47-1,2.11,2.11,0,0,0-.7-.62,1.67,1.67,0,0,0-.83-.22,1.94,1.94,0,0,0-.91.2,1.89,1.89,0,0,0-.66.56,2.45,2.45,0,0,0-.41.84,3.74,3.74,0,0,0-.14,1,3.92,3.92,0,0,0,.13,1,2.82,2.82,0,0,0,.38.84,2,2,0,0,0,.64.61A1.73,1.73,0,0,0,531.84,47.59Zm7.9.44v4.56H538.3V41.21H542a4.62,4.62,0,0,1,1.44.25,3.46,3.46,0,0,1,1.2.66,3,3,0,0,1,.81,1.06,3.17,3.17,0,0,1,.31,1.44,3.21,3.21,0,0,1-.31,1.45,3.15,3.15,0,0,1-.81,1.06,3.83,3.83,0,0,1-1.2.66A5,5,0,0,1,542,48Zm0-1.19H542a3.22,3.22,0,0,0,.92-.16,2.26,2.26,0,0,0,.73-.44,1.91,1.91,0,0,0,.48-.69,2.56,2.56,0,0,0,0-1.84,1.89,1.89,0,0,0-.48-.7,2.12,2.12,0,0,0-.73-.45,2.63,2.63,0,0,0-.92-.16h-2.25Zm11.55-1.17,2.45-4.45h1.7l-3.31,5.64,3.39,5.73h-1.69L551.32,48l-2.53,4.55h-1.7l3.39-5.73-3.31-5.64h1.7Zm7.63,5.64a5.72,5.72,0,0,0,1.34-.14,3.87,3.87,0,0,0,1-.39,2.69,2.69,0,0,0,.72-.58,2.83,2.83,0,0,0,.47-.75,3.69,3.69,0,0,0,.27-.87,6.77,6.77,0,0,0,.13-.94,3.56,3.56,0,0,1-.44.45,2.62,2.62,0,0,1-.55.36,3,3,0,0,1-.67.25,4,4,0,0,1-.81.08,3,3,0,0,1-1.45-.33,3.13,3.13,0,0,1-1-.86,3.87,3.87,0,0,1-.58-1.22,5.21,5.21,0,0,1-.19-1.37,5.08,5.08,0,0,1,.22-1.52,3.58,3.58,0,0,1,.66-1.25,3.22,3.22,0,0,1,1.11-.86,3.88,3.88,0,0,1,2.72-.12,2.71,2.71,0,0,1,.92.5,3.21,3.21,0,0,1,.69.77,4.32,4.32,0,0,1,.48,1,5.26,5.26,0,0,1,.27,1.08,6.55,6.55,0,0,1,.09,1.11v.53a14.63,14.63,0,0,1-.08,1.48,7.06,7.06,0,0,1-.28,1.48,5.58,5.58,0,0,1-.58,1.33,3.92,3.92,0,0,1-1,1.09,4.66,4.66,0,0,1-1.45.75,6.55,6.55,0,0,1-2,.28h-.16v-1.3Zm1.72-3.72a2.09,2.09,0,0,0,.72-.12,2.54,2.54,0,0,0,.64-.34,2.42,2.42,0,0,0,.52-.52,2.84,2.84,0,0,0,.38-.67v-.47a4.51,4.51,0,0,0-.19-1.36,3.18,3.18,0,0,0-.47-1,2.11,2.11,0,0,0-.7-.62,1.67,1.67,0,0,0-.83-.22,1.94,1.94,0,0,0-.91.2,1.89,1.89,0,0,0-.66.56,2.45,2.45,0,0,0-.41.84,3.74,3.74,0,0,0-.14,1,3.92,3.92,0,0,0,.13,1,2.82,2.82,0,0,0,.38.84,2,2,0,0,0,.64.61A1.73,1.73,0,0,0,560.64,47.59Zm12.59-.27h-4.75v4H574v1.23h-7V41.21h6.92v1.23h-5.47v3.66h4.75Zm10.34-3.14a2.65,2.65,0,0,1-.45,1.52,3.11,3.11,0,0,1-1.22,1,3.56,3.56,0,0,1,.8.47,3,3,0,0,1,.61.64,3,3,0,0,1,.39.78,2.8,2.8,0,0,1,.14.89,3.14,3.14,0,0,1-.3,1.39,2.92,2.92,0,0,1-.77,1,3.45,3.45,0,0,1-1.14.63,4.42,4.42,0,0,1-1.41.22,4.94,4.94,0,0,1-1.44-.2,3.45,3.45,0,0,1-1.14-.62,3.08,3.08,0,0,1-.77-1,3.28,3.28,0,0,1-.28-1.39,3.12,3.12,0,0,1,.13-.89,2.75,2.75,0,0,1,.39-.78,3.15,3.15,0,0,1,.59-.64,3.56,3.56,0,0,1,.8-.47,3.41,3.41,0,0,1-.69-.45A2.67,2.67,0,0,1,577,45a3,3,0,0,1-.11-.81,3.32,3.32,0,0,1,.25-1.33,2.73,2.73,0,0,1,.69-1,2.83,2.83,0,0,1,1-.61,4,4,0,0,1,1.34-.22,3.9,3.9,0,0,1,1.33.22,3,3,0,0,1,1.08.61,2.64,2.64,0,0,1,.7,1A3.15,3.15,0,0,1,583.57,44.18Zm-1.19,5.3a2.29,2.29,0,0,0-.16-.86,2,2,0,0,0-1.14-1.14,2.42,2.42,0,0,0-.87-.16,2.51,2.51,0,0,0-.91.16,1.87,1.87,0,0,0-.67.45,1.94,1.94,0,0,0-.44.69,2.52,2.52,0,0,0-.14.86,2.62,2.62,0,0,0,.14.89,1.85,1.85,0,0,0,.44.64,1.88,1.88,0,0,0,.69.41,2.76,2.76,0,0,0,.91.14,2.52,2.52,0,0,0,.86-.14,1.88,1.88,0,0,0,.69-.41,1.75,1.75,0,0,0,.45-.64A2.38,2.38,0,0,0,582.38,49.48Zm-.27-5.28a2.13,2.13,0,0,0-.14-.78,1.8,1.8,0,0,0-.41-.62,1.65,1.65,0,0,0-.61-.41,2.15,2.15,0,0,0-1.53,0,1.52,1.52,0,0,0-.59.39,1.73,1.73,0,0,0-.39.63,2.41,2.41,0,0,0-.12.8,2.46,2.46,0,0,0,.13.81,1.69,1.69,0,0,0,1,1A2.41,2.41,0,0,0,581,46a1.75,1.75,0,0,0,.61-.39A1.92,1.92,0,0,0,582,45,2.17,2.17,0,0,0,582.11,44.2Zm11.41,6.89a4.7,4.7,0,0,1-1.66,1.27,4.81,4.81,0,0,1-2,.39,4,4,0,0,1-1.3-.2,4.08,4.08,0,0,1-1-.58,4.62,4.62,0,0,1-.83-.86,6.61,6.61,0,0,1-.59-1.06,6.68,6.68,0,0,1-.36-1.2,8.89,8.89,0,0,1-.12-1.28V46.25A10.2,10.2,0,0,1,585.7,45a6.62,6.62,0,0,1,.33-1.2,5.51,5.51,0,0,1,.55-1.08,3.63,3.63,0,0,1,.78-.86,3.75,3.75,0,0,1,1-.56,3.64,3.64,0,0,1,1.3-.22,4.18,4.18,0,0,1,1.47.25,3.26,3.26,0,0,1,1.17.7,3.37,3.37,0,0,1,.8,1.09,4,4,0,0,1,.38,1.44h-1.42a4.18,4.18,0,0,0-.28-.91,2.15,2.15,0,0,0-.47-.72,1.84,1.84,0,0,0-.69-.45,2.43,2.43,0,0,0-1-.17,2.35,2.35,0,0,0-.92.17,2.24,2.24,0,0,0-.69.47,2.68,2.68,0,0,0-.5.7,5.23,5.23,0,0,0-.31.83,6.45,6.45,0,0,0-.19.89,8.51,8.51,0,0,0,0,.88v1.33a8.82,8.82,0,0,0,.08.89,5.25,5.25,0,0,0,.2.89,4.52,4.52,0,0,0,.36.83,2.89,2.89,0,0,0,.53.69,2.64,2.64,0,0,0,.72.48,2.35,2.35,0,0,0,.92.17,4,4,0,0,0,.61,0,3,3,0,0,0,.63-.12,2.62,2.62,0,0,0,.58-.25,1.75,1.75,0,0,0,.45-.42l0-2.56h-2.31V46.92h3.69Zm3.43.27h5.89v1.23h-7.53l0-1.12,5.67-9h-5.56V41.21h7.2l0,1.09Z"/><path class="cls-1" d="M8,30.73H96v32H8Z"/><path d="M26.36,56.33h-4V37.13h4Zm13.52-5a2,2,0,0,0-.8-1.72,10.11,10.11,0,0,0-2.86-1.27A21.17,21.17,0,0,1,33,47q-3.27-1.77-3.27-4.77a4.65,4.65,0,0,1,.88-2.78,5.62,5.62,0,0,1,2.52-1.89,9.53,9.53,0,0,1,3.69-.69,8.6,8.6,0,0,1,3.67.75A5.77,5.77,0,0,1,43,39.72a5.49,5.49,0,0,1,.89,3.08h-4a2.57,2.57,0,0,0-.84-2A3.39,3.39,0,0,0,36.72,40a3.64,3.64,0,0,0-2.27.63,1.93,1.93,0,0,0-.8,1.61,1.87,1.87,0,0,0,.94,1.58A10.93,10.93,0,0,0,37.38,45a11.93,11.93,0,0,1,4.92,2.53,5,5,0,0,1,1.55,3.73A4.62,4.62,0,0,1,42,55.17a8.25,8.25,0,0,1-5.08,1.42,9.75,9.75,0,0,1-4-.81,6.5,6.5,0,0,1-2.78-2.22,5.68,5.68,0,0,1-1-3.27h4q0,3.17,3.8,3.17a3.69,3.69,0,0,0,2.2-.58A1.86,1.86,0,0,0,39.88,51.3Zm21.5-1.36a6.78,6.78,0,0,1-2.28,4.88,8,8,0,0,1-5.44,1.78,7.22,7.22,0,0,1-5.81-2.48,10.22,10.22,0,0,1-2.11-6.83V46.11a11.57,11.57,0,0,1,1-4.87A7.26,7.26,0,0,1,49.49,38a7.83,7.83,0,0,1,4.22-1.12,7.83,7.83,0,0,1,5.36,1.78,7.23,7.23,0,0,1,2.34,5h-4a4,4,0,0,0-1-2.69,3.8,3.8,0,0,0-2.7-.84,3.37,3.37,0,0,0-3,1.42,8.06,8.06,0,0,0-1,4.39v1.45a8.54,8.54,0,0,0,.94,4.55,3.33,3.33,0,0,0,3,1.44,3.94,3.94,0,0,0,2.73-.83,3.77,3.77,0,0,0,1-2.59Zm17.44,0a6.78,6.78,0,0,1-2.28,4.88A8,8,0,0,1,71.1,56.6a7.22,7.22,0,0,1-5.81-2.48,10.22,10.22,0,0,1-2.11-6.83V46.11a11.57,11.57,0,0,1,1-4.87A7.26,7.26,0,0,1,66.93,38a8.74,8.74,0,0,1,9.58.66,7.23,7.23,0,0,1,2.34,5h-4a4,4,0,0,0-1-2.69,3.8,3.8,0,0,0-2.7-.84,3.37,3.37,0,0,0-3,1.42,8.06,8.06,0,0,0-1,4.39v1.45a8.54,8.54,0,0,0,.94,4.55,3.33,3.33,0,0,0,3,1.44,3.94,3.94,0,0,0,2.73-.83,3.77,3.77,0,0,0,1-2.59Zm2.32,4.52A1.91,1.91,0,0,1,81.74,53a2.19,2.19,0,0,1,1.55-.58,2.16,2.16,0,0,1,1.55.58,2.07,2.07,0,0,1,0,2.94,2.19,2.19,0,0,1-1.55.55,2.23,2.23,0,0,1-1.55-.55A1.91,1.91,0,0,1,81.13,54.45Zm0-11A1.91,1.91,0,0,1,81.74,42a2.19,2.19,0,0,1,1.55-.58,2.16,2.16,0,0,1,1.55.58,2.07,2.07,0,0,1,0,2.94,2.19,2.19,0,0,1-1.55.55,2.23,2.23,0,0,1-1.55-.55A1.91,1.91,0,0,1,81.13,43.45Z"/><path class="cls-3" d="M88,6.73H275.75v24H88Z"/><path d="M163.65,14.28,166,21l2.36-6.7h2.5v9.25H169V21l.19-4.36-2.5,6.89h-1.3l-2.48-6.87.19,4.34v2.53h-1.91V14.28Zm12.22,9.38a3.38,3.38,0,0,1-2.45-.92,3.31,3.31,0,0,1-1-2.47v-.19a4.2,4.2,0,0,1,.39-1.84A3,3,0,0,1,174,17a3.12,3.12,0,0,1,1.67-.45,2.82,2.82,0,0,1,2.22.89,3.6,3.6,0,0,1,.81,2.52v.75h-4.37a1.75,1.75,0,0,0,.53,1.08,1.64,1.64,0,0,0,1.14.41,2,2,0,0,0,1.66-.77l.91,1a2.86,2.86,0,0,1-1.12.91A3.65,3.65,0,0,1,175.87,23.65Zm-.2-5.64a1.15,1.15,0,0,0-.89.38,1.9,1.9,0,0,0-.42,1h2.55V19.3a1.32,1.32,0,0,0-.34-.94A1.14,1.14,0,0,0,175.67,18Zm6.45-3v1.69h1.17V18h-1.17v3.42a.86.86,0,0,0,.14.55.76.76,0,0,0,.56.16,4.05,4.05,0,0,0,.53,0V23.5a3.91,3.91,0,0,1-1.11.16,1.76,1.76,0,0,1-2-2V18h-1V16.65h1V15Zm6.28,8.56a2.21,2.21,0,0,1-.19-.61,2.24,2.24,0,0,1-1.73.73,2.47,2.47,0,0,1-1.67-.58,2.07,2.07,0,0,1,.14-3.14,4,4,0,0,1,2.34-.61h.84v-.39a1.09,1.09,0,0,0-.25-.75.92.92,0,0,0-.77-.3,1,1,0,0,0-.72.23.73.73,0,0,0-.27.59H184.3a1.78,1.78,0,0,1,.38-1.09,2.41,2.41,0,0,1,1-.8,3.67,3.67,0,0,1,1.5-.3,3,3,0,0,1,2,.64A2.24,2.24,0,0,1,190,19v3a3.26,3.26,0,0,0,.27,1.48v.11Zm-1.52-1.28a1.65,1.65,0,0,0,.75-.17,1.18,1.18,0,0,0,.5-.48V20.4h-.69q-1.38,0-1.47,1v.11a.73.73,0,0,0,.23.56A1,1,0,0,0,186.89,22.25Zm6.82,1.28h-1.89V14.28h1.89Zm1.87,0V14.28h2.84a4.19,4.19,0,0,1,2.17.56,3.74,3.74,0,0,1,1.5,1.56,4.71,4.71,0,0,1,.55,2.3v.42a4.82,4.82,0,0,1-.53,2.3,3.87,3.87,0,0,1-1.5,1.56,4.29,4.29,0,0,1-2.17.55Zm1.91-7.7V22h.92a2.08,2.08,0,0,0,1.7-.72,3.25,3.25,0,0,0,.59-2.09v-.5a3.33,3.33,0,0,0-.58-2.12,2,2,0,0,0-1.7-.73Z"/><path class="cls-3" d="M272,6.73H440v24H272Z"/><path d="M318.16,20.45A3.27,3.27,0,0,1,317,22.8a3.83,3.83,0,0,1-2.61.86,3.49,3.49,0,0,1-2.8-1.19,5,5,0,0,1-1-3.3v-.56a5.54,5.54,0,0,1,.47-2.34,3.54,3.54,0,0,1,1.34-1.56A4.16,4.16,0,0,1,317,15a3.52,3.52,0,0,1,1.14,2.41h-1.91a1.89,1.89,0,0,0-.5-1.3,1.81,1.81,0,0,0-1.3-.41,1.64,1.64,0,0,0-1.44.69,3.87,3.87,0,0,0-.48,2.11v.7a4.17,4.17,0,0,0,.45,2.2,1.62,1.62,0,0,0,1.44.69,1.58,1.58,0,0,0,1.81-1.66Zm1.06-.42a4.07,4.07,0,0,1,.39-1.81A2.86,2.86,0,0,1,320.74,17a3.35,3.35,0,0,1,1.72-.44,3.1,3.1,0,0,1,2.27.86,3.34,3.34,0,0,1,1,2.31l0,.47a3.56,3.56,0,0,1-.89,2.53,3,3,0,0,1-2.36,1,3.1,3.1,0,0,1-2.37-1,3.69,3.69,0,0,1-.87-2.59Zm1.83.14a2.58,2.58,0,0,0,.36,1.48,1.35,1.35,0,0,0,2.11,0,2.83,2.83,0,0,0,.38-1.64,2.54,2.54,0,0,0-.37-1.48,1.22,1.22,0,0,0-1.06-.53,1.21,1.21,0,0,0-1,.53A2.89,2.89,0,0,0,321,20.17Zm7.68-3.52.06.8a2.39,2.39,0,0,1,2-.92,2,2,0,0,1,1.63.64,3,3,0,0,1,.55,1.92v4.44H331.1V19.14A1,1,0,0,0,330,18a1.26,1.26,0,0,0-1.16.66v4.84H327V16.65Zm8-1.69v1.69h1.17V18H336.7v3.42a.86.86,0,0,0,.14.55.76.76,0,0,0,.56.16,4.05,4.05,0,0,0,.53,0V23.5a3.91,3.91,0,0,1-1.11.16,1.76,1.76,0,0,1-2-2V18h-1V16.65h1V15Zm5.46,8.69a3.38,3.38,0,0,1-2.45-.92,3.31,3.31,0,0,1-1-2.47v-.19a4.2,4.2,0,0,1,.39-1.84A3,3,0,0,1,340.29,17a3.12,3.12,0,0,1,1.67-.45,2.82,2.82,0,0,1,2.22.89,3.6,3.6,0,0,1,.81,2.52v.75h-4.37a1.75,1.75,0,0,0,.53,1.08,1.64,1.64,0,0,0,1.14.41,2,2,0,0,0,1.66-.77l.91,1a2.86,2.86,0,0,1-1.12.91A3.65,3.65,0,0,1,342.16,23.65ZM342,18a1.15,1.15,0,0,0-.89.38,1.9,1.9,0,0,0-.42,1h2.55V19.3a1.32,1.32,0,0,0-.34-.94A1.14,1.14,0,0,0,342,18Zm5.94-1.36.06.8a2.39,2.39,0,0,1,2-.92,2,2,0,0,1,1.63.64,3,3,0,0,1,.55,1.92v4.44h-1.83V19.14A1,1,0,0,0,349.16,18a1.26,1.26,0,0,0-1.16.66v4.84h-1.83V16.65Zm8-1.69v1.69H357V18h-1.17v3.42A.86.86,0,0,0,356,22a.76.76,0,0,0,.56.16,4.05,4.05,0,0,0,.53,0V23.5a3.91,3.91,0,0,1-1.11.16,1.76,1.76,0,0,1-2-2V18h-1V16.65h1V15Zm4.44,8.56h-1.89V14.28h1.89Zm1.87,0V14.28H365a4.19,4.19,0,0,1,2.17.56,3.74,3.74,0,0,1,1.5,1.56,4.71,4.71,0,0,1,.55,2.3v.42a4.82,4.82,0,0,1-.53,2.3,3.87,3.87,0,0,1-1.5,1.56,4.29,4.29,0,0,1-2.17.55Zm1.91-7.7V22H365a2.08,2.08,0,0,0,1.7-.72,3.25,3.25,0,0,0,.59-2.09v-.5a3.33,3.33,0,0,0-.58-2.12,2,2,0,0,0-1.7-.73Zm10.19,4.48h-3.56V18.83h3.56ZM383,15.83h-2.83v7.7h-1.91v-7.7h-2.8V14.28H383Zm4.32,7.83a3.38,3.38,0,0,1-2.45-.92,3.31,3.31,0,0,1-1-2.47v-.19a4.2,4.2,0,0,1,.39-1.84A3,3,0,0,1,385.42,17a3.12,3.12,0,0,1,1.67-.45,2.82,2.82,0,0,1,2.22.89,3.6,3.6,0,0,1,.81,2.52v.75h-4.37a1.75,1.75,0,0,0,.53,1.08,1.64,1.64,0,0,0,1.14.41,2,2,0,0,0,1.66-.77l.91,1a2.86,2.86,0,0,1-1.12.91A3.65,3.65,0,0,1,387.29,23.65Zm-.2-5.64a1.15,1.15,0,0,0-.89.38,1.9,1.9,0,0,0-.42,1h2.55V19.3a1.32,1.32,0,0,0-.34-.94A1.14,1.14,0,0,0,387.09,18Zm6.86.7,1.16-2.06h2l-2,3.38,2,3.5h-2L394,21.37l-1.22,2.16h-2l2-3.5-2-3.37h2ZM400.33,15v1.69h1.17V18h-1.17v3.42a.86.86,0,0,0,.14.55.76.76,0,0,0,.56.16,4.05,4.05,0,0,0,.53,0V23.5a3.91,3.91,0,0,1-1.11.16,1.76,1.76,0,0,1-2-2V18h-1V16.65h1V15Z"/><path class="cls-3" d="M448,6.73H616v24H448Z"/><path d="M512.83,23.53V14.28h2.84a4.19,4.19,0,0,1,2.17.56,3.74,3.74,0,0,1,1.5,1.56,4.71,4.71,0,0,1,.55,2.3v.42a4.82,4.82,0,0,1-.53,2.3,3.87,3.87,0,0,1-1.5,1.56,4.29,4.29,0,0,1-2.17.55Zm1.91-7.7V22h.92a2.08,2.08,0,0,0,1.7-.72,3.25,3.25,0,0,0,.59-2.09v-.5a3.33,3.33,0,0,0-.58-2.12,2,2,0,0,0-1.7-.73Zm10.62,7.7a2.21,2.21,0,0,1-.19-.61,2.24,2.24,0,0,1-1.73.73,2.47,2.47,0,0,1-1.67-.58,2.07,2.07,0,0,1,.14-3.14,4,4,0,0,1,2.34-.61h.84v-.39a1.09,1.09,0,0,0-.25-.75.92.92,0,0,0-.77-.3,1,1,0,0,0-.72.23.73.73,0,0,0-.27.59h-1.84a1.78,1.78,0,0,1,.38-1.09,2.41,2.41,0,0,1,1-.8,3.67,3.67,0,0,1,1.5-.3,3,3,0,0,1,2,.64,2.24,2.24,0,0,1,.75,1.8v3a3.26,3.26,0,0,0,.27,1.48v.11Zm-1.52-1.28a1.65,1.65,0,0,0,.75-.17,1.18,1.18,0,0,0,.5-.48V20.4h-.69q-1.38,0-1.47,1v.11a.73.73,0,0,0,.23.56A1,1,0,0,0,523.83,22.25ZM530.71,15v1.69h1.17V18h-1.17v3.42a.86.86,0,0,0,.14.55.76.76,0,0,0,.56.16,4.05,4.05,0,0,0,.53,0V23.5a3.91,3.91,0,0,1-1.11.16,1.76,1.76,0,0,1-2-2V18h-1V16.65h1V15ZM537,23.53a2.21,2.21,0,0,1-.19-.61,2.24,2.24,0,0,1-1.73.73,2.47,2.47,0,0,1-1.67-.58,2.07,2.07,0,0,1,.14-3.14,4,4,0,0,1,2.34-.61h.84v-.39a1.09,1.09,0,0,0-.25-.75.92.92,0,0,0-.77-.3,1,1,0,0,0-.72.23.73.73,0,0,0-.27.59h-1.84a1.78,1.78,0,0,1,.38-1.09,2.41,2.41,0,0,1,1-.8,3.67,3.67,0,0,1,1.5-.3,3,3,0,0,1,2,.64,2.24,2.24,0,0,1,.75,1.8v3a3.26,3.26,0,0,0,.27,1.48v.11Zm-1.52-1.28a1.65,1.65,0,0,0,.75-.17,1.18,1.18,0,0,0,.5-.48V20.4H536q-1.37,0-1.47,1v.11a.73.73,0,0,0,.23.56A1,1,0,0,0,535.48,22.25Zm6.82,1.28h-1.89V14.28h1.89Zm1.87,0V14.28H547a4.19,4.19,0,0,1,2.17.56,3.74,3.74,0,0,1,1.5,1.56,4.71,4.71,0,0,1,.55,2.3v.42a4.82,4.82,0,0,1-.53,2.3A3.87,3.87,0,0,1,549.2,23a4.29,4.29,0,0,1-2.17.55Zm1.91-7.7V22H547a2.08,2.08,0,0,0,1.7-.72,3.25,3.25,0,0,0,.59-2.09v-.5a3.33,3.33,0,0,0-.58-2.12,2,2,0,0,0-1.7-.73Z"/><path class="cls-3" d="M624,6.73H792v24H624Z"/><path d="M678.83,23.53h-1.89V14.28h1.89Zm3.43-6.87.06.8a2.39,2.39,0,0,1,2-.92,2,2,0,0,1,1.63.64,3,3,0,0,1,.55,1.92v4.44h-1.83V19.14A1,1,0,0,0,683.53,18a1.26,1.26,0,0,0-1.16.66v4.84h-1.83V16.65Zm9.5,5a.58.58,0,0,0-.33-.53,3.55,3.55,0,0,0-1.08-.36q-2.44-.5-2.44-2.08a1.88,1.88,0,0,1,.75-1.52,3,3,0,0,1,2-.62,3.26,3.26,0,0,1,2.09.63,1.93,1.93,0,0,1,.78,1.59H691.7a.84.84,0,0,0-.27-.64,1,1,0,0,0-.78-.27,1.06,1.06,0,0,0-.72.22.65.65,0,0,0-.25.53.56.56,0,0,0,.28.48,2.92,2.92,0,0,0,1,.33,7.1,7.1,0,0,1,1.16.3,1.92,1.92,0,0,1,1.45,1.86,1.78,1.78,0,0,1-.81,1.52,3.46,3.46,0,0,1-2.08.58,3.75,3.75,0,0,1-1.53-.3,2.72,2.72,0,0,1-1-.84,2,2,0,0,1-.37-1.17h1.73a1,1,0,0,0,.36.77,1.51,1.51,0,0,0,.91.25,1.3,1.3,0,0,0,.8-.2A.62.62,0,0,0,691.76,21.64ZM697.1,15v1.69h1.17V18H697.1v3.42a.86.86,0,0,0,.14.55.76.76,0,0,0,.56.16,4.05,4.05,0,0,0,.53,0V23.5a3.91,3.91,0,0,1-1.11.16,1.76,1.76,0,0,1-2-2V18h-1V16.65h1V15Zm6.28,8.56a2.21,2.21,0,0,1-.19-.61,2.24,2.24,0,0,1-1.73.73,2.47,2.47,0,0,1-1.67-.58,2.07,2.07,0,0,1,.14-3.14,4,4,0,0,1,2.34-.61h.84v-.39a1.09,1.09,0,0,0-.25-.75.92.92,0,0,0-.77-.3,1,1,0,0,0-.72.23.73.73,0,0,0-.27.59h-1.84a1.78,1.78,0,0,1,.38-1.09,2.41,2.41,0,0,1,1-.8,3.67,3.67,0,0,1,1.5-.3,3,3,0,0,1,2,.64A2.24,2.24,0,0,1,705,19v3a3.26,3.26,0,0,0,.27,1.48v.11Zm-1.52-1.28a1.65,1.65,0,0,0,.75-.17,1.18,1.18,0,0,0,.5-.48V20.4h-.69q-1.38,0-1.47,1v.11a.73.73,0,0,0,.23.56A1,1,0,0,0,701.87,22.25Zm6.36-5.59.06.8a2.39,2.39,0,0,1,2-.92,2,2,0,0,1,1.63.64,3,3,0,0,1,.55,1.92v4.44h-1.83V19.14A1,1,0,0,0,709.5,18a1.26,1.26,0,0,0-1.16.66v4.84h-1.83V16.65Zm8.64,5.52a1.21,1.21,0,0,0,.81-.27,1,1,0,0,0,.34-.75h1.72a2.31,2.31,0,0,1-.37,1.28,2.57,2.57,0,0,1-1,.91,3.3,3.3,0,0,1-1.44.31,3,3,0,0,1-2.33-.94,3.71,3.71,0,0,1-.84-2.58V20a3.64,3.64,0,0,1,.84-2.53,2.93,2.93,0,0,1,2.31-1,2.85,2.85,0,0,1,2.06.73,2.6,2.6,0,0,1,.8,2H718a1.22,1.22,0,0,0-.34-.86,1.07,1.07,0,0,0-.83-.34,1.11,1.11,0,0,0-1,.47,2.7,2.7,0,0,0-.33,1.52v.19a2.74,2.74,0,0,0,.33,1.53A1.14,1.14,0,0,0,716.87,22.17Zm7.25,1.48a3.38,3.38,0,0,1-2.45-.92,3.31,3.31,0,0,1-1-2.47v-.19a4.2,4.2,0,0,1,.39-1.84A3,3,0,0,1,722.24,17a3.12,3.12,0,0,1,1.67-.45,2.82,2.82,0,0,1,2.22.89,3.6,3.6,0,0,1,.81,2.52v.75h-4.37a1.75,1.75,0,0,0,.53,1.08,1.64,1.64,0,0,0,1.14.41,2,2,0,0,0,1.66-.77l.91,1a2.86,2.86,0,0,1-1.12.91A3.65,3.65,0,0,1,724.12,23.65Zm-.2-5.64a1.15,1.15,0,0,0-.89.38,1.9,1.9,0,0,0-.42,1h2.55V19.3a1.32,1.32,0,0,0-.34-.94A1.14,1.14,0,0,0,723.91,18Zm6.39,5.52h-1.89V14.28h1.89Zm1.87,0V14.28H735a4.19,4.19,0,0,1,2.17.56,3.74,3.74,0,0,1,1.5,1.56,4.71,4.71,0,0,1,.55,2.3v.42a4.82,4.82,0,0,1-.53,2.3,3.87,3.87,0,0,1-1.5,1.56,4.29,4.29,0,0,1-2.17.55Zm1.91-7.7V22H735a2.08,2.08,0,0,0,1.7-.72,3.26,3.26,0,0,0,.59-2.09v-.5a3.34,3.34,0,0,0-.58-2.12,2,2,0,0,0-1.7-.73Z"/></g></g></svg>