<?xml version="1.0" standalone="yes"?>

<svg version="1.1" viewBox="0.0 0.0 960.6509186351706 646.6719160104986" fill="none" stroke="none" stroke-linecap="square" stroke-miterlimit="10" xmlns="http://www.w3.org/2000/svg" xmlns:xlink="http://www.w3.org/1999/xlink"><clipPath id="p.0"><path d="m0 0l960.65094 0l0 646.67194l-960.65094 0l0 -646.67194z" clip-rule="nonzero"></path></clipPath><g clip-path="url(#p.0)"><path fill="#ffffff" d="m0 0l960.65094 0l0 646.67194l-960.65094 0z" fill-rule="evenodd"></path><path fill="#0277bd" d="m0 636.4821l960.0 0l0 11.433044l-960.0 0z" fill-rule="evenodd"></path><path fill="#0277bd" d="m0 0l961.7638 0l0 101.92126l-961.7638 0z" fill-rule="evenodd"></path><path fill="#000000" fill-opacity="0.0" d="m55.375328 16.703413l904.62994 0l0 64.18897l-904.62994 0z" fill-rule="evenodd"></path><path fill="#ffffff" d="m69.68783 61.543407l-0.96875 0l0 -26.3125l0.96875 0l0 26.3125zm23.795517 -6.3125q0 -1.671875 -0.796875 -2.828125q-0.78125 -1.171875 -2.46875 -2.0625q-1.6875 -0.90625 -5.109375 -1.84375q-3.40625 -0.9375 -5.125 -1.890625q-1.703125 -0.96875 -2.5 -2.21875q-0.796875 -1.265625 -0.796875 -3.078125q0 -2.875 2.421875 -4.65625q2.421875 -1.78125 6.3125 -1.78125q2.53125 0 4.546875 0.984375q2.015625 0.984375 3.109375 2.765625q1.109375 1.78125 1.109375 4.03125l-0.984375 0q0 -2.953125 -2.171875 -4.875q-2.15625 -1.921875 -5.609375 -1.921875q-3.46875 0 -5.609375 1.546875q-2.140625 1.546875 -2.140625 3.875q0 2.359375 1.859375 3.8125q1.859375 1.4375 6.140625 2.546875q4.28125 1.109375 6.265625 2.578125q2.53125 1.859375 2.53125 4.984375q0 1.984375 -1.125 3.515625q-1.109375 1.53125 -3.171875 2.359375q-2.0625 0.828125 -4.625 0.828125q-2.859375 0 -5.140625 -0.9375q-2.265625 -0.953125 -3.421875 -2.703125q-1.140625 -1.765625 -1.140625 -4.140625l0.96875 0q0 3.234375 2.421875 5.03125q2.421875 1.78125 6.3125 1.78125q3.453125 0 5.6875 -1.578125q2.25 -1.59375 2.25 -4.125zm24.197449 -1.75q-0.375 4.0625 -2.796875 6.25q-2.421875 2.171875 -6.578125 2.171875q-2.796875 0 -4.96875 -1.40625q-2.15625 -1.421875 -3.34375 -4.03125q-1.1875 -2.625 -1.203125 -5.984375l0 -4.0625q0 -3.359375 1.171875 -6.0q1.171875 -2.65625 3.34375 -4.09375q2.171875 -1.453125 5.0 -1.453125q4.109375 0 6.546875 2.171875q2.453125 2.171875 2.828125 6.21875l-0.96875 0q-0.421875 -3.640625 -2.546875 -5.515625q-2.109375 -1.890625 -5.859375 -1.890625q-3.828125 0 -6.1875 2.890625q-2.359375 2.890625 -2.359375 7.75l0 3.859375q0 3.109375 1.046875 5.515625q1.046875 2.390625 3.0 3.734375q1.96875 1.328125 4.5 1.328125q3.78125 0 5.890625 -1.859375q2.125 -1.875 2.515625 -5.59375l0.96875 0zm24.186745 0q-0.375 4.0625 -2.796875 6.25q-2.421875 2.171875 -6.578125 2.171875q-2.796875 0 -4.9687576 -1.40625q-2.15625 -1.421875 -3.34375 -4.03125q-1.1875 -2.625 -1.203125 -5.984375l0 -4.0625q0 -3.359375 1.171875 -6.0q1.171875 -2.65625 3.34375 -4.09375q2.1718826 -1.453125 5.0000076 -1.453125q4.109375 0 6.546875 2.171875q2.453125 2.171875 2.828125 6.21875l-0.96875 0q-0.421875 -3.640625 -2.546875 -5.515625q-2.109375 -1.890625 -5.859375 -1.890625q-3.828125 0 -6.1875076 2.890625q-2.359375 2.890625 -2.359375 7.75l0 3.859375q0 3.109375 1.046875 5.515625q1.046875 2.390625 3.0 3.734375q1.9687576 1.328125 4.5000076 1.328125q3.78125 0 5.890625 -1.859375q2.125 -1.875 2.515625 -5.59375l0.96875 0zm21.211533 -3.484375l-8.484375 0l0 -0.96875l8.484375 0l0 0.96875zm29.775864 5.234375q0 -1.671875 -0.796875 -2.828125q-0.78125 -1.171875 -2.46875 -2.0625q-1.6875 -0.90625 -5.109375 -1.84375q-3.40625 -0.9375 -5.125 -1.890625q-1.703125 -0.96875 -2.5 -2.21875q-0.796875 -1.265625 -0.796875 -3.078125q0 -2.875 2.421875 -4.65625q2.421875 -1.78125 6.3125 -1.78125q2.53125 0 4.546875 0.984375q2.015625 0.984375 3.109375 2.765625q1.109375 1.78125 1.109375 4.03125l-0.984375 0q0 -2.953125 -2.171875 -4.875q-2.15625 -1.921875 -5.609375 -1.921875q-3.46875 0 -5.609375 1.546875q-2.140625 1.546875 -2.140625 3.875q0 2.359375 1.859375 3.8125q1.859375 1.4375 6.140625 2.546875q4.28125 1.109375 6.265625 2.578125q2.53125 1.859375 2.53125 4.984375q0 1.984375 -1.125 3.515625q-1.109375 1.53125 -3.171875 2.359375q-2.0625 0.828125 -4.625 0.828125q-2.859375 0 -5.140625 -0.9375q-2.265625 -0.953125 -3.421875 -2.703125q-1.140625 -1.765625 -1.140625 -4.140625l0.96875 0q0 3.234375 2.421875 5.03125q2.421875 1.78125 6.3125 1.78125q3.453125 0 5.6875 -1.578125q2.25 -1.59375 2.25 -4.125zm7.0099487 6.3125l-0.96875 0l0 -19.546875l0.96875 0l0 19.546875zm-1.46875 -25.65625q0 -0.40625 0.28125 -0.703125q0.296875 -0.3125 0.703125 -0.3125q0.421875 0 0.71875 0.3125q0.296875 0.296875 0.296875 0.71875q0 0.40625 -0.296875 0.703125q-0.296875 0.28125 -0.71875 0.28125q-0.40625 0 -0.703125 -0.28125q-0.28125 -0.296875 -0.28125 -0.71875zm21.941635 25.65625l-0.984375 0l0 -13.140625q-0.015625 -2.9375 -1.296875 -4.375q-1.265625 -1.4375 -4.046875 -1.4375q-3.21875 0 -5.25 2.84375q-1.21875 1.6875 -1.609375 3.75l0 12.359375l-1.0 0l0 -19.546875l1.0 0l0 4.625q0.984375 -2.390625 2.828125 -3.6875q1.84375 -1.296875 4.09375 -1.296875q2.453125 0 4.015625 1.09375q1.5625 1.078125 2.046875 3.53125q0.875 -2.109375 2.8125 -3.359375q1.953125 -1.265625 4.375 -1.265625q3.171875 0 4.703125 1.796875q1.546875 1.78125 1.578125 5.359375l0 12.75l-0.984375 0l0 -12.6875q0 -3.21875 -1.296875 -4.75q-1.28125 -1.546875 -4.046875 -1.515625q-3.5625 0.0625 -5.640625 2.84375q-1.1875 1.609375 -1.296875 3.09375l0 13.015625zm20.68283 0l-0.96875 0l0 -19.546875l0.96875 0l0 19.546875zm-1.46875 -25.65625q0 -0.40625 0.28125 -0.703125q0.296875 -0.3125 0.703125 -0.3125q0.421875 0 0.71875 0.3125q0.296875 0.296875 0.296875 0.71875q0 0.40625 -0.296875 0.703125q-0.296875 0.28125 -0.71875 0.28125q-0.40625 0 -0.703125 -0.28125q-0.28125 -0.296875 -0.28125 -0.71875zm9.160385 25.65625l-0.96875 0l0 -27.75l0.96875 0l0 27.75zm19.11351 0q-0.359375 -1.25 -0.359375 -3.578125q-1.15625 1.875 -3.171875 2.90625q-2.0 1.03125 -4.53125 1.03125q-2.703125 0 -4.359375 -1.46875q-1.65625 -1.46875 -1.65625 -3.84375q0 -2.6875 2.421875 -4.296875q2.4375 -1.625 6.46875 -1.65625l4.828125 0l0 -2.859375q0 -2.453125 -1.546875 -3.8125q-1.546875 -1.359375 -4.421875 -1.359375q-2.671875 0 -4.46875 1.375q-1.78125 1.375 -1.78125 3.390625l-0.96875 -0.03125q0 -2.375 2.09375 -4.03125q2.09375 -1.671875 5.125 -1.671875q3.171875 0 5.03125 1.578125q1.859375 1.578125 1.90625 4.453125l0 9.34375q0 3.21875 0.515625 4.375l0 0.15625l-1.125 0zm-8.0625 -0.59375q2.75 0 4.71875 -1.21875q1.984375 -1.234375 2.984375 -3.46875l0 -4.640625l-4.515625 0q-4.1875 0 -6.421875 1.671875q-1.796875 1.34375 -1.796875 3.375q0 1.78125 1.421875 3.03125q1.4375 1.25 3.609375 1.25zm23.749847 -18.25l-1.265625 -0.109375q-2.484375 0 -4.171875 1.625q-1.671875 1.609375 -2.203125 4.515625l0 12.8125l-0.96875 0l0 -19.546875l0.96875 0l0 4.0625q0.796875 -2.046875 2.390625 -3.234375q1.59375 -1.1875 3.984375 -1.1875q0.859375 0 1.375 0.203125l-0.109375 0.859375zm5.07901 18.84375l-0.96875 0l0 -19.546875l0.96875 0l0 19.546875zm-1.46875 -25.65625q0 -0.40625 0.28125 -0.703125q0.296875 -0.3125 0.703125 -0.3125q0.421875 0 0.71875 0.3125q0.296875 0.296875 0.296875 0.71875q0 0.40625 -0.296875 0.703125q-0.296875 0.28125 -0.71875 0.28125q-0.40625 0 -0.703125 -0.28125q-0.28125 -0.296875 -0.28125 -0.71875zm10.144745 0.828125l0 5.28125l4.4375 0l0 1.0l-4.4375 0l0 13.875q0 2.0625 0.671875 3.0625q0.6875 1.0 2.265625 1.0q0.796875 0 1.9375 -0.171875l0.15625 0.921875q-0.59375 0.21875 -2.03125 0.21875q-2.140625 0 -3.0625 -1.171875q-0.921875 -1.1875 -0.9375 -3.734375l0 -14.0l-3.609375 0l0 -1.0l3.609375 0l0 -5.28125l1.0 0zm15.607727 23.3125l0.125 -0.359375l6.75 -17.671875l1.09375 0l-8.75 22.937504l-0.4375 1.09375q-1.40625 3.40625 -4.65625 3.40625q-1.046875 0 -1.453125 -0.1875l-0.015625 -0.921875q0.578125 0.15625 1.328125 0.15625q1.53125 0 2.53125 -0.890625q1.015625 -0.890625 1.765625 -2.921875l1.1875 -3.2343788l-7.78125 -19.4375l1.0625 0l7.25 18.03125zm40.02234 1.515625l-0.96875 0l0 -13.046875l-16.796875 0l0 13.046875l-0.984375 0l0 -26.3125l0.984375 0l0 12.296875l16.796875 0l0 -12.296875l0.96875 0l0 26.3125zm19.5849 0q-0.359375 -1.25 -0.359375 -3.578125q-1.15625 1.875 -3.171875 2.90625q-2.0 1.03125 -4.53125 1.03125q-2.703125 0 -4.359375 -1.46875q-1.65625 -1.46875 -1.65625 -3.84375q0 -2.6875 2.421875 -4.296875q2.4375 -1.625 6.46875 -1.65625l4.828125 0l0 -2.859375q0 -2.453125 -1.546875 -3.8125q-1.546875 -1.359375 -4.421875 -1.359375q-2.671875 0 -4.46875 1.375q-1.78125 1.375 -1.78125 3.390625l-0.96875 -0.03125q0 -2.375 2.09375 -4.03125q2.09375 -1.671875 5.125 -1.671875q3.171875 0 5.03125 1.578125q1.859375 1.578125 1.90625 4.453125l0 9.34375q0 3.21875 0.515625 4.375l0 0.15625l-1.125 0zm-8.0625 -0.59375q2.75 0 4.71875 -1.21875q1.984375 -1.234375 2.984375 -3.46875l0 -4.640625l-4.515625 0q-4.1875 0 -6.421875 1.671875q-1.796875 1.34375 -1.796875 3.375q0 1.78125 1.421875 3.03125q1.4375 1.25 3.609375 1.25zm27.187378 -4.1875q0 -3.5625 -6.0625 -4.84375q-3.65625 -0.78125 -5.09375 -2.0q-1.421875 -1.21875 -1.421875 -3.359375q0 -2.140625 1.8125 -3.53125q1.828125 -1.390625 4.734375 -1.390625q3.15625 0 5.0625 1.515625q1.921875 1.5 1.921875 4.0625l-0.984375 0q0 -1.96875 -1.671875 -3.28125q-1.65625 -1.328125 -4.328125 -1.328125q-2.5625 0 -4.0625 1.125q-1.5 1.125 -1.5 2.796875q0 1.328125 0.546875 2.078125q0.5625 0.75 1.828125 1.359375q1.265625 0.59375 3.6875 1.15625q2.421875 0.5625 3.828125 1.328125q1.421875 0.75 2.046875 1.796875q0.640625 1.03125 0.640625 2.53125q0 2.3125 -1.90625 3.71875q-1.890625 1.40625 -4.96875 1.40625q-3.28125 0 -5.296875 -1.484375q-2.015625 -1.5 -2.015625 -3.84375l0.96875 0q0.15625 2.0625 1.8125 3.21875q1.671875 1.140625 4.53125 1.140625q2.625 0 4.25 -1.21875q1.640625 -1.21875 1.640625 -2.953125zm7.494812 -10.21875q0.96875 -2.265625 2.828125 -3.578125q1.859375 -1.328125 4.109375 -1.328125q3.15625 0 4.671875 1.78125q1.53125 1.78125 1.546875 5.375l0 12.75l-0.96875 0l0 -12.796875q-0.03125 -3.140625 -1.296875 -4.640625q-1.25 -1.515625 -4.0 -1.515625q-2.53125 0 -4.390625 1.796875q-1.84375 1.796875 -2.5 4.640625l0 12.515625l-0.96875 0l0 -27.75l0.96875 0l0 12.75zm28.894348 15.0l0 -26.3125l7.28125 0q3.0625 0 5.53125 1.453125q2.46875 1.4375 3.875 4.0625q1.421875 2.609375 1.453125 5.84375l0 3.40625q0 3.296875 -1.390625 5.9375q-1.375 2.625 -3.859375 4.109375q-2.46875 1.484375 -5.515625 1.5l-7.375 0zm0.984375 -25.328125l0 24.359375l6.296875 0q2.765625 0 5.03125 -1.34375q2.265625 -1.359375 3.546875 -3.765625q1.296875 -2.40625 1.3125 -5.359375l0 -3.375q0 -2.953125 -1.265625 -5.34375q-1.25 -2.40625 -3.5 -3.765625q-2.25 -1.375 -4.984375 -1.40625l-6.4375 0zm24.142426 25.328125l-0.96875 0l0 -19.546875l0.96875 0l0 19.546875zm-1.46875 -25.65625q0 -0.40625 0.28125 -0.703125q0.296875 -0.3125 0.703125 -0.3125q0.421875 0 0.71875 0.3125q0.296875 0.296875 0.296875 0.71875q0 0.40625 -0.296875 0.703125q-0.296875 0.28125 -0.71875 0.28125q-0.40625 0 -0.703125 -0.28125q-0.28125 -0.296875 -0.28125 -0.71875zm20.582245 25.65625q-0.359375 -1.25 -0.359375 -3.578125q-1.15625 1.875 -3.171875 2.90625q-2.0 1.03125 -4.53125 1.03125q-2.703125 0 -4.359375 -1.46875q-1.65625 -1.46875 -1.65625 -3.84375q0 -2.6875 2.421875 -4.296875q2.4375 -1.625 6.46875 -1.65625l4.828125 0l0 -2.859375q0 -2.453125 -1.546875 -3.8125q-1.546875 -1.359375 -4.421875 -1.359375q-2.671875 0 -4.46875 1.375q-1.78125 1.375 -1.78125 3.390625l-0.96875 -0.03125q0 -2.375 2.09375 -4.03125q2.09375 -1.671875 5.125 -1.671875q3.171875 0 5.03125 1.578125q1.859375 1.578125 1.90625 4.453125l0 9.34375q0 3.21875 0.515625 4.375l0 0.15625l-1.125 0zm-8.0625 -0.59375q2.75 0 4.71875 -1.21875q1.984375 -1.234375 2.984375 -3.46875l0 -4.640625l-4.515625 0q-4.1875 0 -6.421875 1.671875q-1.796875 1.34375 -1.796875 3.375q0 1.78125 1.421875 3.03125q1.4375 1.25 3.609375 1.25zm14.218628 -9.375q0 -4.6875 1.96875 -7.3125q1.96875 -2.625 5.40625 -2.625q2.1875 0 3.875 1.0q1.703125 1.0 2.734375 2.9375l0 -3.578125l0.984375 0l0 19.203125q0 3.8593788 -1.984375 6.031254q-1.984375 2.1875 -5.390625 2.1875q-1.96875 0 -3.609375 -0.859375q-1.640625 -0.84375 -2.796875 -2.421875l0.6875 -0.65625q1.140625 1.453125 2.484375 2.21875q1.359375 0.765625 3.1875 0.765625q3.015625 0 4.6875 -1.84375q1.6875 -1.828125 1.75 -5.171879l0 -3.0q-1.015625 1.671875 -2.75 2.5625q-1.71875 0.890625 -3.90625 0.890625q-3.390625 0 -5.359375 -2.6875q-1.96875 -2.6875 -1.96875 -7.390625l0 -0.25zm1.0 0.375q0 4.1875 1.65625 6.59375q1.65625 2.390625 4.65625 2.390625q2.484375 0 4.21875 -1.140625q1.734375 -1.15625 2.453125 -3.234375l0 -8.875q-1.59375 -5.078125 -6.625 -5.078125q-3.03125 0 -4.703125 2.375q-1.65625 2.359375 -1.65625 6.96875zm28.999756 -9.25l-1.265625 -0.109375q-2.484375 0 -4.171875 1.625q-1.671875 1.609375 -2.203125 4.515625l0 12.8125l-0.96875 0l0 -19.546875l0.96875 0l0 4.0625q0.796875 -2.046875 2.390625 -3.234375q1.59375 -1.1875 3.984375 -1.1875q0.859375 0 1.375 0.203125l-0.109375 0.859375zm16.500824 18.84375q-0.359375 -1.25 -0.359375 -3.578125q-1.15625 1.875 -3.171875 2.90625q-2.0 1.03125 -4.53125 1.03125q-2.703125 0 -4.359375 -1.46875q-1.6562195 -1.46875 -1.6562195 -3.84375q0 -2.6875 2.4218445 -4.296875q2.4375 -1.625 6.46875 -1.65625l4.828125 0l0 -2.859375q0 -2.453125 -1.546875 -3.8125q-1.546875 -1.359375 -4.421875 -1.359375q-2.671875 0 -4.46875 1.375q-1.78125 1.375 -1.78125 3.390625l-0.9687195 -0.03125q0 -2.375 2.0937195 -4.03125q2.09375 -1.671875 5.125 -1.671875q3.171875 0 5.03125 1.578125q1.859375 1.578125 1.90625 4.453125l0 9.34375q0 3.21875 0.515625 4.375l0 0.15625l-1.125 0zm-8.0625 -0.59375q2.75 0 4.71875 -1.21875q1.984375 -1.234375 2.984375 -3.46875l0 -4.640625l-4.515625 0q-4.1875 0 -6.421875 1.671875q-1.7968445 1.34375 -1.7968445 3.375q0 1.78125 1.4218445 3.03125q1.4375 1.25 3.609375 1.25zm29.124878 0.59375l-0.984375 0l0 -13.140625q-0.015625 -2.9375 -1.296875 -4.375q-1.265625 -1.4375 -4.046875 -1.4375q-3.21875 0 -5.25 2.84375q-1.21875 1.6875 -1.609375 3.75l0 12.359375l-1.0 0l0 -19.546875l1.0 0l0 4.625q0.984375 -2.390625 2.828125 -3.6875q1.84375 -1.296875 4.09375 -1.296875q2.453125 0 4.015625 1.09375q1.5625 1.078125 2.046875 3.53125q0.875 -2.109375 2.8125 -3.359375q1.953125 -1.265625 4.375 -1.265625q3.171875 0 4.703125 1.796875q1.546875 1.78125 1.578125 5.359375l0 12.75l-0.984375 0l0 -12.6875q0 -3.21875 -1.296875 -4.75q-1.28125 -1.546875 -4.046875 -1.515625q-3.5625 0.0625 -5.640625 2.84375q-1.1875 1.609375 -1.296875 3.09375l0 13.015625z" fill-rule="nonzero"></path><path fill="#0277bd" d="m55.375328 144.61154l566.92914 0l0 64.0l-566.92914 0z" fill-rule="evenodd"></path><path fill="#ffffff" d="m79.17779 176.88655q0 -5.078125 1.046875 -8.171875q1.046875 -3.09375 3.109375 -4.765625q2.0625 -1.6875 5.1875 -1.6875q2.296875 0 4.03125 0.9375q1.75 0.921875 2.875 2.671875q1.140625 1.734375 1.78125 4.25q0.640625 2.515625 0.640625 6.765625q0 5.046875 -1.03125 8.140625q-1.03125 3.09375 -3.09375 4.78125q-2.0625 1.6875 -5.203125 1.6875q-4.140625 0 -6.5 -2.96875q-2.84375 -3.578125 -2.84375 -11.640625zm3.625 0q0 7.046875 1.640625 9.390625q1.65625 2.328125 4.078125 2.328125q2.421875 0 4.0625 -2.34375q1.65625 -2.34375 1.65625 -9.375q0 -7.0625 -1.65625 -9.390625q-1.640625 -2.328125 -4.109375 -2.328125q-2.421875 0 -3.859375 2.046875q-1.8125 2.625 -1.8125 9.671875zm42.984375 14.125l-3.515625 0l0 -22.40625q-1.265625 1.21875 -3.328125 2.4375q-2.0625 1.203125 -3.703125 1.796875l0 -3.390625q2.953125 -1.390625 5.15625 -3.359375q2.203125 -1.96875 3.125 -3.828125l2.265625 0l0 28.75zm33.359383 0l-3.515625 0l0 -22.40625q-1.265625 1.21875 -3.328125 2.4375q-2.0625 1.203125 -3.703125 1.796875l0 -3.390625q2.953125 -1.390625 5.15625 -3.359375q2.203125 -1.96875 3.125 -3.828125l2.265625 0l0 28.75zm20.109375 -14.125q0 -5.078125 1.046875 -8.171875q1.046875 -3.09375 3.109375 -4.765625q2.0625 -1.6875 5.1875 -1.6875q2.296875 0 4.03125 0.9375q1.75 0.921875 2.875 2.671875q1.140625 1.734375 1.78125 4.25q0.640625 2.515625 0.640625 6.765625q0 5.046875 -1.03125 8.140625q-1.03125 3.09375 -3.09375 4.78125q-2.0625 1.6875 -5.203125 1.6875q-4.140625 0 -6.5 -2.96875q-2.84375 -3.578125 -2.84375 -11.640625zm3.625 0q0 7.046875 1.640625 9.390625q1.65625 2.328125 4.078125 2.328125q2.421875 0 4.0625 -2.34375q1.65625 -2.34375 1.65625 -9.375q0 -7.0625 -1.65625 -9.390625q-1.640625 -2.328125 -4.109375 -2.328125q-2.421875 0 -3.859375 2.046875q-1.8125 2.625 -1.8125 9.671875zm42.984375 14.125l-3.515625 0l0 -22.40625q-1.265625 1.21875 -3.328125 2.4375q-2.0625 1.203125 -3.703125 1.796875l0 -3.390625q2.953125 -1.390625 5.15625 -3.359375q2.203125 -1.96875 3.125 -3.828125l2.265625 0l0 28.75zm20.109375 -14.125q0 -5.078125 1.046875 -8.171875q1.046875 -3.09375 3.109375 -4.765625q2.0625 -1.6875 5.1875 -1.6875q2.296875 0 4.03125 0.9375q1.75 0.921875 2.875 2.671875q1.140625 1.734375 1.78125 4.25q0.640625 2.515625 0.640625 6.765625q0 5.046875 -1.03125 8.140625q-1.03125 3.09375 -3.09375 4.78125q-2.0625 1.6875 -5.203125 1.6875q-4.140625 0 -6.5 -2.96875q-2.84375 -3.578125 -2.84375 -11.640625zm3.625 0q0 7.046875 1.640625 9.390625q1.65625 2.328125 4.078125 2.328125q2.421875 0 4.0625 -2.34375q1.65625 -2.34375 1.65625 -9.375q0 -7.0625 -1.65625 -9.390625q-1.640625 -2.328125 -4.109375 -2.328125q-2.421875 0 -3.859375 2.046875q-1.8125 2.625 -1.8125 9.671875zm29.734375 0q0 -5.078125 1.046875 -8.171875q1.046875 -3.09375 3.109375 -4.765625q2.0625 -1.6875 5.1875 -1.6875q2.296875 0 4.03125 0.9375q1.75 0.921875 2.875 2.671875q1.140625 1.734375 1.78125 4.25q0.640625 2.515625 0.640625 6.765625q0 5.046875 -1.03125 8.140625q-1.03125 3.09375 -3.09375 4.78125q-2.0625 1.6875 -5.203125 1.6875q-4.140625 0 -6.5 -2.96875q-2.84375 -3.578125 -2.84375 -11.640625zm3.625 0q0 7.046875 1.640625 9.390625q1.65625 2.328125 4.078125 2.328125q2.421875 0 4.0625 -2.34375q1.65625 -2.34375 1.65625 -9.375q0 -7.0625 -1.65625 -9.390625q-1.640625 -2.328125 -4.109375 -2.328125q-2.421875 0 -3.859375 2.046875q-1.8125 2.625 -1.8125 9.671875zm42.984375 14.125l-3.515625 0l0 -22.40625q-1.265625 1.21875 -3.328125 2.4375q-2.0625 1.203125 -3.703125 1.796875l0 -3.390625q2.953125 -1.390625 5.15625 -3.359375q2.203125 -1.96875 3.125 -3.828125l2.265625 0l0 28.75zm20.109375 -14.125q0 -5.078125 1.046875 -8.171875q1.046875 -3.09375 3.109375 -4.765625q2.0625 -1.6875 5.1875 -1.6875q2.296875 0 4.03125 0.9375q1.75 0.921875 2.875 2.671875q1.140625 1.734375 1.78125 4.25q0.640625 2.515625 0.640625 6.765625q0 5.046875 -1.03125 8.140625q-1.03125 3.09375 -3.09375 4.78125q-2.0625 1.6875 -5.203125 1.6875q-4.140625 0 -6.5 -2.96875q-2.84375 -3.578125 -2.84375 -11.640625zm3.625 0q0 7.046875 1.640625 9.390625q1.65625 2.328125 4.078125 2.328125q2.421875 0 4.0625 -2.34375q1.65625 -2.34375 1.65625 -9.375q0 -7.0625 -1.65625 -9.390625q-1.640625 -2.328125 -4.109375 -2.328125q-2.421875 0 -3.859375 2.046875q-1.8125 2.625 -1.8125 9.671875zm42.984375 14.125l-3.515625 0l0 -22.40625q-1.265625 1.21875 -3.328125 2.4375q-2.0625 1.203125 -3.703125 1.796875l0 -3.390625q2.953125 -1.390625 5.15625 -3.359375q2.203125 -1.96875 3.125 -3.828125l2.265625 0l0 28.75zm33.359375 0l-3.515625 0l0 -22.40625q-1.265625 1.21875 -3.328125 2.4375q-2.0625 1.203125 -3.703125 1.796875l0 -3.390625q2.953125 -1.390625 5.15625 -3.359375q2.203125 -1.96875 3.125 -3.828125l2.265625 0l0 28.75zm20.109375 -14.125q0 -5.078125 1.046875 -8.171875q1.046875 -3.09375 3.109375 -4.765625q2.0625 -1.6875 5.1875 -1.6875q2.296875 0 4.03125 0.9375q1.75 0.921875 2.875 2.671875q1.140625 1.734375 1.78125 4.25q0.640625 2.515625 0.640625 6.765625q0 5.046875 -1.03125 8.140625q-1.03125 3.09375 -3.09375 4.78125q-2.0625 1.6875 -5.203125 1.6875q-4.140625 0 -6.5 -2.96875q-2.84375 -3.578125 -2.84375 -11.640625zm3.625 0q0 7.046875 1.640625 9.390625q1.65625 2.328125 4.078125 2.328125q2.421875 0 4.0625 -2.34375q1.65625 -2.34375 1.65625 -9.375q0 -7.0625 -1.65625 -9.390625q-1.640625 -2.328125 -4.109375 -2.328125q-2.421875 0 -3.859375 2.046875q-1.8125 2.625 -1.8125 9.671875zm42.984375 14.125l-3.515625 0l0 -22.40625q-1.265625 1.21875 -3.328125 2.4375q-2.0625 1.203125 -3.703125 1.796875l0 -3.390625q2.953125 -1.390625 5.15625 -3.359375q2.203125 -1.96875 3.125 -3.828125l2.265625 0l0 28.75zm20.109375 -14.125q0 -5.078125 1.046875 -8.171875q1.046875 -3.09375 3.109375 -4.765625q2.0625 -1.6875 5.1875 -1.6875q2.296875 0 4.03125 0.9375q1.75 0.921875 2.875 2.671875q1.140625 1.734375 1.78125 4.25q0.640625 2.515625 0.640625 6.765625q0 5.046875 -1.03125 8.140625q-1.03125 3.09375 -3.09375 4.78125q-2.0625 1.6875 -5.203125 1.6875q-4.140625 0 -6.5 -2.96875q-2.84375 -3.578125 -2.84375 -11.640625zm3.625 0q0 7.046875 1.640625 9.390625q1.65625 2.328125 4.078125 2.328125q2.421875 0 4.0625 -2.34375q1.65625 -2.34375 1.65625 -9.375q0 -7.0625 -1.65625 -9.390625q-1.640625 -2.328125 -4.109375 -2.328125q-2.421875 0 -3.859375 2.046875q-1.8125 2.625 -1.8125 9.671875zm29.734375 0q0 -5.078125 1.046875 -8.171875q1.046875 -3.09375 3.109375 -4.765625q2.0625 -1.6875 5.1875 -1.6875q2.296875 0 4.03125 0.9375q1.75 0.921875 2.875 2.671875q1.140625 1.734375 1.78125 4.25q0.640625 2.515625 0.640625 6.765625q0 5.046875 -1.03125 8.140625q-1.03125 3.09375 -3.09375 4.78125q-2.0625 1.6875 -5.203125 1.6875q-4.140625 0 -6.5 -2.96875q-2.84375 -3.578125 -2.84375 -11.640625zm3.625 0q0 7.046875 1.640625 9.390625q1.65625 2.328125 4.078125 2.328125q2.421875 0 4.0625 -2.34375q1.65625 -2.34375 1.65625 -9.375q0 -7.0625 -1.65625 -9.390625q-1.640625 -2.328125 -4.109375 -2.328125q-2.421875 0 -3.859375 2.046875q-1.8125 2.625 -1.8125 9.671875zm42.984375 14.125l-3.515625 0l0 -22.40625q-1.265625 1.21875 -3.328125 2.4375q-2.0625 1.203125 -3.703125 1.796875l0 -3.390625q2.953125 -1.390625 5.15625 -3.359375q2.203125 -1.96875 3.125 -3.828125l2.265625 0l0 28.75z" fill-rule="nonzero"></path><path fill="#073763" d="m55.375328 535.8688l566.92914 0l0 64.0l-566.92914 0z" fill-rule="evenodd"></path><path fill="#ffffff" d="m79.17779 568.14374q0 -5.078125 1.046875 -8.171875q1.046875 -3.09375 3.109375 -4.765625q2.0625 -1.6875 5.1875 -1.6875q2.296875 0 4.03125 0.9375q1.75 0.921875 2.875 2.671875q1.140625 1.734375 1.78125 4.25q0.640625 2.515625 0.640625 6.765625q0 5.046875 -1.03125 8.140625q-1.03125 3.09375 -3.09375 4.78125q-2.0625 1.6875 -5.203125 1.6875q-4.140625 0 -6.5 -2.96875q-2.84375 -3.578125 -2.84375 -11.640625zm3.625 0q0 7.046875 1.640625 9.390625q1.65625 2.328125 4.078125 2.328125q2.421875 0 4.0625 -2.34375q1.65625 -2.34375 1.65625 -9.375q0 -7.0625 -1.65625 -9.390625q-1.640625 -2.328125 -4.109375 -2.328125q-2.421875 0 -3.859375 2.046875q-1.8125 2.625 -1.8125 9.671875zm42.984375 14.125l-3.515625 0l0 -22.40625q-1.265625 1.21875 -3.328125 2.4375q-2.0625 1.203125 -3.703125 1.796875l0 -3.390625q2.953125 -1.390625 5.15625 -3.359375q2.203125 -1.96875 3.125 -3.828125l2.265625 0l0 28.75zm33.359383 0l-3.515625 0l0 -22.40625q-1.265625 1.21875 -3.328125 2.4375q-2.0625 1.203125 -3.703125 1.796875l0 -3.390625q2.953125 -1.390625 5.15625 -3.359375q2.203125 -1.96875 3.125 -3.828125l2.265625 0l0 28.75zm20.109375 -14.125q0 -5.078125 1.046875 -8.171875q1.046875 -3.09375 3.109375 -4.765625q2.0625 -1.6875 5.1875 -1.6875q2.296875 0 4.03125 0.9375q1.75 0.921875 2.875 2.671875q1.140625 1.734375 1.78125 4.25q0.640625 2.515625 0.640625 6.765625q0 5.046875 -1.03125 8.140625q-1.03125 3.09375 -3.09375 4.78125q-2.0625 1.6875 -5.203125 1.6875q-4.140625 0 -6.5 -2.96875q-2.84375 -3.578125 -2.84375 -11.640625zm3.625 0q0 7.046875 1.640625 9.390625q1.65625 2.328125 4.078125 2.328125q2.421875 0 4.0625 -2.34375q1.65625 -2.34375 1.65625 -9.375q0 -7.0625 -1.65625 -9.390625q-1.640625 -2.328125 -4.109375 -2.328125q-2.421875 0 -3.859375 2.046875q-1.8125 2.625 -1.8125 9.671875zm42.984375 14.125l-3.515625 0l0 -22.40625q-1.265625 1.21875 -3.328125 2.4375q-2.0625 1.203125 -3.703125 1.796875l0 -3.390625q2.953125 -1.390625 5.15625 -3.359375q2.203125 -1.96875 3.125 -3.828125l2.265625 0l0 28.75zm20.109375 -14.125q0 -5.078125 1.046875 -8.171875q1.046875 -3.09375 3.109375 -4.765625q2.0625 -1.6875 5.1875 -1.6875q2.296875 0 4.03125 0.9375q1.75 0.921875 2.875 2.671875q1.140625 1.734375 1.78125 4.25q0.640625 2.515625 0.640625 6.765625q0 5.046875 -1.03125 8.140625q-1.03125 3.09375 -3.09375 4.78125q-2.0625 1.6875 -5.203125 1.6875q-4.140625 0 -6.5 -2.96875q-2.84375 -3.578125 -2.84375 -11.640625zm3.625 0q0 7.046875 1.640625 9.390625q1.65625 2.328125 4.078125 2.328125q2.421875 0 4.0625 -2.34375q1.65625 -2.34375 1.65625 -9.375q0 -7.0625 -1.65625 -9.390625q-1.640625 -2.328125 -4.109375 -2.328125q-2.421875 0 -3.859375 2.046875q-1.8125 2.625 -1.8125 9.671875zm29.734375 0q0 -5.078125 1.046875 -8.171875q1.046875 -3.09375 3.109375 -4.765625q2.0625 -1.6875 5.1875 -1.6875q2.296875 0 4.03125 0.9375q1.75 0.921875 2.875 2.671875q1.140625 1.734375 1.78125 4.25q0.640625 2.515625 0.640625 6.765625q0 5.046875 -1.03125 8.140625q-1.03125 3.09375 -3.09375 4.78125q-2.0625 1.6875 -5.203125 1.6875q-4.140625 0 -6.5 -2.96875q-2.84375 -3.578125 -2.84375 -11.640625zm3.625 0q0 7.046875 1.640625 9.390625q1.65625 2.328125 4.078125 2.328125q2.421875 0 4.0625 -2.34375q1.65625 -2.34375 1.65625 -9.375q0 -7.0625 -1.65625 -9.390625q-1.640625 -2.328125 -4.109375 -2.328125q-2.421875 0 -3.859375 2.046875q-1.8125 2.625 -1.8125 9.671875zm29.734375 0q0 -5.078125 1.046875 -8.171875q1.046875 -3.09375 3.109375 -4.765625q2.0625 -1.6875 5.1875 -1.6875q2.296875 0 4.03125 0.9375q1.75 0.921875 2.875 2.671875q1.140625 1.734375 1.78125 4.25q0.640625 2.515625 0.640625 6.765625q0 5.046875 -1.03125 8.140625q-1.03125 3.09375 -3.09375 4.78125q-2.0625 1.6875 -5.203125 1.6875q-4.140625 0 -6.5 -2.96875q-2.84375 -3.578125 -2.84375 -11.640625zm3.625 0q0 7.046875 1.640625 9.390625q1.65625 2.328125 4.078125 2.328125q2.421875 0 4.0625 -2.34375q1.65625 -2.34375 1.65625 -9.375q0 -7.0625 -1.65625 -9.390625q-1.640625 -2.328125 -4.109375 -2.328125q-2.421875 0 -3.859375 2.046875q-1.8125 2.625 -1.8125 9.671875zm29.734375 0q0 -5.078125 1.046875 -8.171875q1.046875 -3.09375 3.109375 -4.765625q2.0625 -1.6875 5.1875 -1.6875q2.296875 0 4.03125 0.9375q1.75 0.921875 2.875 2.671875q1.140625 1.734375 1.78125 4.25q0.640625 2.515625 0.640625 6.765625q0 5.046875 -1.03125 8.140625q-1.03125 3.09375 -3.09375 4.78125q-2.0625 1.6875 -5.203125 1.6875q-4.140625 0 -6.5 -2.96875q-2.84375 -3.578125 -2.84375 -11.640625zm3.625 0q0 7.046875 1.640625 9.390625q1.65625 2.328125 4.078125 2.328125q2.421875 0 4.0625 -2.34375q1.65625 -2.34375 1.65625 -9.375q0 -7.0625 -1.65625 -9.390625q-1.640625 -2.328125 -4.109375 -2.328125q-2.421875 0 -3.859375 2.046875q-1.8125 2.625 -1.8125 9.671875zm42.984375 14.125l-3.515625 0l0 -22.40625q-1.265625 1.21875 -3.328125 2.4375q-2.0625 1.203125 -3.703125 1.796875l0 -3.390625q2.953125 -1.390625 5.15625 -3.359375q2.203125 -1.96875 3.125 -3.828125l2.265625 0l0 28.75zm33.359375 0l-3.515625 0l0 -22.40625q-1.265625 1.21875 -3.328125 2.4375q-2.0625 1.203125 -3.703125 1.796875l0 -3.390625q2.953125 -1.390625 5.15625 -3.359375q2.203125 -1.96875 3.125 -3.828125l2.265625 0l0 28.75zm20.109375 -14.125q0 -5.078125 1.046875 -8.171875q1.046875 -3.09375 3.109375 -4.765625q2.0625 -1.6875 5.1875 -1.6875q2.296875 0 4.03125 0.9375q1.75 0.921875 2.875 2.671875q1.140625 1.734375 1.78125 4.25q0.640625 2.515625 0.640625 6.765625q0 5.046875 -1.03125 8.140625q-1.03125 3.09375 -3.09375 4.78125q-2.0625 1.6875 -5.203125 1.6875q-4.140625 0 -6.5 -2.96875q-2.84375 -3.578125 -2.84375 -11.640625zm3.625 0q0 7.046875 1.640625 9.390625q1.65625 2.328125 4.078125 2.328125q2.421875 0 4.0625 -2.34375q1.65625 -2.34375 1.65625 -9.375q0 -7.0625 -1.65625 -9.390625q-1.640625 -2.328125 -4.109375 -2.328125q-2.421875 0 -3.859375 2.046875q-1.8125 2.625 -1.8125 9.671875zm42.984375 14.125l-3.515625 0l0 -22.40625q-1.265625 1.21875 -3.328125 2.4375q-2.0625 1.203125 -3.703125 1.796875l0 -3.390625q2.953125 -1.390625 5.15625 -3.359375q2.203125 -1.96875 3.125 -3.828125l2.265625 0l0 28.75zm20.109375 -14.125q0 -5.078125 1.046875 -8.171875q1.046875 -3.09375 3.109375 -4.765625q2.0625 -1.6875 5.1875 -1.6875q2.296875 0 4.03125 0.9375q1.75 0.921875 2.875 2.671875q1.140625 1.734375 1.78125 4.25q0.640625 2.515625 0.640625 6.765625q0 5.046875 -1.03125 8.140625q-1.03125 3.09375 -3.09375 4.78125q-2.0625 1.6875 -5.203125 1.6875q-4.140625 0 -6.5 -2.96875q-2.84375 -3.578125 -2.84375 -11.640625zm3.625 0q0 7.046875 1.640625 9.390625q1.65625 2.328125 4.078125 2.328125q2.421875 0 4.0625 -2.34375q1.65625 -2.34375 1.65625 -9.375q0 -7.0625 -1.65625 -9.390625q-1.640625 -2.328125 -4.109375 -2.328125q-2.421875 0 -3.859375 2.046875q-1.8125 2.625 -1.8125 9.671875zm29.734375 0q0 -5.078125 1.046875 -8.171875q1.046875 -3.09375 3.109375 -4.765625q2.0625 -1.6875 5.1875 -1.6875q2.296875 0 4.03125 0.9375q1.75 0.921875 2.875 2.671875q1.140625 1.734375 1.78125 4.25q0.640625 2.515625 0.640625 6.765625q0 5.046875 -1.03125 8.140625q-1.03125 3.09375 -3.09375 4.78125q-2.0625 1.6875 -5.203125 1.6875q-4.140625 0 -6.5 -2.96875q-2.84375 -3.578125 -2.84375 -11.640625zm3.625 0q0 7.046875 1.640625 9.390625q1.65625 2.328125 4.078125 2.328125q2.421875 0 4.0625 -2.34375q1.65625 -2.34375 1.65625 -9.375q0 -7.0625 -1.65625 -9.390625q-1.640625 -2.328125 -4.109375 -2.328125q-2.421875 0 -3.859375 2.046875q-1.8125 2.625 -1.8125 9.671875zm29.734375 0q0 -5.078125 1.046875 -8.171875q1.046875 -3.09375 3.109375 -4.765625q2.0625 -1.6875 5.1875 -1.6875q2.296875 0 4.03125 0.9375q1.75 0.921875 2.875 2.671875q1.140625 1.734375 1.78125 4.25q0.640625 2.515625 0.640625 6.765625q0 5.046875 -1.03125 8.140625q-1.03125 3.09375 -3.09375 4.78125q-2.0625 1.6875 -5.203125 1.6875q-4.140625 0 -6.5 -2.96875q-2.84375 -3.578125 -2.84375 -11.640625zm3.625 0q0 7.046875 1.640625 9.390625q1.65625 2.328125 4.078125 2.328125q2.421875 0 4.0625 -2.34375q1.65625 -2.34375 1.65625 -9.375q0 -7.0625 -1.65625 -9.390625q-1.640625 -2.328125 -4.109375 -2.328125q-2.421875 0 -3.859375 2.046875q-1.8125 2.625 -1.8125 9.671875z" fill-rule="nonzero"></path><path fill="#0277bd" d="m0 0l12.125984 0l0 648.0l-12.125984 0z" fill-rule="evenodd"></path><path fill="#0277bd" d="m949.63226 0l12.125977 0l0 648.0l-12.125977 0z" fill-rule="evenodd"></path><path fill="#0277bd" d="m55.375328 242.42586l566.92914 0l0 63.999985l-566.92914 0z" fill-rule="evenodd"></path><path fill="#ffffff" d="m79.17779 274.70084q0 -5.078125 1.046875 -8.171875q1.046875 -3.09375 3.109375 -4.765625q2.0625 -1.6875 5.1875 -1.6875q2.296875 0 4.03125 0.9375q1.75 0.921875 2.875 2.671875q1.140625 1.734375 1.78125 4.25q0.640625 2.515625 0.640625 6.765625q0 5.046875 -1.03125 8.140625q-1.03125 3.09375 -3.09375 4.78125q-2.0625 1.6875 -5.203125 1.6875q-4.140625 0 -6.5 -2.96875q-2.84375 -3.578125 -2.84375 -11.640625zm3.625 0q0 7.046875 1.640625 9.390625q1.65625 2.328125 4.078125 2.328125q2.421875 0 4.0625 -2.34375q1.65625 -2.34375 1.65625 -9.375q0 -7.0625 -1.65625 -9.390625q-1.640625 -2.328125 -4.109375 -2.328125q-2.421875 0 -3.859375 2.046875q-1.8125 2.625 -1.8125 9.671875zm29.734375 0q0 -5.078125 1.046875 -8.171875q1.046875 -3.09375 3.109375 -4.765625q2.0625 -1.6875 5.1875 -1.6875q2.296875 0 4.03125 0.9375q1.75 0.921875 2.8750076 2.671875q1.140625 1.734375 1.78125 4.25q0.640625 2.515625 0.640625 6.765625q0 5.046875 -1.03125 8.140625q-1.03125 3.09375 -3.0937576 4.78125q-2.0625 1.6875 -5.203125 1.6875q-4.140625 0 -6.5 -2.96875q-2.84375 -3.578125 -2.84375 -11.640625zm3.625 0q0 7.046875 1.640625 9.390625q1.65625 2.328125 4.078125 2.328125q2.421875 0 4.0625 -2.34375q1.65625 -2.34375 1.65625 -9.375q0 -7.0625 -1.65625 -9.390625q-1.640625 -2.328125 -4.109375 -2.328125q-2.421875 0 -3.859375 2.046875q-1.8125 2.625 -1.8125 9.671875zm42.984383 14.125l-3.515625 0l0 -22.40625q-1.265625 1.21875 -3.328125 2.4375q-2.0625 1.203125 -3.703125 1.796875l0 -3.390625q2.953125 -1.390625 5.15625 -3.359375q2.203125 -1.96875 3.125 -3.828125l2.265625 0l0 28.75zm33.359375 0l-3.515625 0l0 -22.40625q-1.265625 1.21875 -3.328125 2.4375q-2.0625 1.203125 -3.703125 1.796875l0 -3.390625q2.953125 -1.390625 5.15625 -3.359375q2.203125 -1.96875 3.125 -3.828125l2.265625 0l0 28.75zm33.359375 0l-3.515625 0l0 -22.40625q-1.265625 1.21875 -3.328125 2.4375q-2.0625 1.203125 -3.703125 1.796875l0 -3.390625q2.953125 -1.390625 5.15625 -3.359375q2.203125 -1.96875 3.125 -3.828125l2.265625 0l0 28.75zm20.109375 -14.125q0 -5.078125 1.046875 -8.171875q1.046875 -3.09375 3.109375 -4.765625q2.0625 -1.6875 5.1875 -1.6875q2.296875 0 4.03125 0.9375q1.75 0.921875 2.875 2.671875q1.140625 1.734375 1.78125 4.25q0.640625 2.515625 0.640625 6.765625q0 5.046875 -1.03125 8.140625q-1.03125 3.09375 -3.09375 4.78125q-2.0625 1.6875 -5.203125 1.6875q-4.140625 0 -6.5 -2.96875q-2.84375 -3.578125 -2.84375 -11.640625zm3.625 0q0 7.046875 1.640625 9.390625q1.65625 2.328125 4.078125 2.328125q2.421875 0 4.0625 -2.34375q1.65625 -2.34375 1.65625 -9.375q0 -7.0625 -1.65625 -9.390625q-1.640625 -2.328125 -4.109375 -2.328125q-2.421875 0 -3.859375 2.046875q-1.8125 2.625 -1.8125 9.671875zm29.734375 0q0 -5.078125 1.046875 -8.171875q1.046875 -3.09375 3.109375 -4.765625q2.0625 -1.6875 5.1875 -1.6875q2.296875 0 4.03125 0.9375q1.75 0.921875 2.875 2.671875q1.140625 1.734375 1.78125 4.25q0.640625 2.515625 0.640625 6.765625q0 5.046875 -1.03125 8.140625q-1.03125 3.09375 -3.09375 4.78125q-2.0625 1.6875 -5.203125 1.6875q-4.140625 0 -6.5 -2.96875q-2.84375 -3.578125 -2.84375 -11.640625zm3.625 0q0 7.046875 1.640625 9.390625q1.65625 2.328125 4.078125 2.328125q2.421875 0 4.0625 -2.34375q1.65625 -2.34375 1.65625 -9.375q0 -7.0625 -1.65625 -9.390625q-1.640625 -2.328125 -4.109375 -2.328125q-2.421875 0 -3.859375 2.046875q-1.8125 2.625 -1.8125 9.671875zm29.734375 0q0 -5.078125 1.046875 -8.171875q1.046875 -3.09375 3.109375 -4.765625q2.0625 -1.6875 5.1875 -1.6875q2.296875 0 4.03125 0.9375q1.75 0.921875 2.875 2.671875q1.140625 1.734375 1.78125 4.25q0.640625 2.515625 0.640625 6.765625q0 5.046875 -1.03125 8.140625q-1.03125 3.09375 -3.09375 4.78125q-2.0625 1.6875 -5.203125 1.6875q-4.140625 0 -6.5 -2.96875q-2.84375 -3.578125 -2.84375 -11.640625zm3.625 0q0 7.046875 1.640625 9.390625q1.65625 2.328125 4.078125 2.328125q2.421875 0 4.0625 -2.34375q1.65625 -2.34375 1.65625 -9.375q0 -7.0625 -1.65625 -9.390625q-1.640625 -2.328125 -4.109375 -2.328125q-2.421875 0 -3.859375 2.046875q-1.8125 2.625 -1.8125 9.671875zm29.734375 0q0 -5.078125 1.046875 -8.171875q1.046875 -3.09375 3.109375 -4.765625q2.0625 -1.6875 5.1875 -1.6875q2.296875 0 4.03125 0.9375q1.75 0.921875 2.875 2.671875q1.140625 1.734375 1.78125 4.25q0.640625 2.515625 0.640625 6.765625q0 5.046875 -1.03125 8.140625q-1.03125 3.09375 -3.09375 4.78125q-2.0625 1.6875 -5.203125 1.6875q-4.140625 0 -6.5 -2.96875q-2.84375 -3.578125 -2.84375 -11.640625zm3.625 0q0 7.046875 1.640625 9.390625q1.65625 2.328125 4.078125 2.328125q2.421875 0 4.0625 -2.34375q1.65625 -2.34375 1.65625 -9.375q0 -7.0625 -1.65625 -9.390625q-1.640625 -2.328125 -4.109375 -2.328125q-2.421875 0 -3.859375 2.046875q-1.8125 2.625 -1.8125 9.671875zm29.734375 0q0 -5.078125 1.046875 -8.171875q1.046875 -3.09375 3.109375 -4.765625q2.0625 -1.6875 5.1875 -1.6875q2.296875 0 4.03125 0.9375q1.75 0.921875 2.875 2.671875q1.140625 1.734375 1.78125 4.25q0.640625 2.515625 0.640625 6.765625q0 5.046875 -1.03125 8.140625q-1.03125 3.09375 -3.09375 4.78125q-2.0625 1.6875 -5.203125 1.6875q-4.140625 0 -6.5 -2.96875q-2.84375 -3.578125 -2.84375 -11.640625zm3.625 0q0 7.046875 1.640625 9.390625q1.65625 2.328125 4.078125 2.328125q2.421875 0 4.0625 -2.34375q1.65625 -2.34375 1.65625 -9.375q0 -7.0625 -1.65625 -9.390625q-1.640625 -2.328125 -4.109375 -2.328125q-2.421875 0 -3.859375 2.046875q-1.8125 2.625 -1.8125 9.671875zm42.984375 14.125l-3.515625 0l0 -22.40625q-1.265625 1.21875 -3.328125 2.4375q-2.0625 1.203125 -3.703125 1.796875l0 -3.390625q2.953125 -1.390625 5.15625 -3.359375q2.203125 -1.96875 3.125 -3.828125l2.265625 0l0 28.75zm33.359375 0l-3.515625 0l0 -22.40625q-1.265625 1.21875 -3.328125 2.4375q-2.0625 1.203125 -3.703125 1.796875l0 -3.390625q2.953125 -1.390625 5.15625 -3.359375q2.203125 -1.96875 3.125 -3.828125l2.265625 0l0 28.75zm33.359375 0l-3.515625 0l0 -22.40625q-1.265625 1.21875 -3.328125 2.4375q-2.0625 1.203125 -3.703125 1.796875l0 -3.390625q2.953125 -1.390625 5.15625 -3.359375q2.203125 -1.96875 3.125 -3.828125l2.265625 0l0 28.75zm20.109375 -14.125q0 -5.078125 1.046875 -8.171875q1.046875 -3.09375 3.109375 -4.765625q2.0625 -1.6875 5.1875 -1.6875q2.296875 0 4.03125 0.9375q1.75 0.921875 2.875 2.671875q1.140625 1.734375 1.78125 4.25q0.640625 2.515625 0.640625 6.765625q0 5.046875 -1.03125 8.140625q-1.03125 3.09375 -3.09375 4.78125q-2.0625 1.6875 -5.203125 1.6875q-4.140625 0 -6.5 -2.96875q-2.84375 -3.578125 -2.84375 -11.640625zm3.625 0q0 7.046875 1.640625 9.390625q1.65625 2.328125 4.078125 2.328125q2.421875 0 4.0625 -2.34375q1.65625 -2.34375 1.65625 -9.375q0 -7.0625 -1.65625 -9.390625q-1.640625 -2.328125 -4.109375 -2.328125q-2.421875 0 -3.859375 2.046875q-1.8125 2.625 -1.8125 9.671875zm29.734375 0q0 -5.078125 1.046875 -8.171875q1.046875 -3.09375 3.109375 -4.765625q2.0625 -1.6875 5.1875 -1.6875q2.296875 0 4.03125 0.9375q1.75 0.921875 2.875 2.671875q1.140625 1.734375 1.78125 4.25q0.640625 2.515625 0.640625 6.765625q0 5.046875 -1.03125 8.140625q-1.03125 3.09375 -3.09375 4.78125q-2.0625 1.6875 -5.203125 1.6875q-4.140625 0 -6.5 -2.96875q-2.84375 -3.578125 -2.84375 -11.640625zm3.625 0q0 7.046875 1.640625 9.390625q1.65625 2.328125 4.078125 2.328125q2.421875 0 4.0625 -2.34375q1.65625 -2.34375 1.65625 -9.375q0 -7.0625 -1.65625 -9.390625q-1.640625 -2.328125 -4.109375 -2.328125q-2.421875 0 -3.859375 2.046875q-1.8125 2.625 -1.8125 9.671875zm29.734375 0q0 -5.078125 1.046875 -8.171875q1.046875 -3.09375 3.109375 -4.765625q2.0625 -1.6875 5.1875 -1.6875q2.296875 0 4.03125 0.9375q1.75 0.921875 2.875 2.671875q1.140625 1.734375 1.78125 4.25q0.640625 2.515625 0.640625 6.765625q0 5.046875 -1.03125 8.140625q-1.03125 3.09375 -3.09375 4.78125q-2.0625 1.6875 -5.203125 1.6875q-4.140625 0 -6.5 -2.96875q-2.84375 -3.578125 -2.84375 -11.640625zm3.625 0q0 7.046875 1.640625 9.390625q1.65625 2.328125 4.078125 2.328125q2.421875 0 4.0625 -2.34375q1.65625 -2.34375 1.65625 -9.375q0 -7.0625 -1.65625 -9.390625q-1.640625 -2.328125 -4.109375 -2.328125q-2.421875 0 -3.859375 2.046875q-1.8125 2.625 -1.8125 9.671875z" fill-rule="nonzero"></path><path fill="#0277bd" d="m55.375328 340.24014l566.92914 0l0 64.0l-566.92914 0z" fill-rule="evenodd"></path><path fill="#ffffff" d="m92.42779 386.64017l-3.515625 0l0 -22.40625q-1.265625 1.21875 -3.328125 2.4375q-2.0625 1.203125 -3.703125 1.796875l0 -3.390625q2.953125 -1.390625 5.15625 -3.359375q2.203125 -1.96875 3.125 -3.828125l2.265625 0l0 28.75zm33.359375 0l-3.515625 0l0 -22.40625q-1.265625 1.21875 -3.328125 2.4375q-2.0625 1.203125 -3.703125 1.796875l0 -3.390625q2.953125 -1.390625 5.15625 -3.359375q2.203125 -1.96875 3.125 -3.828125l2.265625 0l0 28.75zm33.359383 0l-3.515625 0l0 -22.40625q-1.265625 1.21875 -3.328125 2.4375q-2.0625 1.203125 -3.703125 1.796875l0 -3.390625q2.953125 -1.390625 5.15625 -3.359375q2.203125 -1.96875 3.125 -3.828125l2.265625 0l0 28.75zm20.109375 -14.125q0 -5.078125 1.046875 -8.171875q1.046875 -3.09375 3.109375 -4.765625q2.0625 -1.6875 5.1875 -1.6875q2.296875 0 4.03125 0.9375q1.75 0.921875 2.875 2.671875q1.140625 1.734375 1.78125 4.25q0.640625 2.515625 0.640625 6.765625q0 5.046875 -1.03125 8.140625q-1.03125 3.09375 -3.09375 4.78125q-2.0625 1.6875 -5.203125 1.6875q-4.140625 0 -6.5 -2.96875q-2.84375 -3.578125 -2.84375 -11.640625zm3.625 0q0 7.046875 1.640625 9.390625q1.65625 2.328125 4.078125 2.328125q2.421875 0 4.0625 -2.34375q1.65625 -2.34375 1.65625 -9.375q0 -7.0625 -1.65625 -9.390625q-1.640625 -2.328125 -4.109375 -2.328125q-2.421875 0 -3.859375 2.046875q-1.8125 2.625 -1.8125 9.671875zm29.734375 0q0 -5.078125 1.046875 -8.171875q1.046875 -3.09375 3.109375 -4.765625q2.0625 -1.6875 5.1875 -1.6875q2.296875 0 4.03125 0.9375q1.75 0.921875 2.875 2.671875q1.140625 1.734375 1.78125 4.25q0.640625 2.515625 0.640625 6.765625q0 5.046875 -1.03125 8.140625q-1.03125 3.09375 -3.09375 4.78125q-2.0625 1.6875 -5.203125 1.6875q-4.140625 0 -6.5 -2.96875q-2.84375 -3.578125 -2.84375 -11.640625zm3.625 0q0 7.046875 1.640625 9.390625q1.65625 2.328125 4.078125 2.328125q2.421875 0 4.0625 -2.34375q1.65625 -2.34375 1.65625 -9.375q0 -7.0625 -1.65625 -9.390625q-1.640625 -2.328125 -4.109375 -2.328125q-2.421875 0 -3.859375 2.046875q-1.8125 2.625 -1.8125 9.671875zm42.984375 14.125l-3.515625 0l0 -22.40625q-1.265625 1.21875 -3.328125 2.4375q-2.0625 1.203125 -3.703125 1.796875l0 -3.390625q2.953125 -1.390625 5.15625 -3.359375q2.203125 -1.96875 3.125 -3.828125l2.265625 0l0 28.75zm20.109375 -14.125q0 -5.078125 1.046875 -8.171875q1.046875 -3.09375 3.109375 -4.765625q2.0625 -1.6875 5.1875 -1.6875q2.296875 0 4.03125 0.9375q1.75 0.921875 2.875 2.671875q1.140625 1.734375 1.78125 4.25q0.640625 2.515625 0.640625 6.765625q0 5.046875 -1.03125 8.140625q-1.03125 3.09375 -3.09375 4.78125q-2.0625 1.6875 -5.203125 1.6875q-4.140625 0 -6.5 -2.96875q-2.84375 -3.578125 -2.84375 -11.640625zm3.625 0q0 7.046875 1.640625 9.390625q1.65625 2.328125 4.078125 2.328125q2.421875 0 4.0625 -2.34375q1.65625 -2.34375 1.65625 -9.375q0 -7.0625 -1.65625 -9.390625q-1.640625 -2.328125 -4.109375 -2.328125q-2.421875 0 -3.859375 2.046875q-1.8125 2.625 -1.8125 9.671875zm29.734375 0q0 -5.078125 1.046875 -8.171875q1.046875 -3.09375 3.109375 -4.765625q2.0625 -1.6875 5.1875 -1.6875q2.296875 0 4.03125 0.9375q1.75 0.921875 2.875 2.671875q1.140625 1.734375 1.78125 4.25q0.640625 2.515625 0.640625 6.765625q0 5.046875 -1.03125 8.140625q-1.03125 3.09375 -3.09375 4.78125q-2.0625 1.6875 -5.203125 1.6875q-4.140625 0 -6.5 -2.96875q-2.84375 -3.578125 -2.84375 -11.640625zm3.625 0q0 7.046875 1.640625 9.390625q1.65625 2.328125 4.078125 2.328125q2.421875 0 4.0625 -2.34375q1.65625 -2.34375 1.65625 -9.375q0 -7.0625 -1.65625 -9.390625q-1.640625 -2.328125 -4.109375 -2.328125q-2.421875 0 -3.859375 2.046875q-1.8125 2.625 -1.8125 9.671875zm42.984375 14.125l-3.515625 0l0 -22.40625q-1.265625 1.21875 -3.328125 2.4375q-2.0625 1.203125 -3.703125 1.796875l0 -3.390625q2.953125 -1.390625 5.15625 -3.359375q2.203125 -1.96875 3.125 -3.828125l2.265625 0l0 28.75zm33.359375 0l-3.515625 0l0 -22.40625q-1.265625 1.21875 -3.328125 2.4375q-2.0625 1.203125 -3.703125 1.796875l0 -3.390625q2.953125 -1.390625 5.15625 -3.359375q2.203125 -1.96875 3.125 -3.828125l2.265625 0l0 28.75zm33.359375 0l-3.515625 0l0 -22.40625q-1.265625 1.21875 -3.328125 2.4375q-2.0625 1.203125 -3.703125 1.796875l0 -3.390625q2.953125 -1.390625 5.15625 -3.359375q2.203125 -1.96875 3.125 -3.828125l2.265625 0l0 28.75zm20.109375 -14.125q0 -5.078125 1.046875 -8.171875q1.046875 -3.09375 3.109375 -4.765625q2.0625 -1.6875 5.1875 -1.6875q2.296875 0 4.03125 0.9375q1.75 0.921875 2.875 2.671875q1.140625 1.734375 1.78125 4.25q0.640625 2.515625 0.640625 6.765625q0 5.046875 -1.03125 8.140625q-1.03125 3.09375 -3.09375 4.78125q-2.0625 1.6875 -5.203125 1.6875q-4.140625 0 -6.5 -2.96875q-2.84375 -3.578125 -2.84375 -11.640625zm3.625 0q0 7.046875 1.640625 9.390625q1.65625 2.328125 4.078125 2.328125q2.421875 0 4.0625 -2.34375q1.65625 -2.34375 1.65625 -9.375q0 -7.0625 -1.65625 -9.390625q-1.640625 -2.328125 -4.109375 -2.328125q-2.421875 0 -3.859375 2.046875q-1.8125 2.625 -1.8125 9.671875zm29.734375 0q0 -5.078125 1.046875 -8.171875q1.046875 -3.09375 3.109375 -4.765625q2.0625 -1.6875 5.1875 -1.6875q2.296875 0 4.03125 0.9375q1.75 0.921875 2.875 2.671875q1.140625 1.734375 1.78125 4.25q0.640625 2.515625 0.640625 6.765625q0 5.046875 -1.03125 8.140625q-1.03125 3.09375 -3.09375 4.78125q-2.0625 1.6875 -5.203125 1.6875q-4.140625 0 -6.5 -2.96875q-2.84375 -3.578125 -2.84375 -11.640625zm3.625 0q0 7.046875 1.640625 9.390625q1.65625 2.328125 4.078125 2.328125q2.421875 0 4.0625 -2.34375q1.65625 -2.34375 1.65625 -9.375q0 -7.0625 -1.65625 -9.390625q-1.640625 -2.328125 -4.109375 -2.328125q-2.421875 0 -3.859375 2.046875q-1.8125 2.625 -1.8125 9.671875zm42.984375 14.125l-3.515625 0l0 -22.40625q-1.265625 1.21875 -3.328125 2.4375q-2.0625 1.203125 -3.703125 1.796875l0 -3.390625q2.953125 -1.390625 5.15625 -3.359375q2.203125 -1.96875 3.125 -3.828125l2.265625 0l0 28.75zm20.109375 -14.125q0 -5.078125 1.046875 -8.171875q1.046875 -3.09375 3.109375 -4.765625q2.0625 -1.6875 5.1875 -1.6875q2.296875 0 4.03125 0.9375q1.75 0.921875 2.875 2.671875q1.140625 1.734375 1.78125 4.25q0.640625 2.515625 0.640625 6.765625q0 5.046875 -1.03125 8.140625q-1.03125 3.09375 -3.09375 4.78125q-2.0625 1.6875 -5.203125 1.6875q-4.140625 0 -6.5 -2.96875q-2.84375 -3.578125 -2.84375 -11.640625zm3.625 0q0 7.046875 1.640625 9.390625q1.65625 2.328125 4.078125 2.328125q2.421875 0 4.0625 -2.34375q1.65625 -2.34375 1.65625 -9.375q0 -7.0625 -1.65625 -9.390625q-1.640625 -2.328125 -4.109375 -2.328125q-2.421875 0 -3.859375 2.046875q-1.8125 2.625 -1.8125 9.671875zm29.734375 0q0 -5.078125 1.046875 -8.171875q1.046875 -3.09375 3.109375 -4.765625q2.0625 -1.6875 5.1875 -1.6875q2.296875 0 4.03125 0.9375q1.75 0.921875 2.875 2.671875q1.140625 1.734375 1.78125 4.25q0.640625 2.515625 0.640625 6.765625q0 5.046875 -1.03125 8.140625q-1.03125 3.09375 -3.09375 4.78125q-2.0625 1.6875 -5.203125 1.6875q-4.140625 0 -6.5 -2.96875q-2.84375 -3.578125 -2.84375 -11.640625zm3.625 0q0 7.046875 1.640625 9.390625q1.65625 2.328125 4.078125 2.328125q2.421875 0 4.0625 -2.34375q1.65625 -2.34375 1.65625 -9.375q0 -7.0625 -1.65625 -9.390625q-1.640625 -2.328125 -4.109375 -2.328125q-2.421875 0 -3.859375 2.046875q-1.8125 2.625 -1.8125 9.671875z" fill-rule="nonzero"></path><path fill="#4fc3f7" d="m55.375328 438.05447l566.92914 0l0 64.0l-566.92914 0z" fill-rule="evenodd"></path><path fill="#cc0000" d="m77.52154 448.24353l22.246094 0l0 45.996094l-22.246094 0l0 -45.996094z" fill-rule="nonzero"></path><path fill="#ffffff" d="m92.42779 484.45447l-3.515625 0l0 -22.40625q-1.265625 1.21875 -3.328125 2.4375q-2.0625 1.203125 -3.703125 1.796875l0 -3.390625q2.953125 -1.390625 5.15625 -3.359375q2.203125 -1.96875 3.125 -3.828125l2.265625 0l0 28.75z" fill-rule="nonzero"></path><path fill="#38761d" d="m110.88091 448.24353l22.246101 0l0 45.996094l-22.246101 0l0 -45.996094z" fill-rule="nonzero"></path><path fill="#ffffff" d="m125.78716 484.45447l-3.515625 0l0 -22.40625q-1.265625 1.21875 -3.328125 2.4375q-2.0625 1.203125 -3.703125 1.796875l0 -3.390625q2.953125 -1.390625 5.15625 -3.359375q2.203125 -1.96875 3.125 -3.828125l2.265625 0l0 28.75z" fill-rule="nonzero"></path><path fill="#38761d" d="m144.2403 448.24353l22.246094 0l0 45.996094l-22.246094 0l0 -45.996094z" fill-rule="nonzero"></path><path fill="#ffffff" d="m145.9278 476.89197l3.515625 -0.46875q0.59375 2.984375 2.046875 4.3125q1.46875 1.3125 3.546875 1.3125q2.484375 0 4.1875 -1.71875q1.71875 -1.71875 1.71875 -4.25q0 -2.421875 -1.59375 -4.0q-1.578125 -1.578125 -4.015625 -1.578125q-1.0 0 -2.484375 0.390625l0.390625 -3.078125q0.359375 0.03125 0.578125 0.03125q2.234375 0 4.03125 -1.171875q1.796875 -1.171875 1.796875 -3.609375q0 -1.9375 -1.3125 -3.203125q-1.296875 -1.265625 -3.375 -1.265625q-2.046875 0 -3.421875 1.296875q-1.359375 1.28125 -1.75 3.859375l-3.515625 -0.625q0.640625 -3.53125 2.921875 -5.46875q2.296875 -1.953125 5.6875 -1.953125q2.34375 0 4.3125 1.015625q1.984375 1.0 3.03125 2.734375q1.046875 1.734375 1.046875 3.6875q0 1.859375 -1.0 3.390625q-1.0 1.515625 -2.953125 2.40625q2.546875 0.59375 3.953125 2.4375q1.40625 1.84375 1.40625 4.625q0 3.75 -2.734375 6.359375q-2.734375 2.609375 -6.921875 2.609375q-3.765625 0 -6.265625 -2.25q-2.484375 -2.25 -2.828125 -5.828125z" fill-rule="nonzero"></path><path fill="#cc0000" d="m177.59967 448.24353l22.246094 0l0 45.996094l-22.246094 0l0 -45.996094z" fill-rule="nonzero"></path><path fill="#ffffff" d="m192.50592 484.45447l-3.515625 0l0 -22.40625q-1.265625 1.21875 -3.328125 2.4375q-2.0625 1.203125 -3.703125 1.796875l0 -3.390625q2.953125 -1.390625 5.15625 -3.359375q2.203125 -1.96875 3.125 -3.828125l2.265625 0l0 28.75z" fill-rule="nonzero"></path><path fill="#38761d" d="m210.95905 448.24353l22.246094 0l0 45.996094l-22.246094 0l0 -45.996094z" fill-rule="nonzero"></path><path fill="#ffffff" d="m225.8653 484.45447l-3.515625 0l0 -22.40625q-1.265625 1.21875 -3.328125 2.4375q-2.0625 1.203125 -3.703125 1.796875l0 -3.390625q2.953125 -1.390625 5.15625 -3.359375q2.203125 -1.96875 3.125 -3.828125l2.265625 0l0 28.75z" fill-rule="nonzero"></path><path fill="#cc0000" d="m244.31842 448.24353l22.246094 0l0 45.996094l-22.246094 0l0 -45.996094z" fill-rule="nonzero"></path><path fill="#ffffff" d="m259.22467 484.45447l-3.515625 0l0 -22.40625q-1.265625 1.21875 -3.328125 2.4375q-2.0625 1.203125 -3.703125 1.796875l0 -3.390625q2.953125 -1.390625 5.15625 -3.359375q2.203125 -1.96875 3.125 -3.828125l2.265625 0l0 28.75z" fill-rule="nonzero"></path><path fill="#cc0000" d="m277.6778 448.24353l22.246094 0l0 45.996094l-22.246094 0l0 -45.996094z" fill-rule="nonzero"></path><path fill="#ffffff" d="m279.3653 476.89197l3.515625 -0.46875q0.59375 2.984375 2.046875 4.3125q1.46875 1.3125 3.546875 1.3125q2.484375 0 4.1875 -1.71875q1.71875 -1.71875 1.71875 -4.25q0 -2.421875 -1.59375 -4.0q-1.578125 -1.578125 -4.015625 -1.578125q-1.0 0 -2.484375 0.390625l0.390625 -3.078125q0.359375 0.03125 0.578125 0.03125q2.234375 0 4.03125 -1.171875q1.796875 -1.171875 1.796875 -3.609375q0 -1.9375 -1.3125 -3.203125q-1.296875 -1.265625 -3.375 -1.265625q-2.046875 0 -3.421875 1.296875q-1.359375 1.28125 -1.75 3.859375l-3.515625 -0.625q0.640625 -3.53125 2.921875 -5.46875q2.296875 -1.953125 5.6875 -1.953125q2.34375 0 4.3125 1.015625q1.984375 1.0 3.03125 2.734375q1.046875 1.734375 1.046875 3.6875q0 1.859375 -1.0 3.390625q-1.0 1.515625 -2.953125 2.40625q2.546875 0.59375 3.953125 2.4375q1.40625 1.84375 1.40625 4.625q0 3.75 -2.734375 6.359375q-2.734375 2.609375 -6.921875 2.609375q-3.765625 0 -6.265625 -2.25q-2.484375 -2.25 -2.828125 -5.828125z" fill-rule="nonzero"></path><path fill="#cc0000" d="m311.03717 448.24353l22.246094 0l0 45.996094l-22.246094 0l0 -45.996094z" fill-rule="nonzero"></path><path fill="#ffffff" d="m325.94342 484.45447l-3.515625 0l0 -22.40625q-1.265625 1.21875 -3.328125 2.4375q-2.0625 1.203125 -3.703125 1.796875l0 -3.390625q2.953125 -1.390625 5.15625 -3.359375q2.203125 -1.96875 3.125 -3.828125l2.265625 0l0 28.75z" fill-rule="nonzero"></path><path fill="#cc0000" d="m344.39655 448.24353l22.246094 0l0 45.996094l-22.246094 0l0 -45.996094z" fill-rule="nonzero"></path><path fill="#ffffff" d="m359.3028 484.45447l-3.515625 0l0 -22.40625q-1.265625 1.21875 -3.328125 2.4375q-2.0625 1.203125 -3.703125 1.796875l0 -3.390625q2.953125 -1.390625 5.15625 -3.359375q2.203125 -1.96875 3.125 -3.828125l2.265625 0l0 28.75z" fill-rule="nonzero"></path><path fill="#38761d" d="m377.75592 448.24353l22.246094 0l0 45.996094l-22.246094 0l0 -45.996094z" fill-rule="nonzero"></path><path fill="#ffffff" d="m392.66217 484.45447l-3.515625 0l0 -22.40625q-1.265625 1.21875 -3.328125 2.4375q-2.0625 1.203125 -3.703125 1.796875l0 -3.390625q2.953125 -1.390625 5.15625 -3.359375q2.203125 -1.96875 3.125 -3.828125l2.265625 0l0 28.75z" fill-rule="nonzero"></path><path fill="#38761d" d="m411.1153 448.24353l22.246094 0l0 45.996094l-22.246094 0l0 -45.996094z" fill-rule="nonzero"></path><path fill="#ffffff" d="m412.8028 476.89197l3.515625 -0.46875q0.59375 2.984375 2.046875 4.3125q1.46875 1.3125 3.546875 1.3125q2.484375 0 4.1875 -1.71875q1.71875 -1.71875 1.71875 -4.25q0 -2.421875 -1.59375 -4.0q-1.578125 -1.578125 -4.015625 -1.578125q-1.0 0 -2.484375 0.390625l0.390625 -3.078125q0.359375 0.03125 0.578125 0.03125q2.234375 0 4.03125 -1.171875q1.796875 -1.171875 1.796875 -3.609375q0 -1.9375 -1.3125 -3.203125q-1.296875 -1.265625 -3.375 -1.265625q-2.046875 0 -3.421875 1.296875q-1.359375 1.28125 -1.75 3.859375l-3.515625 -0.625q0.640625 -3.53125 2.921875 -5.46875q2.296875 -1.953125 5.6875 -1.953125q2.34375 0 4.3125 1.015625q1.984375 1.0 3.03125 2.734375q1.046875 1.734375 1.046875 3.6875q0 1.859375 -1.0 3.390625q-1.0 1.515625 -2.953125 2.40625q2.546875 0.59375 3.953125 2.4375q1.40625 1.84375 1.40625 4.625q0 3.75 -2.734375 6.359375q-2.734375 2.609375 -6.921875 2.609375q-3.765625 0 -6.265625 -2.25q-2.484375 -2.25 -2.828125 -5.828125z" fill-rule="nonzero"></path><path fill="#cc0000" d="m444.47467 448.24353l22.246094 0l0 45.996094l-22.246094 0l0 -45.996094z" fill-rule="nonzero"></path><path fill="#ffffff" d="m459.38092 484.45447l-3.515625 0l0 -22.40625q-1.265625 1.21875 -3.328125 2.4375q-2.0625 1.203125 -3.703125 1.796875l0 -3.390625q2.953125 -1.390625 5.15625 -3.359375q2.203125 -1.96875 3.125 -3.828125l2.265625 0l0 28.75z" fill-rule="nonzero"></path><path fill="#38761d" d="m477.83405 448.24353l22.246094 0l0 45.996094l-22.246094 0l0 -45.996094z" fill-rule="nonzero"></path><path fill="#ffffff" d="m492.7403 484.45447l-3.515625 0l0 -22.40625q-1.265625 1.21875 -3.328125 2.4375q-2.0625 1.203125 -3.703125 1.796875l0 -3.390625q2.953125 -1.390625 5.15625 -3.359375q2.203125 -1.96875 3.125 -3.828125l2.265625 0l0 28.75z" fill-rule="nonzero"></path><path fill="#cc0000" d="m511.19342 448.24353l22.246094 0l0 45.996094l-22.246094 0l0 -45.996094z" fill-rule="nonzero"></path><path fill="#ffffff" d="m526.0997 484.45447l-3.515625 0l0 -22.40625q-1.265625 1.21875 -3.328125 2.4375q-2.0625 1.203125 -3.703125 1.796875l0 -3.390625q2.953125 -1.390625 5.15625 -3.359375q2.203125 -1.96875 3.125 -3.828125l2.265625 0l0 28.75z" fill-rule="nonzero"></path><path fill="#cc0000" d="m544.5528 448.24353l22.246094 0l0 45.996094l-22.246094 0l0 -45.996094z" fill-rule="nonzero"></path><path fill="#ffffff" d="m546.2403 476.89197l3.515625 -0.46875q0.59375 2.984375 2.046875 4.3125q1.46875 1.3125 3.546875 1.3125q2.484375 0 4.1875 -1.71875q1.71875 -1.71875 1.71875 -4.25q0 -2.421875 -1.59375 -4.0q-1.578125 -1.578125 -4.015625 -1.578125q-1.0 0 -2.484375 0.390625l0.390625 -3.078125q0.359375 0.03125 0.578125 0.03125q2.234375 0 4.03125 -1.171875q1.796875 -1.171875 1.796875 -3.609375q0 -1.9375 -1.3125 -3.203125q-1.296875 -1.265625 -3.375 -1.265625q-2.046875 0 -3.421875 1.296875q-1.359375 1.28125 -1.75 3.859375l-3.515625 -0.625q0.640625 -3.53125 2.921875 -5.46875q2.296875 -1.953125 5.6875 -1.953125q2.34375 0 4.3125 1.015625q1.984375 1.0 3.03125 2.734375q1.046875 1.734375 1.046875 3.6875q0 1.859375 -1.0 3.390625q-1.0 1.515625 -2.953125 2.40625q2.546875 0.59375 3.953125 2.4375q1.40625 1.84375 1.40625 4.625q0 3.75 -2.734375 6.359375q-2.734375 2.609375 -6.921875 2.609375q-3.765625 0 -6.265625 -2.25q-2.484375 -2.25 -2.828125 -5.828125z" fill-rule="nonzero"></path><path fill="#cc0000" d="m577.9122 448.24353l22.246094 0l0 45.996094l-22.246094 0l0 -45.996094z" fill-rule="nonzero"></path><path fill="#ffffff" d="m592.8184 484.45447l-3.515625 0l0 -22.40625q-1.265625 1.21875 -3.328125 2.4375q-2.0625 1.203125 -3.703125 1.796875l0 -3.390625q2.953125 -1.390625 5.15625 -3.359375q2.203125 -1.96875 3.125 -3.828125l2.265625 0l0 28.75z" fill-rule="nonzero"></path><path fill="#000000" fill-opacity="0.0" d="m629.31494 393.5c32.84137 0 59.4646 -4.4370117 59.4646 -9.91037l0 -96.92093c0 -5.473358 26.623169 -9.91037 59.46454 -9.91037l0 0c-32.84137 0 -59.46454 -4.4370117 -59.46454 -9.91037l0 -100.41397l0 0c0 -5.473343 -26.62323 -9.91037 -59.4646 -9.91037z" fill-rule="evenodd"></path><path fill="#000000" fill-opacity="0.0" d="m629.31494 393.5c32.84137 0 59.4646 -4.4370117 59.4646 -9.91037l0 -96.92093c0 -5.473358 26.623169 -9.91037 59.46454 -9.91037l0 0c-32.84137 0 -59.46454 -4.4370117 -59.46454 -9.91037l0 -100.41397l0 0c0 -5.473343 -26.62323 -9.91037 -59.4646 -9.91037" fill-rule="evenodd"></path><path stroke="#000000" stroke-width="8.0" stroke-linejoin="round" stroke-linecap="butt" d="m629.31494 393.5c32.84137 0 59.4646 -4.4370117 59.4646 -9.91037l0 -96.92093c0 -5.473358 26.623169 -9.91037 59.46454 -9.91037l0 0c-32.84137 0 -59.46454 -4.4370117 -59.46454 -9.91037l0 -100.41397l0 0c0 -5.473343 -26.62323 -9.91037 -59.4646 -9.91037" fill-rule="evenodd"></path><path fill="#000000" fill-opacity="0.0" d="m629.31494 491.87292c32.84137 0 59.4646 -1.638031 59.4646 -3.6586304l0 -14.31189c0 -2.0205994 26.623169 -3.6586304 59.46454 -3.6586304l0 0c-32.84137 0 -59.46454 -1.638031 -59.46454 -3.658661l0 -14.959045l0 0c0 -0.9703369 -6.2650146 -1.9009094 -17.41681 -2.5870667c-11.151733 -0.6861267 -26.276794 -1.0715942 -42.04779 -1.0715942z" fill-rule="evenodd"></path><path fill="#000000" fill-opacity="0.0" d="m629.31494 491.87292c32.84137 0 59.4646 -1.638031 59.4646 -3.6586304l0 -14.31189c0 -2.0205994 26.623169 -3.6586304 59.46454 -3.6586304l0 0c-32.84137 0 -59.46454 -1.638031 -59.46454 -3.658661l0 -14.959045l0 0c0 -0.9703369 -6.2650146 -1.9009094 -17.41681 -2.5870667c-11.151733 -0.6861267 -26.276794 -1.0715942 -42.04779 -1.0715942" fill-rule="evenodd"></path><path stroke="#000000" stroke-width="8.0" stroke-linejoin="round" stroke-linecap="butt" d="m629.31494 491.87292c32.84137 0 59.4646 -1.638031 59.4646 -3.6586304l0 -14.31189c0 -2.0205994 26.623169 -3.6586304 59.46454 -3.6586304l0 0c-32.84137 0 -59.46454 -1.638031 -59.46454 -3.658661l0 -14.959045l0 0c0 -0.9703369 -6.2650146 -1.9009094 -17.41681 -2.5870667c-11.151733 -0.6861267 -26.276794 -1.0715942 -42.04779 -1.0715942" fill-rule="evenodd"></path><path fill="#000000" fill-opacity="0.0" d="m629.31494 590.2472c32.84137 0 59.4646 -1.6380615 59.4646 -3.6586304l0 -14.31189c0 -2.02063 26.623169 -3.6586914 59.46454 -3.6586914l0 0c-32.84137 0 -59.46454 -1.6380005 -59.46454 -3.6586304l0 -14.959045l0 0c0 -0.9703369 -6.2650146 -1.90094 -17.41681 -2.5870361c-11.151733 -0.6861572 -26.276794 -1.0715942 -42.04779 -1.0715942z" fill-rule="evenodd"></path><path fill="#000000" fill-opacity="0.0" d="m629.31494 590.2472c32.84137 0 59.4646 -1.6380615 59.4646 -3.6586304l0 -14.31189c0 -2.02063 26.623169 -3.6586914 59.46454 -3.6586914l0 0c-32.84137 0 -59.46454 -1.6380005 -59.46454 -3.6586304l0 -14.959045l0 0c0 -0.9703369 -6.2650146 -1.90094 -17.41681 -2.5870361c-11.151733 -0.6861572 -26.276794 -1.0715942 -42.04779 -1.0715942" fill-rule="evenodd"></path><path stroke="#000000" stroke-width="8.0" stroke-linejoin="round" stroke-linecap="butt" d="m629.31494 590.2472c32.84137 0 59.4646 -1.6380615 59.4646 -3.6586304l0 -14.31189c0 -2.02063 26.623169 -3.6586914 59.46454 -3.6586914l0 0c-32.84137 0 -59.46454 -1.6380005 -59.46454 -3.6586304l0 -14.959045l0 0c0 -0.9703369 -6.2650146 -1.90094 -17.41681 -2.5870361c-11.151733 -0.6861572 -26.276794 -1.0715942 -42.04779 -1.0715942" fill-rule="evenodd"></path><path fill="#4fc3f7" d="m769.26904 249.33359l0 0c0 -7.0914154 5.7487183 -12.840149 12.840149 -12.840149l133.65826 0c3.4053955 0 6.6713867 1.3527985 9.079346 3.760788c2.40802 2.4080048 3.7608032 5.67395 3.7608032 9.079361l0 51.35907c0 7.0914307 -5.7487183 12.840149 -12.840149 12.840149l-133.65826 0l0 0c-7.0914307 0 -12.840149 -5.7487183 -12.840149 -12.840149z" fill-rule="evenodd"></path><path fill="#ffffff" d="m794.7573 253.4175l7.8125 0l0 1.015625l-3.390625 0l0 11.51564l3.390625 0l0 0.984375l-7.8125 0l0 -0.984375l3.28125 0l0 -11.51564l-3.28125 0l0 -1.015625zm12.211182 3.4843903l0.078125 1.875q0.53125 -0.9375 1.40625 -1.5q0.890625 -0.5625 2.015625 -0.5625q1.640625 0 2.515625 0.984375q0.875 0.984375 0.890625 2.8125l0 6.421875l-1.125 0l0 -6.40625q0 -1.390625 -0.625 -2.125q-0.625 -0.734375 -1.921875 -0.734375q-0.546875 0 -1.03125 0.1875q-0.484375 0.171875 -0.890625 0.484375q-0.40625 0.296875 -0.71875 0.71875q-0.3125 0.421875 -0.5 0.90625l0 6.96875l-1.109375 0l0 -10.03125l1.015625 0zm18.289368 5.109375q0 0.984375 -0.234375 1.90625q-0.234375 0.921875 -0.71875 1.640625q-0.484375 0.703125 -1.234375 1.140625q-0.734375 0.421875 -1.765625 0.421875q-0.9375 0 -1.71875 -0.359375q-0.78125 -0.359375 -1.296875 -1.046875l0 5.078125l-1.125 0l0 -13.890625l1.046875 0l0.046875 1.359375q0.53125 -0.734375 1.296875 -1.140625q0.765625 -0.40625 1.734375 -0.40625q1.03125 0 1.78125 0.421875q0.75 0.421875 1.234375 1.140625q0.484375 0.703125 0.71875 1.625q0.234375 0.921875 0.234375 1.921875l0 0.1875zm-1.109375 -0.1875q0 -0.75 -0.171875 -1.484375q-0.15625 -0.75 -0.53125 -1.34375q-0.375 -0.59375 -0.96875 -0.953125q-0.578125 -0.375 -1.4375 -0.375q-0.484375 0 -0.90625 0.140625q-0.421875 0.140625 -0.765625 0.390625q-0.34375 0.234375 -0.625 0.578125q-0.265625 0.328125 -0.453125 0.75l0 4.96875q0.390625 0.78125 1.109375 1.234375q0.71875 0.453125 1.65625 0.453125q0.84375 0 1.4375 -0.375q0.59375 -0.375 0.953125 -0.953125q0.375 -0.59375 0.53125 -1.34375q0.171875 -0.75 0.171875 -1.5l0 -0.1875zm10.929932 3.546875q-0.5 0.8125 -1.328125 1.28125q-0.8125 0.46875 -1.9375 0.46875q-0.84375 0 -1.484375 -0.265625q-0.625 -0.28125 -1.0625 -0.796875q-0.421875 -0.515625 -0.65625 -1.265625q-0.21875 -0.75 -0.21875 -1.71875l0 -6.171875l1.09375 0l0 6.1875q0.015625 1.515625 0.609375 2.296875q0.59375 0.78125 1.84375 0.78125q1.25 0 2.03125 -0.578125q0.78125 -0.578125 1.078125 -1.5625l0 -7.125l1.125 0l0 10.03125l-1.046875 0l-0.046875 -1.5625zm8.164307 -11.04689l0 2.5781403l3.71875 0l0 0.90625l-3.71875 0l0 6.3125q0 0.578125 0.171875 0.96875q0.171875 0.390625 0.453125 0.625q0.296875 0.234375 0.6875 0.34375q0.40625 0.09375 0.875 0.09375q0.453125 0 0.9375 -0.0625q0.5 -0.0625 0.84375 -0.125l0.15625 0.84375q-0.390625 0.15625 -0.96875 0.234375q-0.578125 0.078125 -1.171875 0.078125q-0.671875 0 -1.234375 -0.171875q-0.5625 -0.15625 -0.984375 -0.515625q-0.40625 -0.359375 -0.65625 -0.921875q-0.234375 -0.578125 -0.25 -1.40625l0 -6.296875l-2.796875 0l0 -0.90625l2.796875 0l0 -2.5781403l1.140625 0zm26.81305 12.60939l-1.046875 0l0 -6.46875l-6.34375 0l0 6.46875l-1.0625 0l0 -13.51564l1.0625 0l0 6.0781403l6.34375 0l0 -6.0781403l1.046875 0l0 13.51564zm9.961182 0q-0.09375 -0.3125 -0.15625 -0.6875q-0.046875 -0.375 -0.0625 -0.765625q-0.296875 0.359375 -0.6875 0.65625q-0.375 0.296875 -0.828125 0.515625q-0.4375 0.21875 -0.96875 0.34375q-0.515625 0.125 -1.078125 0.125q-0.703125 0 -1.3125 -0.203125q-0.609375 -0.203125 -1.0625 -0.578125q-0.4375 -0.375 -0.703125 -0.890625q-0.25 -0.53125 -0.25 -1.171875q0 -0.875 0.375 -1.46875q0.390625 -0.609375 1.03125 -0.984375q0.65625 -0.375 1.5 -0.546875q0.859375 -0.171875 1.796875 -0.171875l2.171875 0l0 -1.15625q-0.015625 -0.5625 -0.234375 -0.984375q-0.203125 -0.4375 -0.578125 -0.71875q-0.359375 -0.296875 -0.875 -0.4375q-0.5 -0.15625 -1.09375 -0.15625q-0.53125 0 -1.015625 0.140625q-0.484375 0.125 -0.859375 0.390625q-0.375 0.265625 -0.609375 0.640625q-0.234375 0.375 -0.25 0.84375l-1.125 -0.015625q0.03125 -0.625 0.34375 -1.15625q0.3125 -0.546875 0.84375 -0.9375q0.53125 -0.40625 1.21875 -0.625q0.703125 -0.21875 1.5 -0.21875q0.796875 0 1.5 0.203125q0.703125 0.203125 1.21875 0.609375q0.515625 0.40625 0.8125 1.015625q0.3125 0.609375 0.3125 1.4375l0 4.859375q0 0.5 0.078125 1.015625q0.09375 0.5 0.234375 0.96875l0 0.109375l-1.1875 0zm-3.65625 -0.796875q0.578125 0.015625 1.109375 -0.125q0.546875 -0.15625 0.984375 -0.421875q0.453125 -0.265625 0.78125 -0.625q0.34375 -0.375 0.546875 -0.8125l0 -2.203125l-2.03125 0q-0.71875 0 -1.40625 0.109375q-0.671875 0.109375 -1.203125 0.375q-0.515625 0.25 -0.828125 0.6875q-0.296875 0.421875 -0.296875 1.0625q0 0.453125 0.171875 0.8125q0.1875 0.359375 0.5 0.625q0.328125 0.25 0.75 0.390625q0.421875 0.125 0.921875 0.125zm14.961182 -1.75q0 -0.46875 -0.234375 -0.8125q-0.234375 -0.34375 -0.640625 -0.578125q-0.390625 -0.25 -0.921875 -0.421875q-0.53125 -0.171875 -1.125 -0.28125q-0.71875 -0.15625 -1.40625 -0.359375q-0.671875 -0.21875 -1.203125 -0.53125q-0.53125 -0.328125 -0.84375 -0.796875q-0.3125 -0.46875 -0.3125 -1.15625q0 -0.65625 0.3125 -1.15625q0.328125 -0.515625 0.859375 -0.859375q0.53125 -0.359375 1.203125 -0.53125q0.6875 -0.1875 1.390625 -0.1875q0.828125 0 1.53125 0.203125q0.71875 0.1875 1.25 0.578125q0.53125 0.375 0.84375 0.9375q0.3125 0.5625 0.34375 1.265625l-1.109375 0q-0.015625 -0.46875 -0.265625 -0.859375q-0.234375 -0.390625 -0.640625 -0.640625q-0.390625 -0.265625 -0.90625 -0.40625q-0.5 -0.140625 -1.046875 -0.140625q-0.5 0 -0.984375 0.109375q-0.46875 0.109375 -0.84375 0.328125q-0.375 0.21875 -0.609375 0.546875q-0.21875 0.328125 -0.21875 0.765625q-0.015625 0.484375 0.21875 0.8125q0.234375 0.3125 0.609375 0.53125q0.390625 0.21875 0.921875 0.359375q0.53125 0.140625 1.125 0.265625q0.75 0.15625 1.4375 0.390625q0.703125 0.21875 1.21875 0.5625q0.53125 0.328125 0.84375 0.828125q0.3125 0.484375 0.3125 1.171875q0 0.703125 -0.34375 1.234375q-0.34375 0.515625 -0.890625 0.875q-0.546875 0.34375 -1.265625 0.515625q-0.703125 0.171875 -1.453125 0.171875q-0.84375 0 -1.59375 -0.203125q-0.75 -0.203125 -1.328125 -0.59375q-0.5625 -0.390625 -0.90625 -0.9375q-0.34375 -0.5625 -0.375 -1.265625l1.109375 0q0.0625 0.59375 0.359375 1.0q0.3125 0.390625 0.75 0.625q0.4375 0.234375 0.953125 0.34375q0.53125 0.09375 1.03125 0.09375q0.5 0 1.0 -0.109375q0.515625 -0.109375 0.921875 -0.328125q0.40625 -0.21875 0.65625 -0.546875q0.25 -0.34375 0.265625 -0.8125zm5.3049316 -5.546875q0.53125 -0.96875 1.40625 -1.546875q0.890625 -0.578125 2.015625 -0.578125q0.828125 0 1.453125 0.25q0.640625 0.25 1.0625 0.75q0.4375 0.484375 0.65625 1.203125q0.234375 0.703125 0.234375 1.609375l0 6.40625l-1.109375 0l0 -6.40625q0 -0.671875 -0.15625 -1.203125q-0.15625 -0.53125 -0.484375 -0.890625q-0.3125 -0.375 -0.796875 -0.5625q-0.484375 -0.203125 -1.125 -0.203125q-0.53125 0 -1.015625 0.171875q-0.484375 0.171875 -0.890625 0.46875q-0.40625 0.296875 -0.734375 0.703125q-0.3125 0.390625 -0.515625 0.875l0 7.046875l-1.109375 0l0 -14.250015l1.109375 0l0 6.1562653z" fill-rule="nonzero"></path><path fill="#ffffff" d="m811.3945 292.93314l0 -13.515625l3.265625 0q1.296875 0.03125 2.3125 0.53125q1.03125 0.484375 1.734375 1.3125q0.703125 0.8125 1.078125 1.921875q0.375 1.09375 0.390625 2.34375l0 1.3125q-0.015625 1.25 -0.390625 2.359375q-0.375 1.09375 -1.078125 1.921875q-0.703125 0.8125 -1.734375 1.3125q-1.015625 0.484375 -2.3125 0.5l-3.265625 0zm1.109375 -12.5625l0 11.625l2.15625 0q1.09375 -0.015625 1.90625 -0.4375q0.828125 -0.4375 1.375 -1.140625q0.546875 -0.71875 0.828125 -1.640625q0.28125 -0.921875 0.296875 -1.9375l0 -1.34375q-0.015625 -1.0 -0.296875 -1.921875q-0.28125 -0.921875 -0.828125 -1.625q-0.546875 -0.703125 -1.375 -1.125q-0.8125 -0.4375 -1.90625 -0.453125l-2.15625 0zm10.492432 2.53125l4.65625 0l0 9.046875l3.421875 0l0 0.984375l-8.078125 0l0 -0.984375l3.546875 0l0 -8.0625l-3.546875 0l0 -0.984375zm3.21875 -2.75q0 -0.34375 0.1875 -0.59375q0.203125 -0.25 0.65625 -0.25q0.453125 0 0.640625 0.25q0.203125 0.25 0.203125 0.59375q0 0.328125 -0.203125 0.578125q-0.1875 0.234375 -0.640625 0.234375q-0.453125 0 -0.65625 -0.234375q-0.1875 -0.25 -0.1875 -0.578125zm7.3986816 7.671875q0 -1.0 0.234375 -1.921875q0.25 -0.921875 0.75 -1.625q0.5 -0.71875 1.234375 -1.140625q0.75 -0.421875 1.78125 -0.421875q0.953125 0 1.71875 0.421875q0.765625 0.40625 1.28125 1.15625l0.046875 -1.390625l1.046875 0l0 9.859375q-0.015625 0.921875 -0.296875 1.6875q-0.28125 0.765625 -0.8125 1.3125q-0.515625 0.5625 -1.265625 0.859375q-0.734375 0.3125 -1.65625 0.3125q-0.453125 0 -0.9375 -0.109375q-0.46875 -0.09375 -0.9375 -0.3125q-0.46875 -0.203125 -0.890625 -0.53125q-0.421875 -0.3125 -0.734375 -0.765625l0.625 -0.671875q1.1875 1.453125 2.796875 1.453125q0.71875 0 1.265625 -0.234375q0.5625 -0.234375 0.9375 -0.65625q0.375 -0.421875 0.578125 -1.015625q0.203125 -0.578125 0.203125 -1.28125l0 -1.140625q-0.53125 0.703125 -1.296875 1.078125q-0.75 0.375 -1.6875 0.375q-1.015625 0 -1.765625 -0.421875q-0.734375 -0.4375 -1.234375 -1.140625q-0.484375 -0.71875 -0.734375 -1.640625q-0.25 -0.921875 -0.25 -1.90625l0 -0.1875zm1.125 0.1875q0 0.75 0.15625 1.5q0.15625 0.734375 0.515625 1.328125q0.375 0.59375 0.953125 0.953125q0.59375 0.359375 1.4375 0.359375q0.46875 0 0.890625 -0.125q0.4375 -0.125 0.78125 -0.359375q0.359375 -0.234375 0.640625 -0.5625q0.28125 -0.328125 0.46875 -0.734375l0 -4.78125q-0.1875 -0.40625 -0.453125 -0.765625q-0.265625 -0.359375 -0.625 -0.609375q-0.34375 -0.25 -0.78125 -0.390625q-0.421875 -0.15625 -0.90625 -0.15625q-0.859375 0 -1.453125 0.375q-0.578125 0.359375 -0.953125 0.953125q-0.359375 0.59375 -0.515625 1.34375q-0.15625 0.734375 -0.15625 1.484375l0 0.1875zm14.679932 5.109375q-1.046875 0 -1.921875 -0.390625q-0.859375 -0.390625 -1.484375 -1.0625q-0.609375 -0.671875 -0.953125 -1.5625q-0.328125 -0.890625 -0.34375 -1.90625l0 -0.390625q0.015625 -1.078125 0.359375 -2.0q0.359375 -0.9375 0.953125 -1.625q0.609375 -0.6875 1.421875 -1.078125q0.8125 -0.390625 1.75 -0.390625q1.0 0 1.765625 0.359375q0.78125 0.359375 1.296875 0.984375q0.53125 0.625 0.796875 1.46875q0.28125 0.828125 0.296875 1.78125l0 0.6875l-7.515625 0l0 0.203125q0 0.796875 0.265625 1.515625q0.265625 0.71875 0.734375 1.265625q0.46875 0.546875 1.140625 0.875q0.671875 0.328125 1.484375 0.328125q0.921875 0 1.671875 -0.34375q0.75 -0.359375 1.28125 -1.015625l0.703125 0.515625q-0.265625 0.390625 -0.65625 0.734375q-0.375 0.328125 -0.84375 0.5625q-0.46875 0.21875 -1.03125 0.34375q-0.546875 0.140625 -1.171875 0.140625zm-0.21875 -9.46875q-0.671875 0 -1.25 0.265625q-0.5625 0.25 -0.984375 0.703125q-0.421875 0.453125 -0.703125 1.078125q-0.28125 0.609375 -0.375 1.34375l6.34375 0l0 -0.125q-0.015625 -0.625 -0.21875 -1.203125q-0.203125 -0.59375 -0.59375 -1.046875q-0.390625 -0.453125 -0.953125 -0.734375q-0.546875 -0.28125 -1.265625 -0.28125zm14.133118 6.734375q0 -0.46875 -0.234375 -0.8125q-0.234375 -0.34375 -0.640625 -0.578125q-0.390625 -0.25 -0.921875 -0.421875q-0.53125 -0.171875 -1.125 -0.28125q-0.71875 -0.15625 -1.40625 -0.359375q-0.671875 -0.21875 -1.203125 -0.53125q-0.53125 -0.328125 -0.84375 -0.796875q-0.3125 -0.46875 -0.3125 -1.15625q0 -0.65625 0.3125 -1.15625q0.328125 -0.515625 0.859375 -0.859375q0.53125 -0.359375 1.203125 -0.53125q0.6875 -0.1875 1.390625 -0.1875q0.828125 0 1.53125 0.203125q0.71875 0.1875 1.25 0.578125q0.53125 0.375 0.84375 0.9375q0.3125 0.5625 0.34375 1.265625l-1.109375 0q-0.015625 -0.46875 -0.265625 -0.859375q-0.234375 -0.390625 -0.640625 -0.640625q-0.390625 -0.265625 -0.90625 -0.40625q-0.5 -0.140625 -1.046875 -0.140625q-0.5 0 -0.984375 0.109375q-0.46875 0.109375 -0.84375 0.328125q-0.375 0.21875 -0.609375 0.546875q-0.21875 0.328125 -0.21875 0.765625q-0.015625 0.484375 0.21875 0.8125q0.234375 0.3125 0.609375 0.53125q0.390625 0.21875 0.921875 0.359375q0.53125 0.140625 1.125 0.265625q0.75 0.15625 1.4375 0.390625q0.703125 0.21875 1.21875 0.5625q0.53125 0.328125 0.84375 0.828125q0.3125 0.484375 0.3125 1.171875q0 0.703125 -0.34375 1.234375q-0.34375 0.515625 -0.890625 0.875q-0.546875 0.34375 -1.265625 0.515625q-0.703125 0.171875 -1.453125 0.171875q-0.84375 0 -1.59375 -0.203125q-0.75 -0.203125 -1.328125 -0.59375q-0.5625 -0.390625 -0.90625 -0.9375q-0.34375 -0.5625 -0.375 -1.265625l1.109375 0q0.0625 0.59375 0.359375 1.0q0.3125 0.390625 0.75 0.625q0.4375 0.234375 0.953125 0.34375q0.53125 0.09375 1.03125 0.09375q0.5 0 1.0 -0.109375q0.515625 -0.109375 0.921875 -0.328125q0.40625 -0.21875 0.65625 -0.546875q0.25 -0.34375 0.265625 -0.8125zm7.8986816 -10.0625l0 2.578125l3.71875 0l0 0.90625l-3.71875 0l0 6.3125q0 0.578125 0.171875 0.96875q0.171875 0.390625 0.453125 0.625q0.296875 0.234375 0.6875 0.34375q0.40625 0.09375 0.875 0.09375q0.453125 0 0.9375 -0.0625q0.5 -0.0625 0.84375 -0.125l0.15625 0.84375q-0.390625 0.15625 -0.96875 0.234375q-0.578125 0.078125 -1.171875 0.078125q-0.671875 0 -1.234375 -0.171875q-0.5625 -0.15625 -0.984375 -0.515625q-0.40625 -0.359375 -0.65625 -0.921875q-0.234375 -0.578125 -0.25 -1.40625l0 -6.296875l-2.796875 0l0 -0.90625l2.796875 0l0 -2.578125l1.140625 0zm14.492432 10.0625q0 -0.46875 -0.234375 -0.8125q-0.234375 -0.34375 -0.640625 -0.578125q-0.390625 -0.25 -0.921875 -0.421875q-0.53125 -0.171875 -1.125 -0.28125q-0.71875 -0.15625 -1.40625 -0.359375q-0.671875 -0.21875 -1.203125 -0.53125q-0.53125 -0.328125 -0.84375 -0.796875q-0.3125 -0.46875 -0.3125 -1.15625q0 -0.65625 0.3125 -1.15625q0.328125 -0.515625 0.859375 -0.859375q0.53125 -0.359375 1.203125 -0.53125q0.6875 -0.1875 1.390625 -0.1875q0.828125 0 1.53125 0.203125q0.71875 0.1875 1.25 0.578125q0.53125 0.375 0.84375 0.9375q0.3125 0.5625 0.34375 1.265625l-1.109375 0q-0.015625 -0.46875 -0.265625 -0.859375q-0.234375 -0.390625 -0.640625 -0.640625q-0.390625 -0.265625 -0.90625 -0.40625q-0.5 -0.140625 -1.046875 -0.140625q-0.5 0 -0.984375 0.109375q-0.46875 0.109375 -0.84375 0.328125q-0.375 0.21875 -0.609375 0.546875q-0.21875 0.328125 -0.21875 0.765625q-0.015625 0.484375 0.21875 0.8125q0.234375 0.3125 0.609375 0.53125q0.390625 0.21875 0.921875 0.359375q0.53125 0.140625 1.125 0.265625q0.75 0.15625 1.4375 0.390625q0.703125 0.21875 1.21875 0.5625q0.53125 0.328125 0.84375 0.828125q0.3125 0.484375 0.3125 1.171875q0 0.703125 -0.34375 1.234375q-0.34375 0.515625 -0.890625 0.875q-0.546875 0.34375 -1.265625 0.515625q-0.703125 0.171875 -1.453125 0.171875q-0.84375 0 -1.59375 -0.203125q-0.75 -0.203125 -1.328125 -0.59375q-0.5625 -0.390625 -0.90625 -0.9375q-0.34375 -0.5625 -0.375 -1.265625l1.109375 0q0.0625 0.59375 0.359375 1.0q0.3125 0.390625 0.75 0.625q0.4375 0.234375 0.953125 0.34375q0.53125 0.09375 1.03125 0.09375q0.5 0 1.0 -0.109375q0.515625 -0.109375 0.921875 -0.328125q0.40625 -0.21875 0.65625 -0.546875q0.25 -0.34375 0.265625 -0.8125z" fill-rule="nonzero"></path><path fill="#4fc3f7" d="m769.2677 542.1892l0 0c0 -7.0913696 5.7487183 -12.840149 12.840149 -12.840149l133.65833 0c3.4053955 0 6.6713257 1.3528442 9.079346 3.7608032c2.407959 2.40802 3.7608032 5.67395 3.7608032 9.079346l0 51.35907c0 7.0914307 -5.7487793 12.840149 -12.840149 12.840149l-133.65833 0l0 0c-7.0914307 0 -12.840149 -5.7487183 -12.840149 -12.840149z" fill-rule="evenodd"></path><path fill="#ffffff" d="m802.14667 556.46063q0 -0.46875 -0.15625 -0.84375q-0.140625 -0.375 -0.390625 -0.671875q-0.25 -0.296875 -0.59375 -0.515625q-0.328125 -0.234375 -0.71875 -0.40625q-0.375 -0.1875 -0.78125 -0.3125q-0.390625 -0.140625 -0.75 -0.265625q-0.484375 -0.15625 -0.96875 -0.328125q-0.484375 -0.1875 -0.953125 -0.421875q-0.453125 -0.234375 -0.859375 -0.53125q-0.40625 -0.3125 -0.703125 -0.6875q-0.296875 -0.375 -0.46875 -0.84375q-0.171875 -0.46875 -0.171875 -1.046875q0 -0.84375 0.375 -1.484375q0.375 -0.65625 0.96875 -1.09375q0.609375 -0.453125 1.359375 -0.671875q0.765625 -0.234375 1.53125 -0.234375q0.859375 0 1.640625 0.28125q0.78125 0.28125 1.375 0.796875q0.59375 0.5 0.9375 1.234375q0.359375 0.71875 0.390625 1.609375l-1.125 0q-0.078125 -0.65625 -0.328125 -1.1875q-0.25 -0.546875 -0.671875 -0.9375q-0.421875 -0.390625 -0.984375 -0.609375q-0.546875 -0.21875 -1.234375 -0.21875q-0.5625 0 -1.125 0.15625q-0.546875 0.15625 -0.984375 0.46875q-0.4375 0.296875 -0.71875 0.765625q-0.265625 0.46875 -0.265625 1.109375q0 0.671875 0.3125 1.15625q0.328125 0.46875 0.8125 0.796875q0.5 0.3125 1.078125 0.53125q0.59375 0.21875 1.125 0.375q0.5 0.15625 1.0 0.34375q0.5 0.1875 0.96875 0.4375q0.46875 0.25 0.875 0.5625q0.40625 0.3125 0.703125 0.71875q0.296875 0.390625 0.46875 0.875q0.171875 0.484375 0.171875 1.078125q0 0.890625 -0.390625 1.5625q-0.375 0.65625 -0.984375 1.09375q-0.609375 0.4375 -1.390625 0.65625q-0.78125 0.21875 -1.578125 0.21875q-0.890625 0 -1.734375 -0.25q-0.828125 -0.265625 -1.484375 -0.765625q-0.65625 -0.515625 -1.0625 -1.25q-0.40625 -0.734375 -0.4375 -1.671875l1.125 0q0.09375 0.71875 0.390625 1.28125q0.296875 0.5625 0.765625 0.9375q0.484375 0.375 1.09375 0.5625q0.625 0.1875 1.34375 0.1875q0.59375 0 1.15625 -0.140625q0.578125 -0.15625 1.03125 -0.46875q0.453125 -0.3125 0.734375 -0.78125q0.28125 -0.484375 0.28125 -1.15625zm4.0549316 -6.703125l4.65625 0l0 9.046875l3.421875 0l0 0.984375l-8.078125 0l0 -0.984375l3.546875 0l0 -8.0625l-3.546875 0l0 -0.984375zm3.21875 -2.75q0 -0.34375 0.1875 -0.59375q0.203125 -0.25 0.65625 -0.25q0.453125 0 0.640625 0.25q0.203125 0.25 0.203125 0.59375q0 0.328125 -0.203125 0.578125q-0.1875 0.234375 -0.640625 0.234375q-0.453125 0 -0.65625 -0.234375q-0.1875 -0.25 -0.1875 -0.578125zm7.7580566 2.75l0.03125 1.109375q0.296875 -0.578125 0.828125 -0.9375q0.546875 -0.359375 1.359375 -0.359375q0.421875 0 0.75 0.09375q0.328125 0.09375 0.5625 0.28125q0.25 0.171875 0.421875 0.421875q0.171875 0.234375 0.265625 0.53125q0.3125 -0.578125 0.859375 -0.953125q0.5625 -0.375 1.390625 -0.375q0.640625 0 1.078125 0.21875q0.4375 0.21875 0.703125 0.609375q0.28125 0.375 0.390625 0.875q0.109375 0.5 0.109375 1.0625l0 7.453125l-1.046875 0l0 -7.453125q0 -0.328125 -0.078125 -0.65625q-0.0625 -0.328125 -0.21875 -0.578125q-0.15625 -0.265625 -0.453125 -0.421875q-0.296875 -0.15625 -0.75 -0.15625q-0.453125 0.015625 -0.78125 0.15625q-0.3125 0.140625 -0.53125 0.359375q-0.203125 0.21875 -0.328125 0.5q-0.109375 0.265625 -0.171875 0.546875l0 7.703125l-1.046875 0l0 -7.5625q0 -0.3125 -0.078125 -0.609375q-0.0625 -0.3125 -0.21875 -0.546875q-0.15625 -0.25 -0.453125 -0.390625q-0.28125 -0.15625 -0.734375 -0.15625q-0.4375 0.015625 -0.75 0.15625q-0.3125 0.125 -0.53125 0.34375q-0.203125 0.21875 -0.328125 0.5q-0.125 0.28125 -0.1875 0.578125l-0.015625 7.6875l-1.046875 0l0 -10.03125l1.0 0zm11.414307 0l4.65625 0l0 9.046875l3.421875 0l0 0.984375l-8.078125 0l0 -0.984375l3.546875 0l0 -8.0625l-3.546875 0l0 -0.984375zm3.21875 -2.75q0 -0.34375 0.1875 -0.59375q0.203125 -0.25 0.65625 -0.25q0.453125 0 0.640625 0.25q0.203125 0.25 0.203125 0.59375q0 0.328125 -0.203125 0.578125q-0.1875 0.234375 -0.640625 0.234375q-0.453125 0 -0.65625 -0.234375q-0.1875 -0.25 -0.1875 -0.578125zm7.9768677 -1.46875l4.671875 0l0 13.265625l3.40625 0l0 0.984375l-8.078125 0l0 -0.984375l3.5625 0l0 -12.265625l-3.5625 0l0 -1.0zm17.836182 14.25q-0.09375 -0.3125 -0.15625 -0.6875q-0.046875 -0.375 -0.0625 -0.765625q-0.296875 0.359375 -0.6875 0.65625q-0.375 0.296875 -0.828125 0.515625q-0.4375 0.21875 -0.96875 0.34375q-0.515625 0.125 -1.078125 0.125q-0.703125 0 -1.3125 -0.203125q-0.609375 -0.203125 -1.0625 -0.578125q-0.4375 -0.375 -0.703125 -0.890625q-0.25 -0.53125 -0.25 -1.171875q0 -0.875 0.375 -1.46875q0.390625 -0.609375 1.03125 -0.984375q0.65625 -0.375 1.5 -0.546875q0.859375 -0.171875 1.796875 -0.171875l2.171875 0l0 -1.15625q-0.015625 -0.5625 -0.234375 -0.984375q-0.203125 -0.4375 -0.578125 -0.71875q-0.359375 -0.296875 -0.875 -0.4375q-0.5 -0.15625 -1.09375 -0.15625q-0.53125 0 -1.015625 0.140625q-0.484375 0.125 -0.859375 0.390625q-0.375 0.265625 -0.609375 0.640625q-0.234375 0.375 -0.25 0.84375l-1.125 -0.015625q0.03125 -0.625 0.34375 -1.15625q0.3125 -0.546875 0.84375 -0.9375q0.53125 -0.40625 1.21875 -0.625q0.703125 -0.21875 1.5 -0.21875q0.796875 0 1.5 0.203125q0.703125 0.203125 1.21875 0.609375q0.515625 0.40625 0.8125 1.015625q0.3125 0.609375 0.3125 1.4375l0 4.859375q0 0.5 0.078125 1.015625q0.09375 0.5 0.234375 0.96875l0 0.109375l-1.1875 0zm-3.65625 -0.796875q0.578125 0.015625 1.109375 -0.125q0.546875 -0.15625 0.984375 -0.421875q0.453125 -0.265625 0.78125 -0.625q0.34375 -0.375 0.546875 -0.8125l0 -2.203125l-2.03125 0q-0.71875 0 -1.40625 0.109375q-0.671875 0.109375 -1.203125 0.375q-0.515625 0.25 -0.828125 0.6875q-0.296875 0.421875 -0.296875 1.0625q0 0.453125 0.171875 0.8125q0.1875 0.359375 0.5 0.625q0.328125 0.25 0.75 0.390625q0.421875 0.125 0.921875 0.125zm14.601807 -9.421875q0.40625 0 0.828125 0.046875q0.421875 0.046875 0.703125 0.140625l-0.140625 1.0625q-0.390625 -0.078125 -0.78125 -0.125q-0.390625 -0.046875 -0.796875 -0.046875q-1.40625 0 -2.390625 0.671875q-0.984375 0.671875 -1.390625 2.046875l0.015625 6.421875l-1.15625 0l0 -10.03125l1.0625 0l0.078125 1.734375l0 0.203125q0.609375 -0.984375 1.625 -1.546875q1.015625 -0.578125 2.34375 -0.578125zm4.8049316 0.1875l4.65625 0l0 9.046875l3.421875 0l0 0.984375l-8.078125 0l0 -0.984375l3.546875 0l0 -8.0625l-3.546875 0l0 -0.984375zm3.21875 -2.75q0 -0.34375 0.1875 -0.59375q0.203125 -0.25 0.65625 -0.25q0.453125 0 0.640625 0.25q0.203125 0.25 0.203125 0.59375q0 0.328125 -0.203125 0.578125q-0.1875 0.234375 -0.640625 0.234375q-0.453125 0 -0.65625 -0.234375q-0.1875 -0.25 -0.1875 -0.578125zm11.429993 0.171875l0 2.578125l3.71875 0l0 0.90625l-3.71875 0l0 6.3125q0 0.578125 0.171875 0.96875q0.171875 0.390625 0.453125 0.625q0.296875 0.234375 0.6875 0.34375q0.40625 0.09375 0.875 0.09375q0.453125 0 0.9375 -0.0625q0.5 -0.0625 0.84375 -0.125l0.15625 0.84375q-0.390625 0.15625 -0.96875 0.234375q-0.578125 0.078125 -1.171875 0.078125q-0.671875 0 -1.234375 -0.171875q-0.5625 -0.15625 -0.984375 -0.515625q-0.40625 -0.359375 -0.65625 -0.921875q-0.234375 -0.578125 -0.25 -1.40625l0 -6.296875l-2.796875 0l0 -0.90625l2.796875 0l0 -2.578125l1.140625 0zm11.258057 10.5625l0.203125 0.546875l3.625 -8.53125l1.265625 0l-5.1875 11.640625q-0.203125 0.453125 -0.484375 0.890625q-0.265625 0.4375 -0.65625 0.78125q-0.375 0.34375 -0.875 0.546875q-0.5 0.21875 -1.140625 0.21875q-0.21875 0 -0.484375 -0.046875q-0.265625 -0.03125 -0.453125 -0.078125l0.125 -0.921875q0.15625 0.015625 0.390625 0.03125q0.25 0.03125 0.40625 0.03125q0.421875 0 0.765625 -0.171875q0.359375 -0.15625 0.625 -0.421875q0.28125 -0.265625 0.484375 -0.59375q0.21875 -0.328125 0.359375 -0.65625l0.6875 -1.484375l-4.515625 -9.765625l1.25 0l3.609375 7.984375z" fill-rule="nonzero"></path><path fill="#ffffff" d="m797.28326 585.78876l-1.046875 0l0 -6.46875l-6.34375 0l0 6.46875l-1.0625 0l0 -13.515625l1.0625 0l0 6.078125l6.34375 0l0 -6.078125l1.046875 0l0 13.515625zm9.961182 0q-0.09375 -0.3125 -0.15625 -0.6875q-0.046875 -0.375 -0.0625 -0.765625q-0.296875 0.359375 -0.6875 0.65625q-0.375 0.296875 -0.828125 0.515625q-0.4375 0.21875 -0.96875 0.34375q-0.515625 0.125 -1.078125 0.125q-0.703125 0 -1.3125 -0.203125q-0.609375 -0.203125 -1.0625 -0.578125q-0.4375 -0.375 -0.703125 -0.890625q-0.25 -0.53125 -0.25 -1.171875q0 -0.875 0.375 -1.46875q0.390625 -0.609375 1.03125 -0.984375q0.65625 -0.375 1.5 -0.546875q0.859375 -0.171875 1.796875 -0.171875l2.171875 0l0 -1.15625q-0.015625 -0.5625 -0.234375 -0.984375q-0.203125 -0.4375 -0.578125 -0.71875q-0.359375 -0.296875 -0.875 -0.4375q-0.5 -0.15625 -1.09375 -0.15625q-0.53125 0 -1.015625 0.140625q-0.484375 0.125 -0.859375 0.390625q-0.375 0.265625 -0.609375 0.640625q-0.234375 0.375 -0.25 0.84375l-1.125 -0.015625q0.03125 -0.625 0.34375 -1.15625q0.3125 -0.546875 0.84375 -0.9375q0.53125 -0.40625 1.21875 -0.625q0.703125 -0.21875 1.5 -0.21875q0.796875 0 1.5 0.203125q0.703125 0.203125 1.21875 0.609375q0.515625 0.40625 0.8125 1.015625q0.3125 0.609375 0.3125 1.4375l0 4.859375q0 0.5 0.078125 1.015625q0.09375 0.5 0.234375 0.96875l0 0.109375l-1.1875 0zm-3.65625 -0.796875q0.578125 0.015625 1.109375 -0.125q0.546875 -0.15625 0.984375 -0.421875q0.453125 -0.265625 0.78125 -0.625q0.34375 -0.375 0.546875 -0.8125l0 -2.203125l-2.03125 0q-0.71875 0 -1.40625 0.109375q-0.671875 0.109375 -1.203125 0.375q-0.515625 0.25 -0.828125 0.6875q-0.296875 0.421875 -0.296875 1.0625q0 0.453125 0.171875 0.8125q0.1875 0.359375 0.5 0.625q0.328125 0.25 0.75 0.390625q0.421875 0.125 0.921875 0.125zm14.961182 -1.75q0 -0.46875 -0.234375 -0.8125q-0.234375 -0.34375 -0.640625 -0.578125q-0.390625 -0.25 -0.921875 -0.421875q-0.53125 -0.171875 -1.125 -0.28125q-0.71875 -0.15625 -1.40625 -0.359375q-0.671875 -0.21875 -1.203125 -0.53125q-0.53125 -0.328125 -0.84375 -0.796875q-0.3125 -0.46875 -0.3125 -1.15625q0 -0.65625 0.3125 -1.15625q0.328125 -0.515625 0.859375 -0.859375q0.53125 -0.359375 1.203125 -0.53125q0.6875 -0.1875 1.390625 -0.1875q0.828125 0 1.53125 0.203125q0.71875 0.1875 1.25 0.578125q0.53125 0.375 0.84375 0.9375q0.3125 0.5625 0.34375 1.265625l-1.109375 0q-0.015625 -0.46875 -0.265625 -0.859375q-0.234375 -0.390625 -0.640625 -0.640625q-0.390625 -0.265625 -0.90625 -0.40625q-0.5 -0.140625 -1.046875 -0.140625q-0.5 0 -0.984375 0.109375q-0.46875 0.109375 -0.84375 0.328125q-0.375 0.21875 -0.609375 0.546875q-0.21875 0.328125 -0.21875 0.765625q-0.015625 0.484375 0.21875 0.8125q0.234375 0.3125 0.609375 0.53125q0.390625 0.21875 0.921875 0.359375q0.53125 0.140625 1.125 0.265625q0.75 0.15625 1.4375 0.390625q0.703125 0.21875 1.21875 0.5625q0.53125 0.328125 0.84375 0.828125q0.3125 0.484375 0.3125 1.171875q0 0.703125 -0.34375 1.234375q-0.34375 0.515625 -0.890625 0.875q-0.546875 0.34375 -1.265625 0.515625q-0.703125 0.171875 -1.453125 0.171875q-0.84375 0 -1.59375 -0.203125q-0.75 -0.203125 -1.328125 -0.59375q-0.5625 -0.390625 -0.90625 -0.9375q-0.34375 -0.5625 -0.375 -1.265625l1.109375 0q0.0625 0.59375 0.359375 1.0q0.3125 0.390625 0.75 0.625q0.4375 0.234375 0.953125 0.34375q0.53125 0.09375 1.03125 0.09375q0.5 0 1.0 -0.109375q0.515625 -0.109375 0.921875 -0.328125q0.40625 -0.21875 0.65625 -0.546875q0.25 -0.34375 0.265625 -0.8125zm5.3049316 -5.546875q0.53125 -0.96875 1.40625 -1.546875q0.890625 -0.578125 2.015625 -0.578125q0.828125 0 1.453125 0.25q0.640625 0.25 1.0625 0.75q0.4375 0.484375 0.65625 1.203125q0.234375 0.703125 0.234375 1.609375l0 6.40625l-1.109375 0l0 -6.40625q0 -0.671875 -0.15625 -1.203125q-0.15625 -0.53125 -0.484375 -0.890625q-0.3125 -0.375 -0.796875 -0.5625q-0.484375 -0.203125 -1.125 -0.203125q-0.53125 0 -1.015625 0.171875q-0.484375 0.171875 -0.890625 0.46875q-0.40625 0.296875 -0.734375 0.703125q-0.3125 0.390625 -0.515625 0.875l0 7.046875l-1.109375 0l0 -14.25l1.109375 0l0 6.15625zm21.12555 8.09375l0 -13.515625l3.265625 0q1.296875 0.03125 2.3125 0.53125q1.03125 0.484375 1.734375 1.3125q0.703125 0.8125 1.078125 1.921875q0.375 1.09375 0.390625 2.34375l0 1.3125q-0.015625 1.25 -0.390625 2.359375q-0.375 1.09375 -1.078125 1.921875q-0.703125 0.8125 -1.734375 1.3125q-1.015625 0.484375 -2.3125 0.5l-3.265625 0zm1.109375 -12.5625l0 11.625l2.15625 0q1.09375 -0.015625 1.90625 -0.4375q0.828125 -0.4375 1.375 -1.140625q0.546875 -0.71875 0.828125 -1.640625q0.28125 -0.921875 0.296875 -1.9375l0 -1.34375q-0.015625 -1.0 -0.296875 -1.921875q-0.28125 -0.921875 -0.828125 -1.625q-0.546875 -0.703125 -1.375 -1.125q-0.8125 -0.4375 -1.90625 -0.453125l-2.15625 0zm10.492432 2.53125l4.65625 0l0 9.046875l3.421875 0l0 0.984375l-8.078125 0l0 -0.984375l3.546875 0l0 -8.0625l-3.546875 0l0 -0.984375zm3.21875 -2.75q0 -0.34375 0.1875 -0.59375q0.203125 -0.25 0.65625 -0.25q0.453125 0 0.640625 0.25q0.203125 0.25 0.203125 0.59375q0 0.328125 -0.203125 0.578125q-0.1875 0.234375 -0.640625 0.234375q-0.453125 0 -0.65625 -0.234375q-0.1875 -0.25 -0.1875 -0.578125zm7.3986816 7.671875q0 -1.0 0.234375 -1.921875q0.25 -0.921875 0.75 -1.625q0.5 -0.71875 1.234375 -1.140625q0.75 -0.421875 1.78125 -0.421875q0.953125 0 1.71875 0.421875q0.765625 0.40625 1.28125 1.15625l0.046875 -1.390625l1.046875 0l0 9.859375q-0.015625 0.921875 -0.296875 1.6875q-0.28125 0.765625 -0.8125 1.3125q-0.515625 0.5625 -1.265625 0.859375q-0.734375 0.3125 -1.65625 0.3125q-0.453125 0 -0.9375 -0.109375q-0.46875 -0.09375 -0.9375 -0.3125q-0.46875 -0.203125 -0.890625 -0.53125q-0.421875 -0.3125 -0.734375 -0.765625l0.625 -0.671875q1.1875 1.453125 2.796875 1.453125q0.71875 0 1.265625 -0.234375q0.5625 -0.234375 0.9375 -0.65625q0.375 -0.421875 0.578125 -1.015625q0.203125 -0.578125 0.203125 -1.28125l0 -1.140625q-0.53125 0.703125 -1.296875 1.078125q-0.75 0.375 -1.6875 0.375q-1.015625 0 -1.765625 -0.421875q-0.734375 -0.4375 -1.234375 -1.140625q-0.484375 -0.71875 -0.734375 -1.640625q-0.25 -0.921875 -0.25 -1.90625l0 -0.1875zm1.125 0.1875q0 0.75 0.15625 1.5q0.15625 0.734375 0.515625 1.328125q0.375 0.59375 0.953125 0.953125q0.59375 0.359375 1.4375 0.359375q0.46875 0 0.890625 -0.125q0.4375 -0.125 0.78125 -0.359375q0.359375 -0.234375 0.640625 -0.5625q0.28125 -0.328125 0.46875 -0.734375l0 -4.78125q-0.1875 -0.40625 -0.453125 -0.765625q-0.265625 -0.359375 -0.625 -0.609375q-0.34375 -0.25 -0.78125 -0.390625q-0.421875 -0.15625 -0.90625 -0.15625q-0.859375 0 -1.453125 0.375q-0.578125 0.359375 -0.953125 0.953125q-0.359375 0.59375 -0.515625 1.34375q-0.15625 0.734375 -0.15625 1.484375l0 0.1875zm14.679993 5.109375q-1.046875 0 -1.921875 -0.390625q-0.859375 -0.390625 -1.484375 -1.0625q-0.609375 -0.671875 -0.953125 -1.5625q-0.328125 -0.890625 -0.34375 -1.90625l0 -0.390625q0.015625 -1.078125 0.359375 -2.0q0.359375 -0.9375 0.953125 -1.625q0.609375 -0.6875 1.421875 -1.078125q0.8125 -0.390625 1.75 -0.390625q1.0 0 1.765625 0.359375q0.78125 0.359375 1.296875 0.984375q0.53125 0.625 0.796875 1.46875q0.28125 0.828125 0.296875 1.78125l0 0.6875l-7.515625 0l0 0.203125q0 0.796875 0.265625 1.515625q0.265625 0.71875 0.734375 1.265625q0.46875 0.546875 1.140625 0.875q0.671875 0.328125 1.484375 0.328125q0.921875 0 1.671875 -0.34375q0.75 -0.359375 1.28125 -1.015625l0.703125 0.515625q-0.265625 0.390625 -0.65625 0.734375q-0.375 0.328125 -0.84375 0.5625q-0.46875 0.21875 -1.03125 0.34375q-0.546875 0.140625 -1.171875 0.140625zm-0.21875 -9.46875q-0.671875 0 -1.25 0.265625q-0.5625 0.25 -0.984375 0.703125q-0.421875 0.453125 -0.703125 1.078125q-0.28125 0.609375 -0.375 1.34375l6.34375 0l0 -0.125q-0.015625 -0.625 -0.21875 -1.203125q-0.203125 -0.59375 -0.59375 -1.046875q-0.390625 -0.453125 -0.953125 -0.734375q-0.546875 -0.28125 -1.265625 -0.28125zm14.133057 6.734375q0 -0.46875 -0.234375 -0.8125q-0.234375 -0.34375 -0.640625 -0.578125q-0.390625 -0.25 -0.921875 -0.421875q-0.53125 -0.171875 -1.125 -0.28125q-0.71875 -0.15625 -1.40625 -0.359375q-0.671875 -0.21875 -1.203125 -0.53125q-0.53125 -0.328125 -0.84375 -0.796875q-0.3125 -0.46875 -0.3125 -1.15625q0 -0.65625 0.3125 -1.15625q0.328125 -0.515625 0.859375 -0.859375q0.53125 -0.359375 1.203125 -0.53125q0.6875 -0.1875 1.390625 -0.1875q0.828125 0 1.53125 0.203125q0.71875 0.1875 1.25 0.578125q0.53125 0.375 0.84375 0.9375q0.3125 0.5625 0.34375 1.265625l-1.109375 0q-0.015625 -0.46875 -0.265625 -0.859375q-0.234375 -0.390625 -0.640625 -0.640625q-0.390625 -0.265625 -0.90625 -0.40625q-0.5 -0.140625 -1.046875 -0.140625q-0.5 0 -0.984375 0.109375q-0.46875 0.109375 -0.84375 0.328125q-0.375 0.21875 -0.609375 0.546875q-0.21875 0.328125 -0.21875 0.765625q-0.015625 0.484375 0.21875 0.8125q0.234375 0.3125 0.609375 0.53125q0.390625 0.21875 0.921875 0.359375q0.53125 0.140625 1.125 0.265625q0.75 0.15625 1.4375 0.390625q0.703125 0.21875 1.21875 0.5625q0.53125 0.328125 0.84375 0.828125q0.3125 0.484375 0.3125 1.171875q0 0.703125 -0.34375 1.234375q-0.34375 0.515625 -0.890625 0.875q-0.546875 0.34375 -1.265625 0.515625q-0.703125 0.171875 -1.453125 0.171875q-0.84375 0 -1.59375 -0.203125q-0.75 -0.203125 -1.328125 -0.59375q-0.5625 -0.390625 -0.90625 -0.9375q-0.34375 -0.5625 -0.375 -1.265625l1.109375 0q0.0625 0.59375 0.359375 1.0q0.3125 0.390625 0.75 0.625q0.4375 0.234375 0.953125 0.34375q0.53125 0.09375 1.03125 0.09375q0.5 0 1.0 -0.109375q0.515625 -0.109375 0.921875 -0.328125q0.40625 -0.21875 0.65625 -0.546875q0.25 -0.34375 0.265625 -0.8125zm7.8986816 -10.0625l0 2.578125l3.71875 0l0 0.90625l-3.71875 0l0 6.3125q0 0.578125 0.171875 0.96875q0.171875 0.390625 0.453125 0.625q0.296875 0.234375 0.6875 0.34375q0.40625 0.09375 0.875 0.09375q0.453125 0 0.9375 -0.0625q0.5 -0.0625 0.84375 -0.125l0.15625 0.84375q-0.390625 0.15625 -0.96875 0.234375q-0.578125 0.078125 -1.171875 0.078125q-0.671875 0 -1.234375 -0.171875q-0.5625 -0.15625 -0.984375 -0.515625q-0.40625 -0.359375 -0.65625 -0.921875q-0.234375 -0.578125 -0.25 -1.40625l0 -6.296875l-2.796875 0l0 -0.90625l2.796875 0l0 -2.578125l1.140625 0z" fill-rule="nonzero"></path><path fill="#4fc3f7" d="m769.26904 444.37558l0 0c0 -7.0914 5.7487183 -12.840149 12.840149 -12.840149l133.65826 0c3.4053955 0 6.6713867 1.3528137 9.079346 3.7608032c2.40802 2.4079895 3.7608032 5.6739197 3.7608032 9.079346l0 51.35907c0 7.0914307 -5.7487183 12.840149 -12.840149 12.840149l-133.65826 0l0 0c-7.0914307 0 -12.840149 -5.7487183 -12.840149 -12.840149z" fill-rule="evenodd"></path><path fill="#ffffff" d="m794.7573 474.97513l0 -13.515625l3.703125 0q0.8125 0.015625 1.578125 0.234375q0.78125 0.203125 1.375 0.640625q0.609375 0.421875 0.96875 1.09375q0.375 0.65625 0.359375 1.578125q0 0.578125 -0.171875 1.03125q-0.171875 0.453125 -0.484375 0.8125q-0.296875 0.359375 -0.703125 0.625q-0.40625 0.265625 -0.875 0.4375q0.578125 0.140625 1.078125 0.4375q0.5 0.28125 0.859375 0.703125q0.359375 0.421875 0.5625 0.96875q0.21875 0.53125 0.21875 1.15625q0 0.890625 -0.34375 1.59375q-0.34375 0.703125 -0.921875 1.1875q-0.578125 0.484375 -1.34375 0.75q-0.765625 0.25 -1.609375 0.265625l-4.25 0zm1.109375 -6.5l0 5.53125l3.171875 0q0.609375 0 1.15625 -0.203125q0.5625 -0.203125 0.984375 -0.5625q0.421875 -0.359375 0.671875 -0.875q0.25 -0.515625 0.25 -1.171875q0 -0.640625 -0.234375 -1.140625q-0.234375 -0.5 -0.65625 -0.84375q-0.40625 -0.34375 -0.953125 -0.515625q-0.546875 -0.1875 -1.140625 -0.21875l-3.25 0zm0 -0.953125l2.71875 0q0.59375 0 1.140625 -0.15625q0.546875 -0.171875 0.96875 -0.484375q0.421875 -0.3125 0.671875 -0.78125q0.265625 -0.484375 0.265625 -1.125q0 -0.671875 -0.265625 -1.15625q-0.265625 -0.484375 -0.71875 -0.78125q-0.4375 -0.296875 -1.015625 -0.4375q-0.5625 -0.15625 -1.15625 -0.15625l-2.609375 0l0 5.078125zm10.336182 -2.578125l4.65625 0l0 9.046875l3.421875 0l0 0.984375l-8.078125 0l0 -0.984375l3.546875 0l0 -8.0625l-3.546875 0l0 -0.984375zm3.21875 -2.75q0 -0.34375 0.1875 -0.59375q0.203125 -0.25 0.65625 -0.25q0.453125 0 0.640625 0.25q0.203125 0.25 0.203125 0.59375q0 0.328125 -0.203125 0.578125q-0.1875 0.234375 -0.640625 0.234375q-0.453125 0 -0.65625 -0.234375q-0.1875 -0.25 -0.1875 -0.578125zm11.429993 0.171875l0 2.578125l3.71875 0l0 0.90625l-3.71875 0l0 6.3125q0 0.578125 0.171875 0.96875q0.171875 0.390625 0.453125 0.625q0.296875 0.234375 0.6875 0.34375q0.40625 0.09375 0.875 0.09375q0.453125 0 0.9375 -0.0625q0.5 -0.0625 0.84375 -0.125l0.15625 0.84375q-0.390625 0.15625 -0.96875 0.234375q-0.578125 0.078125 -1.171875 0.078125q-0.671875 0 -1.234375 -0.171875q-0.5625 -0.15625 -0.984375 -0.515625q-0.40625 -0.359375 -0.65625 -0.921875q-0.234375 -0.578125 -0.25 -1.40625l0 -6.296875l-2.796875 0l0 -0.90625l2.796875 0l0 -2.578125l1.140625 0zm27.094238 8.515625q-0.125 0.90625 -0.46875 1.6875q-0.34375 0.78125 -0.90625 1.359375q-0.5625 0.578125 -1.34375 0.90625q-0.765625 0.328125 -1.734375 0.328125q-0.8125 0 -1.46875 -0.25q-0.640625 -0.25 -1.15625 -0.671875q-0.5 -0.421875 -0.875 -1.0q-0.359375 -0.578125 -0.609375 -1.234375q-0.234375 -0.671875 -0.359375 -1.375q-0.109375 -0.71875 -0.125 -1.421875l0 -1.96875q0.015625 -0.703125 0.125 -1.40625q0.125 -0.71875 0.359375 -1.375q0.25 -0.671875 0.609375 -1.25q0.375 -0.578125 0.875 -1.0q0.515625 -0.4375 1.15625 -0.671875q0.65625 -0.25 1.46875 -0.25q0.984375 0 1.75 0.328125q0.78125 0.3125 1.34375 0.890625q0.578125 0.578125 0.90625 1.375q0.34375 0.78125 0.453125 1.71875l-1.109375 0q-0.109375 -0.703125 -0.359375 -1.3125q-0.25 -0.609375 -0.65625 -1.0625q-0.40625 -0.46875 -0.984375 -0.734375q-0.578125 -0.265625 -1.34375 -0.265625q-0.65625 0 -1.171875 0.234375q-0.5 0.21875 -0.890625 0.59375q-0.390625 0.359375 -0.65625 0.859375q-0.265625 0.5 -0.4375 1.0625q-0.15625 0.546875 -0.25 1.125q-0.078125 0.578125 -0.078125 1.125l0 1.984375q0 0.546875 0.078125 1.140625q0.09375 0.578125 0.25 1.140625q0.171875 0.546875 0.4375 1.046875q0.265625 0.484375 0.65625 0.859375q0.390625 0.375 0.890625 0.609375q0.515625 0.21875 1.171875 0.21875q0.78125 0 1.359375 -0.25q0.578125 -0.265625 0.984375 -0.71875q0.40625 -0.453125 0.640625 -1.0625q0.25 -0.609375 0.359375 -1.3125l1.109375 0zm2.2111816 -1.078125q0 -1.015625 0.3125 -1.9375q0.3125 -0.921875 0.875 -1.609375q0.578125 -0.6875 1.40625 -1.09375q0.828125 -0.40625 1.875 -0.40625q1.0625 0 1.890625 0.40625q0.828125 0.40625 1.40625 1.09375q0.578125 0.6875 0.875 1.609375q0.3125 0.921875 0.3125 1.9375l0 0.3125q0 1.015625 -0.3125 1.9375q-0.296875 0.921875 -0.875 1.609375q-0.5625 0.6875 -1.390625 1.09375q-0.828125 0.40625 -1.890625 0.40625q-1.0625 0 -1.890625 -0.40625q-0.828125 -0.40625 -1.40625 -1.09375q-0.5625 -0.6875 -0.875 -1.609375q-0.3125 -0.921875 -0.3125 -1.9375l0 -0.3125zm1.109375 0.3125q0 0.796875 0.21875 1.546875q0.234375 0.734375 0.65625 1.3125q0.421875 0.5625 1.046875 0.90625q0.625 0.34375 1.453125 0.34375q0.8125 0 1.4375 -0.34375q0.640625 -0.34375 1.0625 -0.90625q0.421875 -0.578125 0.640625 -1.3125q0.21875 -0.75 0.21875 -1.546875l0 -0.3125q0 -0.78125 -0.21875 -1.515625q-0.21875 -0.75 -0.65625 -1.3125q-0.421875 -0.578125 -1.0625 -0.921875q-0.625 -0.359375 -1.4375 -0.359375q-0.8125 0 -1.4375 0.359375q-0.625 0.34375 -1.046875 0.921875q-0.421875 0.5625 -0.65625 1.3125q-0.21875 0.734375 -0.21875 1.515625l0 0.3125zm17.398743 3.296875q-0.5 0.8125 -1.328125 1.28125q-0.8125 0.46875 -1.9375 0.46875q-0.84375 0 -1.484375 -0.265625q-0.625 -0.28125 -1.0625 -0.796875q-0.421875 -0.515625 -0.65625 -1.265625q-0.21875 -0.75 -0.21875 -1.71875l0 -6.171875l1.09375 0l0 6.1875q0.015625 1.515625 0.609375 2.296875q0.59375 0.78125 1.84375 0.78125q1.25 0 2.03125 -0.578125q0.78125 -0.578125 1.078125 -1.5625l0 -7.125l1.125 0l0 10.03125l-1.046875 0l-0.046875 -1.5625zm5.4768066 -8.46875l0.078125 1.875q0.53125 -0.9375 1.40625 -1.5q0.890625 -0.5625 2.015625 -0.5625q1.640625 0 2.515625 0.984375q0.875 0.984375 0.890625 2.8125l0 6.421875l-1.125 0l0 -6.40625q0 -1.390625 -0.625 -2.125q-0.625 -0.734375 -1.921875 -0.734375q-0.546875 0 -1.03125 0.1875q-0.484375 0.171875 -0.890625 0.484375q-0.40625 0.296875 -0.71875 0.71875q-0.3125 0.421875 -0.5 0.90625l0 6.96875l-1.109375 0l0 -10.03125l1.015625 0zm13.883057 -2.578125l0 2.578125l3.71875 0l0 0.90625l-3.71875 0l0 6.3125q0 0.578125 0.171875 0.96875q0.171875 0.390625 0.453125 0.625q0.296875 0.234375 0.6875 0.34375q0.40625 0.09375 0.875 0.09375q0.453125 0 0.9375 -0.0625q0.5 -0.0625 0.84375 -0.125l0.15625 0.84375q-0.390625 0.15625 -0.96875 0.234375q-0.578125 0.078125 -1.171875 0.078125q-0.671875 0 -1.234375 -0.171875q-0.5625 -0.15625 -0.984375 -0.515625q-0.40625 -0.359375 -0.65625 -0.921875q-0.234375 -0.578125 -0.25 -1.40625l0 -6.296875l-2.796875 0l0 -0.90625l2.796875 0l0 -2.578125l1.140625 0zm14.492432 10.0625q0 -0.46875 -0.234375 -0.8125q-0.234375 -0.34375 -0.640625 -0.578125q-0.390625 -0.25 -0.921875 -0.421875q-0.53125 -0.171875 -1.125 -0.28125q-0.71875 -0.15625 -1.40625 -0.359375q-0.671875 -0.21875 -1.203125 -0.53125q-0.53125 -0.328125 -0.84375 -0.796875q-0.3125 -0.46875 -0.3125 -1.15625q0 -0.65625 0.3125 -1.15625q0.328125 -0.515625 0.859375 -0.859375q0.53125 -0.359375 1.203125 -0.53125q0.6875 -0.1875 1.390625 -0.1875q0.828125 0 1.53125 0.203125q0.71875 0.1875 1.25 0.578125q0.53125 0.375 0.84375 0.9375q0.3125 0.5625 0.34375 1.265625l-1.109375 0q-0.015625 -0.46875 -0.265625 -0.859375q-0.234375 -0.390625 -0.640625 -0.640625q-0.390625 -0.265625 -0.90625 -0.40625q-0.5 -0.140625 -1.046875 -0.140625q-0.5 0 -0.984375 0.109375q-0.46875 0.109375 -0.84375 0.328125q-0.375 0.21875 -0.609375 0.546875q-0.21875 0.328125 -0.21875 0.765625q-0.015625 0.484375 0.21875 0.8125q0.234375 0.3125 0.609375 0.53125q0.390625 0.21875 0.921875 0.359375q0.53125 0.140625 1.125 0.265625q0.75 0.15625 1.4375 0.390625q0.703125 0.21875 1.21875 0.5625q0.53125 0.328125 0.84375 0.828125q0.3125 0.484375 0.3125 1.171875q0 0.703125 -0.34375 1.234375q-0.34375 0.515625 -0.890625 0.875q-0.546875 0.34375 -1.265625 0.515625q-0.703125 0.171875 -1.453125 0.171875q-0.84375 0 -1.59375 -0.203125q-0.75 -0.203125 -1.328125 -0.59375q-0.5625 -0.390625 -0.90625 -0.9375q-0.34375 -0.5625 -0.375 -1.265625l1.109375 0q0.0625 0.59375 0.359375 1.0q0.3125 0.390625 0.75 0.625q0.4375 0.234375 0.953125 0.34375q0.53125 0.09375 1.03125 0.09375q0.5 0 1.0 -0.109375q0.515625 -0.109375 0.921875 -0.328125q0.40625 -0.21875 0.65625 -0.546875q0.25 -0.34375 0.265625 -0.8125z" fill-rule="nonzero"></path></g></svg>

